<?xml version="1.0" standalone="no"?>
<!DOCTYPE svg PUBLIC "-//W3C//DTD SVG 1.1//EN" "http://www.w3.org/Graphics/SVG/1.1/DTD/svg11.dtd" >
<svg xmlns="http://www.w3.org/2000/svg" xmlns:xlink="http://www.w3.org/1999/xlink" version="1.1">
<metadata></metadata>
<defs>
<font id="dauphineregular" horiz-adv-x="890" >
<font-face units-per-em="2048" ascent="1536" descent="-512" />
<missing-glyph horiz-adv-x="512" />
<glyph unicode="&#xfb01;" horiz-adv-x="927" d="M61 715v123h175v350q0 123 66.5 199.5t189.5 76.5v-133q-61 0 -92 -35.5t-31 -97.5v-360h446v-838h-133v715h-313v-715h-133v715h-175zM672 1087v154h153v-154h-153z" />
<glyph unicode="&#xfb02;" horiz-adv-x="927" d="M61 715v123h175v350q0 123 66.5 199.5t189.5 76.5v-133q-61 0 -92 -35.5t-31 -97.5v-360h123v-123h-123v-715h-133v715h-175zM682 0v1444h133v-1444h-133z" />
<glyph unicode="&#xfb03;" horiz-adv-x="1374" d="M61 715v123h175v350q0 123 66.5 199.5t189.5 76.5v-133q-61 0 -92 -35.5t-31 -97.5v-360h313v350q0 123 66.5 199.5t189.5 76.5v-133q-61 0 -92 -35.5t-31 -97.5v-360h447v-838h-134v715h-313v-715h-133v715h-313v-715h-133v715h-175zM1118 1094v153h154v-153h-154z" />
<glyph unicode="&#xfb04;" horiz-adv-x="1374" d="M61 715v123h175v350q0 123 66.5 199.5t189.5 76.5v-123q-61 0 -92 -40.5t-31 -102.5v-360h313v350q0 123 66.5 199.5t189.5 76.5v-123q-61 0 -92 -40.5t-31 -102.5v-360h313v606h134v-1444h-134v715h-313v-715h-133v715h-313v-715h-133v715h-175z" />
<glyph horiz-adv-x="0" />
<glyph unicode="&#xd;" horiz-adv-x="512" />
<glyph unicode=" "  horiz-adv-x="512" />
<glyph unicode="&#x09;" horiz-adv-x="512" />
<glyph unicode="&#xa0;" horiz-adv-x="512" />
<glyph unicode="!" horiz-adv-x="348" d="M115 0v160h159v-160h-159zM123 307v1137h143v-1137h-143z" />
<glyph unicode="&#x22;" horiz-adv-x="780" d="M127 991l149 453h127l-149 -453h-127zM397 991l150 453h127l-150 -453h-127z" />
<glyph unicode="#" horiz-adv-x="1187" d="M102 391v129h181l108 404h-207v129h242l106 391h134l-107 -391h246l106 391h133l-106 -391h147v-129h-182l-108 -404h209v-129h-244l-105 -391h-133l105 391h-246l-105 -391h-133l105 391h-146zM416 520h246l108 404h-246z" />
<glyph unicode="$" horiz-adv-x="1161" d="M102 410h154q0 -135 87 -218t243 -83t242.5 82.5t86.5 218.5q0 57 -27.5 97t-73.5 69.5t-105.5 53t-122.5 46.5q-86 31 -165 61.5t-140.5 75.5t-97.5 109.5t-36 164.5q0 78 29 142.5t78 113t114.5 79t141.5 38.5v189h135v-191q72 -12 134.5 -43t108.5 -79t72.5 -111.5 t26.5 -137.5h-153q0 53 -21.5 99.5t-58.5 79t-86.5 51t-102.5 18.5q-123 0 -195.5 -69.5t-72.5 -178.5q0 -53 22.5 -91t62.5 -66.5t92 -51t112 -42.5q96 -35 183 -66t152.5 -75t104.5 -111.5t39 -173.5q0 -98 -34 -175t-90 -130.5t-133 -84t-163 -38.5v-187h-135v189 q-84 10 -157.5 41.5t-129 85t-88.5 128t-33 171.5z" />
<glyph unicode="%" horiz-adv-x="1167" d="M102 1223q0 49 18.5 93t51.5 76.5t77 52t93 19.5t93 -19.5t77 -52t52.5 -76.5t19.5 -93t-19.5 -93.5t-52.5 -77t-77 -51t-93 -18.5t-93 18.5t-77 51t-51.5 77t-18.5 93.5zM109 0l811 1444h141l-811 -1444h-141zM215 1223q0 -53 37 -93t90 -40t91 39.5t38 93.5 q0 53 -38 94t-91 41t-90 -41t-37 -94zM584 219q0 49 18.5 93t51 77t76.5 52.5t93 19.5t93.5 -19.5t77 -52.5t52 -77t19.5 -93t-19.5 -93t-52 -77t-77 -51t-93.5 -18t-93 18t-76.5 51t-51 77t-18.5 93zM696 219q0 -53 37 -93t90 -40t91 40t38 93t-37.5 94t-91.5 41 q-53 0 -90 -41t-37 -94z" />
<glyph unicode="&#x26;" horiz-adv-x="1150" d="M82 473q0 137 66.5 245.5t177.5 168.5l-56 80q-23 35 -34 80t-11 88q0 68 25.5 128t70 104t103.5 70.5t129 26.5q68 0 128 -26.5t105 -70.5t71 -104.5t26 -127.5q0 -70 -26 -129.5t-71 -103.5t-105 -68.5t-128 -24.5l324 -481q27 70 26 145v176h144v-174 q0 -78 -21.5 -147.5t-62.5 -128.5l147 -219h-156l-82 118q-66 -55 -146.5 -86.5t-172.5 -31.5q-104 0 -190.5 37.5t-148.5 104t-97 157t-35 194.5zM225 473q0 -70 25.5 -134.5t70 -114.5t103.5 -80.5t129 -30.5q74 0 135.5 24.5t108.5 69.5l-394 565q-80 -41 -129 -121 t-49 -178zM369 1135q0 -35 15 -66t26 -47l57 -88q39 8 86 8q86 0 136 53.5t50 139.5t-50 141t-136 55t-135 -55t-49 -141z" />
<glyph unicode="'" horiz-adv-x="509" d="M127 991l149 453h127l-149 -453h-127z" />
<glyph unicode="(" horiz-adv-x="819" d="M143 676q0 162 44 308t123 266t187.5 208t239.5 135v-153q-92 -39 -173 -112t-141.5 -173t-95 -222t-34.5 -257t34.5 -257t95 -222.5t141.5 -173t173 -111.5v-154q-131 45 -239.5 134.5t-187.5 209t-123 266t-44 308.5z" />
<glyph unicode=")" horiz-adv-x="819" d="M82 -88q92 39 173 111.5t141.5 173t95 222.5t34.5 257t-34.5 257t-95 222t-141.5 173t-173 112v153q131 -47 239.5 -135t187.5 -208t123 -266t44 -308t-44 -308.5t-123 -266t-187.5 -209t-239.5 -134.5v154z" />
<glyph unicode="*" horiz-adv-x="1130" d="M123 944v115l317 -8l-231 221l86 86l217 -228l-8 314h123l-9 -322l220 234l82 -82l-236 -223l324 8v-115l-320 8l234 -221l-86 -86l-218 227l9 -313h-123l8 320l-219 -232l-82 82l235 223z" />
<glyph unicode="+" horiz-adv-x="993" d="M102 516v125h328v373h133v-373h328v-125h-328v-373h-133v373h-328z" />
<glyph unicode="," horiz-adv-x="395" d="M20 -309l150 452h143l-149 -452h-144z" />
<glyph unicode="-" horiz-adv-x="655" d="M41 465v143h573v-143h-573z" />
<glyph unicode="." horiz-adv-x="364" d="M98 0v164h168v-164h-168z" />
<glyph unicode="/" horiz-adv-x="798" d="M102 0l492 1444h143l-491 -1444h-144z" />
<glyph unicode="0" horiz-adv-x="1085" d="M82 721q0 162 37 298t100.5 235.5t147.5 154.5t176 55t176 -55t147.5 -154.5t100.5 -235.5t37 -298t-37 -298t-100.5 -234.5t-147.5 -153.5t-176 -55t-176 55t-147.5 153.5t-100.5 234.5t-37 298zM236 721q0 -125 24.5 -235.5t65.5 -193.5t97 -131t120 -48q63 0 119.5 48 t97.5 131t65.5 193.5t24.5 235.5t-24.5 235.5t-65.5 193.5t-97.5 132t-119.5 49t-119.5 -49t-97.5 -132t-65.5 -193.5t-24.5 -235.5z" />
<glyph unicode="1" horiz-adv-x="796" d="M164 1044v123h20q51 0 98.5 21.5t83 58.5t58 84t25.5 101v12h143v-1444h-143v1178q-43 -61 -110 -97.5t-159 -36.5h-16z" />
<glyph unicode="2" horiz-adv-x="1052" d="M123 0v143l608 783q23 29 33 64.5t10 76.5q0 53 -19.5 101.5t-53 84t-81 57t-100.5 21.5t-100 -21.5t-81 -57t-53.5 -84t-19.5 -101.5v-41h-143v37q0 84 30.5 157.5t84 128t126 85t156.5 30.5t158 -30.5t129 -85t87 -128t32 -157.5q0 -68 -24.5 -129.5t-63.5 -110.5 l-541 -680h629v-143h-803z" />
<glyph unicode="3" horiz-adv-x="1058" d="M111 418v8h153q0 -61 18.5 -117.5t52.5 -100.5t83 -69.5t110 -25.5t110.5 25.5t83.5 69.5t52.5 100.5t18.5 117.5q0 57 -19.5 106.5t-55.5 85t-84 56t-106 20.5h-77v144h77q92 0 154.5 65.5t62.5 173.5q0 109 -54 181.5t-163 72.5t-163 -72.5t-54 -181.5h-151 q0 80 27.5 150.5t76.5 123t117 83t147 30.5q80 0 147.5 -30.5t117 -83t77 -123t27.5 -150.5q0 -96 -47 -175t-121 -128q100 -45 158.5 -136t58.5 -220q0 -92 -30.5 -172t-86 -139.5t-132 -93t-169.5 -33.5q-92 0 -168.5 33.5t-132 93t-86 139.5t-30.5 172z" />
<glyph unicode="4" horiz-adv-x="1095" d="M123 356v144l491 944h158l-502 -955h344v349l144 133v-482h215v-133h-215v-356h-144v356h-491z" />
<glyph unicode="5" horiz-adv-x="1062" d="M113 418v8h153q0 -61 18.5 -117.5t52.5 -100.5t83 -69.5t110 -25.5t110.5 27.5t84.5 74.5t53.5 108.5t18.5 131.5t-18.5 132t-53.5 110t-84.5 77t-110.5 29q-57 0 -102 -23.5t-80 -64.5h-162v729h652v-133h-508v-443q41 31 91 49.5t109 18.5q92 0 169 -35t133.5 -97.5 t87 -151.5t30.5 -195q0 -109 -30.5 -196t-87 -150.5t-133 -97t-169.5 -33.5q-92 0 -168.5 33.5t-132 93t-86 139.5t-30.5 172z" />
<glyph unicode="6" horiz-adv-x="1083" d="M121 606q0 184 28.5 341t85 272.5t141.5 180t195 64.5q80 0 145.5 -26.5t114 -73.5t81 -111.5t49.5 -140.5h-144q-27 92 -89 155.5t-157 63.5q-66 0 -118 -43t-89.5 -118.5t-60 -176t-27.5 -215.5q47 76 116 117t159 41q92 0 169 -38t133 -102.5t87 -152.5t31 -188 t-31 -186.5t-87 -151t-133 -101t-169 -36.5q-96 0 -175 43t-136.5 123.5t-88 197.5t-30.5 262zM276 475q0 -68 19.5 -133.5t55.5 -116.5t87 -81.5t113 -30.5q61 0 111.5 27.5t84 74.5t52 109.5t18.5 130.5q0 70 -18.5 133t-52 110t-84 76t-111.5 29q-70 0 -121 -29t-85 -75 t-51.5 -104.5t-17.5 -119.5z" />
<glyph unicode="7" horiz-adv-x="901" d="M123 0l557 1311h-557v133h717v-144l-557 -1300h-160z" />
<glyph unicode="8" horiz-adv-x="999" d="M82 408q0 127 56.5 222t154.5 146q-72 49 -117 128t-45 173q0 80 27.5 150.5t77 123t117 83t147.5 30.5t147.5 -30.5t116.5 -83t76.5 -123t27.5 -150.5q0 -94 -46 -173t-117 -128q98 -51 155.5 -146t57.5 -222q0 -92 -31 -171t-86.5 -135.5t-132 -89t-168.5 -32.5 t-169 32.5t-132.5 89t-86 135.5t-30.5 171zM236 416q0 -61 18 -116.5t52 -96.5t83 -65.5t111 -24.5q61 0 110 24.5t83 65.5t52.5 96t18.5 117q0 57 -19.5 109.5t-55.5 92t-84 63.5t-105 24t-105.5 -24t-84.5 -63.5t-55 -92t-19 -109.5zM283 1077q0 -109 62.5 -174t154.5 -65 t154.5 65.5t62.5 173.5q0 109 -54.5 181.5t-162.5 72.5q-109 0 -163 -72.5t-54 -181.5z" />
<glyph unicode="9" horiz-adv-x="1083" d="M113 989q0 100 30.5 186.5t87 151t133 101t168.5 36.5q96 0 175 -43t136.5 -123.5t88.5 -197.5t31 -262q0 -184 -29 -341t-85 -272.5t-141 -180t-196 -64.5q-80 0 -145.5 26.5t-113.5 73.5t-81 111.5t-49 140.5h143q27 -92 89.5 -155.5t156.5 -63.5q66 0 118 43t89 117.5 t59.5 176t26.5 216.5q-94 -158 -273 -158q-92 0 -168.5 38t-133 102.5t-87 152.5t-30.5 188zM266 989q0 -70 18.5 -133t52.5 -110.5t84 -76t111 -28.5q70 0 121.5 27.5t85 73.5t51 106t17.5 121q0 68 -19.5 133t-55.5 116.5t-87 82t-113 30.5q-61 0 -111 -27.5t-84 -74.5 t-52.5 -109.5t-18.5 -130.5z" />
<glyph unicode=":" horiz-adv-x="364" d="M98 143v164h168v-164h-168zM98 649v164h168v-164h-168z" />
<glyph unicode=";" horiz-adv-x="374" d="M2 -309l150 452h143l-150 -452h-143zM127 649v164h168v-164h-168z" />
<glyph unicode="&#x3c;" horiz-adv-x="921" d="M82 573v148l737 442v-147l-614 -369l614 -371v-147z" />
<glyph unicode="=" horiz-adv-x="897" d="M102 362v123h693v-123h-693zM102 649v123h693v-123h-693z" />
<glyph unicode="&#x3e;" horiz-adv-x="921" d="M82 129v147l614 371l-614 369v147l737 -442v-148z" />
<glyph unicode="?" horiz-adv-x="1007" d="M102 1026v37q0 84 31 157.5t84 128t126 85t157 30.5t157.5 -30.5t129 -85t87 -128t31.5 -157.5q0 -68 -25.5 -129.5t-64.5 -110.5l-201 -252q-23 -29 -33 -64.5t-10 -76.5v-123h-147v123q0 68 24.5 129.5t63.5 110.5l201 256q23 29 32 64.5t9 76.5q0 53 -19.5 101.5 t-53.5 84t-81 57t-100 21.5t-100.5 -21.5t-81 -57t-53 -84t-19.5 -101.5v-41h-144zM418 0v160h160v-160h-160z" />
<glyph unicode="@" horiz-adv-x="1837" d="M102 647q0 168 63.5 317.5t174.5 260t259.5 175t318.5 64.5q168 0 314 -64.5t252.5 -175t168 -260t61.5 -317.5q0 -100 -22.5 -185t-66.5 -147.5t-108.5 -98.5t-148.5 -36q-90 0 -151.5 47t-90.5 119q-39 -68 -99 -109.5t-148 -41.5q-84 0 -153 36.5t-116 98t-72.5 140.5 t-25.5 163t25.5 164t72.5 141t116 98t153 37q76 0 131 -32.5t94 -86.5v99h133v-602q0 -78 42 -116t89 -38q109 0 159 90t50 260q0 145 -48 270t-136 217.5t-209 145.5t-266 53t-269.5 -52t-214.5 -144.5t-140 -218t-50 -271.5q0 -145 50 -270t140 -217t214 -144.5t270 -52.5 q94 0 177 19.5t156 62.5l62 -108q-86 -49 -185.5 -77t-209.5 -28q-170 0 -318.5 63.5t-259.5 174t-174.5 259t-63.5 318.5zM655 633q0 -61 14.5 -117.5t43 -99.5t70.5 -68.5t96 -25.5q53 0 95 25.5t70.5 68.5t44 99t15.5 118v12q-2 59 -17.5 113.5t-44 96.5t-70.5 66.5 t-93 24.5q-53 0 -95.5 -25.5t-71 -69.5t-43 -100.5t-14.5 -117.5z" />
<glyph unicode="A" horiz-adv-x="1241" d="M61 0l478 1444h163l478 -1444h-148l-166 510h-493l-164 -510h-148zM418 645h405l-202 625z" />
<glyph unicode="B" horiz-adv-x="1099" d="M133 0v1444h463q76 0 144.5 -27.5t118.5 -77t80 -116t30 -142.5q0 -92 -41 -163.5t-107 -118.5q98 -53 157.5 -148.5t59.5 -218.5q0 -92 -34.5 -171t-94 -137t-140.5 -91t-173 -33h-463zM276 133h320q61 0 114.5 24.5t91.5 65.5t60.5 95.5t22.5 113.5t-22.5 112.5 t-60.5 93.5t-91.5 63.5t-114.5 23.5h-320v-592zM276 860h320q45 0 86 17.5t69.5 47t46 69.5t17.5 87q0 45 -17.5 87t-47 74t-69.5 50.5t-85 18.5h-320v-451z" />
<glyph unicode="C" horiz-adv-x="1249" d="M82 721q0 137 37 271t107.5 238.5t176 169t244.5 64.5q100 0 184 -34.5t148.5 -96t112 -143.5t75.5 -176h-159q-23 61 -54.5 117.5t-77 101.5t-102.5 71.5t-127 26.5q-104 0 -181 -56t-128 -145.5t-76.5 -197t-25.5 -211.5t25.5 -212t76.5 -196t128 -144t181 -56 q70 0 127 26.5t102.5 71.5t77 101.5t54.5 117.5h159q-29 -94 -76 -176t-111.5 -143.5t-148 -96t-184.5 -34.5q-139 0 -244.5 63t-176 167.5t-107.5 238t-37 272.5z" />
<glyph unicode="D" horiz-adv-x="1230" d="M133 0v1444h465q135 0 237.5 -64.5t172 -167t105.5 -231.5t36 -260t-37 -260t-107.5 -231.5t-173 -166t-233.5 -63.5h-465zM276 133h302q100 0 178 54.5t131 139.5t80.5 188t27.5 204q0 106 -24.5 212.5t-76.5 190.5t-131 136.5t-185 52.5h-302v-1178z" />
<glyph unicode="E" horiz-adv-x="983" d="M133 0v1444h789v-133h-646v-523h431v-135h-431v-520h646v-133h-789z" />
<glyph unicode="F" horiz-adv-x="952" d="M133 0v1444h778v-133h-635v-523h431v-135h-431v-653h-143z" />
<glyph unicode="G" horiz-adv-x="1298" d="M82 721q0 137 37 271t107.5 238.5t176 169t244.5 64.5q100 0 184 -34.5t148.5 -96t112 -143.5t75.5 -176h-159q-23 61 -54.5 117.5t-77 101.5t-102.5 71.5t-127 26.5q-104 0 -181 -56t-128 -145.5t-76.5 -197t-25.5 -211.5t25.5 -212t76.5 -196t128 -144t181 -56 q76 0 140.5 31.5t113.5 86t84 126t53 149.5h-391v133h559q-10 -123 -50 -241.5t-110.5 -211t-170 -149.5t-228.5 -57q-139 0 -244.5 63t-176 167.5t-107.5 238t-37 272.5z" />
<glyph unicode="H" horiz-adv-x="1167" d="M133 0v1444h143v-656h615v656h143v-1444h-143v653h-615v-653h-143z" />
<glyph unicode="I" horiz-adv-x="409" d="M133 0v1444h143v-1444h-143z" />
<glyph unicode="J" horiz-adv-x="968" d="M72 414v20h143v-20q0 -61 16.5 -115.5t49 -96.5t80 -65.5t108.5 -23.5t108.5 23.5t80 65.5t49 96t16.5 116v1030h143v-1030q0 -92 -27.5 -172t-78.5 -138.5t-125 -91t-166 -32.5t-166 35.5t-125 96t-78.5 139.5t-27.5 163z" />
<glyph unicode="K" horiz-adv-x="989" d="M133 0v1444h143v-651l529 651h164l-551 -686l551 -758h-185l-460 641l-48 -59v-582h-143z" />
<glyph unicode="L" horiz-adv-x="972" d="M133 0v1444h143v-1311h635v-133h-778z" />
<glyph unicode="M" horiz-adv-x="1413" d="M133 0v1444h215l359 -1190l358 1190h215v-1444h-139v1204l-373 -1204h-123l-373 1204v-1204h-139z" />
<glyph unicode="N" horiz-adv-x="1187" d="M133 0v1444h184l598 -1204v1204h140v-1444h-185l-598 1202v-1202h-139z" />
<glyph unicode="O" horiz-adv-x="1290" d="M82 721q0 137 37 271t107.5 238.5t176 169t244.5 64.5q137 0 242.5 -64.5t176.5 -169t106.5 -238.5t35.5 -271q0 -139 -35.5 -272.5t-106.5 -238t-176.5 -167.5t-242.5 -63q-139 0 -244.5 63t-176 167.5t-107.5 238t-37 272.5zM236 721q0 -104 25.5 -212t76.5 -196 t128 -144t181 -56t180 56t127.5 144t76 195.5t24.5 212.5q0 104 -24.5 211.5t-76 197t-127.5 145.5t-180 56t-181 -56t-128 -145.5t-76.5 -197t-25.5 -211.5z" />
<glyph unicode="P" horiz-adv-x="1089" d="M133 0v1444h465q84 0 164 -27.5t141.5 -79t98 -125t36.5 -165.5t-36.5 -166t-98 -125t-141.5 -79t-164 -28h-322v-649h-143zM276 782h322q123 0 205 71t82 194t-82 193.5t-205 70.5h-322v-529z" />
<glyph unicode="Q" horiz-adv-x="1290" d="M82 721q0 137 37 271t107.5 238.5t176 169t244.5 64.5q137 0 242.5 -64.5t176.5 -169t106.5 -238.5t35.5 -271q0 -127 -29.5 -249t-88 -221t-145.5 -170t-202 -91l148 -443h-148l-143 435q-127 10 -223 77.5t-161.5 170t-99.5 230.5t-34 261zM236 721q0 -104 25.5 -212 t76.5 -196t128 -144t181 -56t180 56t127.5 144t76 195.5t24.5 212.5q0 104 -24.5 211.5t-76 197t-127.5 145.5t-180 56t-181 -56t-128 -145.5t-76.5 -197t-25.5 -211.5z" />
<glyph unicode="R" horiz-adv-x="1130" d="M133 0v1444h465q84 0 164 -27.5t141.5 -79t98 -125t36.5 -165.5q0 -78 -26.5 -142.5t-72.5 -114t-107.5 -83t-129.5 -48.5l357 -659h-164l-350 649h-269v-649h-143zM276 782h322q123 0 205 71t82 194t-82 193.5t-205 70.5h-322v-529z" />
<glyph unicode="S" horiz-adv-x="1161" d="M102 410h154q0 -135 87 -218t243 -83t242.5 82.5t86.5 218.5q0 57 -27.5 97t-73.5 69.5t-105.5 53t-122.5 46.5q-86 31 -165 61.5t-140.5 75.5t-97.5 109.5t-36 164.5q0 84 34 154t91.5 119t133 76.5t159.5 27.5t161 -27.5t135.5 -76.5t92 -119t33.5 -154h-153 q0 53 -21.5 99.5t-58.5 79t-86.5 51t-102.5 18.5q-123 0 -195.5 -69.5t-72.5 -178.5q0 -53 22.5 -91t62.5 -66.5t92 -51t112 -42.5q96 -35 183 -66t152.5 -75t104.5 -111.5t39 -173.5t-39 -187.5t-104.5 -134.5t-152.5 -80.5t-183 -27.5t-183.5 27.5t-154 80.5t-106.5 134 t-40 188z" />
<glyph unicode="T" horiz-adv-x="1064" d="M31 1311v133h1003v-133h-430v-1311h-143v1311h-430z" />
<glyph unicode="U" horiz-adv-x="1085" d="M92 430v1014h144v-1014q0 -66 23.5 -123t64.5 -100t97 -68.5t122 -25.5t122 25.5t97 68.5t64.5 100.5t23.5 122.5v1014h143v-1014q0 -100 -35.5 -183t-97 -142.5t-143.5 -92t-174 -32.5t-174 32.5t-143.5 92t-97.5 142.5t-36 183z" />
<glyph unicode="V" horiz-adv-x="1241" d="M61 1444h148l412 -1270l411 1270h148l-478 -1444h-163z" />
<glyph unicode="W" horiz-adv-x="2019" d="M127 1444h147l318 -1239l346 1239h143l346 -1239l318 1239h147l-374 -1444h-164l-344 1194l-344 -1194h-164z" />
<glyph unicode="X" horiz-adv-x="1265" d="M61 0l482 797l-402 647h168l330 -533l317 533h168l-401 -668l481 -776h-168l-409 659l-398 -659h-168z" />
<glyph unicode="Y" horiz-adv-x="1097" d="M20 1444h166l361 -664l360 664h166l-450 -799v-645h-150v641z" />
<glyph unicode="Z" horiz-adv-x="1122" d="M82 0v143l782 1168h-702v133h878v-144l-794 -1167h794v-133h-958z" />
<glyph unicode="[" horiz-adv-x="573" d="M123 -246v1823h430v-133h-287v-1557h287v-133h-430z" />
<glyph unicode="\" horiz-adv-x="798" d="M61 1444h144l491 -1444h-143z" />
<glyph unicode="]" horiz-adv-x="573" d="M20 -113h287v1557h-287v133h431v-1823h-431v133z" />
<glyph unicode="^" horiz-adv-x="1239" d="M102 276l443 738h147l445 -738h-158l-361 596l-358 -596h-158z" />
<glyph unicode="_" horiz-adv-x="1024" d="M20 0h984v-143h-984v143z" />
<glyph unicode="`" horiz-adv-x="468" d="M86 1444h127l149 -453h-126z" />
<glyph unicode="a" horiz-adv-x="847" d="M82 248q0 66 27.5 115t72.5 82.5t103.5 51t120.5 17.5q104 0 188 -49v63q0 100 -42 155.5t-142 55.5q-70 0 -117 -42t-47 -103h-129q0 61 22.5 110.5t63.5 83t96 52t121 18.5q139 0 223 -80t84 -219v-344q0 -35 20.5 -72t45.5 -69q29 -37 65 -74h-164q-14 10 -28.5 24.5 t-26.5 36.5q-45 -41 -106.5 -61t-126.5 -20q-61 0 -120 17t-104 51t-72.5 84t-27.5 116zM215 248q0 -80 56.5 -115t134.5 -35q59 0 109 15.5t79 50.5v166q-29 35 -79 50t-109 15q-78 0 -134.5 -34.5t-56.5 -112.5z" />
<glyph unicode="b" horiz-adv-x="905" d="M102 0v1444h134v-713q35 57 91 92t134 35q84 0 151.5 -37t114.5 -98t71.5 -141t24.5 -164t-24.5 -163t-71.5 -140.5t-114.5 -98t-151.5 -36.5q-78 0 -134.5 33.5t-90.5 90.5v-104h-134zM236 406q2 -59 17 -113.5t44 -95.5t70 -66t94 -25t95 26t70.5 69t43 99t14.5 118 q0 61 -14.5 117.5t-43 100.5t-70.5 69.5t-95 25.5t-94 -24.5t-70 -66.5t-44 -96.5t-17 -113.5v-24z" />
<glyph unicode="c" horiz-adv-x="860" d="M82 418q0 84 25.5 164t72.5 141t114.5 98t151.5 37q63 0 119 -22.5t99 -60.5t73.5 -90t48.5 -112h-143q-27 70 -76 114t-121 44q-53 0 -95 -25.5t-70.5 -69.5t-44 -100.5t-15.5 -117.5t15.5 -117.5t44 -99.5t70.5 -69t95 -26q72 0 123.5 44.5t75.5 115.5h143 q-18 -61 -48.5 -113.5t-73.5 -90t-98.5 -60t-121.5 -22.5q-84 0 -151.5 36.5t-114.5 98t-72.5 140.5t-25.5 163z" />
<glyph unicode="d" horiz-adv-x="925" d="M82 418q0 84 24.5 164t71.5 141t114.5 98t151.5 37q78 0 133.5 -35t92.5 -90v711h133v-1444h-133v102q-37 -55 -92.5 -88.5t-133.5 -33.5q-84 0 -151.5 36.5t-114.5 98t-71.5 140.5t-24.5 163zM221 418q0 -61 14.5 -117.5t43 -99.5t70.5 -69t95 -26t95.5 26t71 69t44 99 t15.5 118q0 61 -15.5 117.5t-44 100.5t-71 69.5t-95.5 25.5t-95 -25.5t-70.5 -69.5t-43 -100.5t-14.5 -117.5z" />
<glyph unicode="e" d="M82 418q0 84 25.5 164t72.5 141t114.5 98t151.5 37t152 -37t115 -98t71.5 -141t24.5 -164v-19h-590q2 -59 18.5 -112.5t45 -94t69.5 -64.5t94 -24q72 0 129.5 46.5t86.5 115.5h139q-18 -61 -51 -113.5t-79 -90t-102.5 -60t-122.5 -22.5q-84 0 -151.5 36.5t-114.5 98 t-72.5 140.5t-25.5 163zM229 518h433q-20 92 -75 153.5t-141 61.5t-141 -61.5t-76 -153.5z" />
<glyph unicode="f" horiz-adv-x="645" d="M61 715v123h175v350q0 123 66.5 199.5t189.5 76.5q117 0 186.5 -69.5t69.5 -186.5v-53h-134v41q0 70 -30.5 107.5t-91.5 37.5t-92 -40.5t-31 -102.5v-360h184v-123h-184v-715h-133v715h-175z" />
<glyph unicode="g" horiz-adv-x="839" d="M72 -299q0 98 49 169t127 112q-33 23 -53.5 55.5t-20.5 79.5q0 49 22.5 86t61.5 59q-66 43 -102.5 115t-36.5 158q0 53 18.5 104t51 94t78.5 74t102 43l131 395h127l-131 -393q57 -12 104 -43t81 -74t52.5 -95t18.5 -105q0 -68 -23.5 -127.5t-65.5 -103.5t-100.5 -68.5 t-128.5 -24.5q-53 0 -84 -18.5t-31 -65.5t31 -72.5t84 -25.5q74 0 139.5 -23.5t115.5 -66.5t80 -103.5t30 -134.5t-30 -133.5t-80 -102.5t-115.5 -66.5t-139.5 -23.5t-139.5 23.5t-114.5 66.5t-78.5 102.5t-29.5 133.5zM205 -299q0 -47 18.5 -83t50 -61.5t72.5 -39t88 -13.5 q45 0 87 13.5t75 39t51.5 61.5t18.5 83q0 45 -18.5 83t-51.5 65.5t-75 42t-87 14.5q-47 0 -88 -14.5t-72.5 -42t-50 -65.5t-18.5 -83zM248 535q0 -98 53 -151.5t133 -53.5q82 0 135.5 53t53.5 152q0 96 -53.5 150t-135.5 54q-80 0 -133 -54t-53 -150z" />
<glyph unicode="h" horiz-adv-x="839" d="M102 0v1444h134v-696q35 51 87 80.5t117 29.5q139 0 218 -80t79 -219v-559h-133v528q0 92 -41 149.5t-133 57.5q-45 0 -81 -20.5t-60.5 -54t-38.5 -76.5t-14 -88v-496h-134z" />
<glyph unicode="i" horiz-adv-x="358" d="M102 1087v154h154v-154h-154zM113 0v838h133v-838h-133z" />
<glyph unicode="j" horiz-adv-x="358" d="M-266 -315v-54q0 -117 69.5 -186.5t186.5 -69.5q123 0 189.5 77t66.5 200v1186h-133v-1196q0 -61 -31 -102.5t-92 -41.5t-92 38t-31 108v41h-133zM102 1087v154h154v-154h-154z" />
<glyph unicode="k" horiz-adv-x="802" d="M102 0v1444h134v-928l339 322h187l-428 -406l459 -432h-199l-358 338v-338h-134z" />
<glyph unicode="l" horiz-adv-x="358" d="M113 0v1444h133v-1444h-133z" />
<glyph unicode="m" horiz-adv-x="1361" d="M123 0v838h133v-90q35 51 87 80.5t118 29.5q94 0 161.5 -39t102.5 -108q39 66 99.5 106.5t138.5 40.5q139 0 218 -80t79 -219v-559h-134v528q0 92 -41 149.5t-133 57.5q-47 0 -82.5 -21.5t-60.5 -56t-38 -80t-13 -90.5v-487h-133v528q0 92 -41 149.5t-133 57.5 q-45 0 -81 -20.5t-60.5 -54t-39 -76.5t-14.5 -88v-496h-133z" />
<glyph unicode="n" horiz-adv-x="860" d="M123 0v838h133v-90q35 51 87 80.5t118 29.5q139 0 218 -80t79 -219v-559h-133v528q0 92 -41 149.5t-133 57.5q-45 0 -81 -20.5t-60.5 -54t-39 -76.5t-14.5 -88v-496h-133z" />
<glyph unicode="o" d="M82 418q0 84 25.5 164t72.5 141t114.5 98t151.5 37t152 -37t115 -98t71.5 -141t24.5 -164t-24.5 -163t-71.5 -140.5t-115 -98t-152 -36.5t-151.5 36.5t-114.5 98t-72.5 140.5t-25.5 163zM221 418q0 -61 15.5 -117.5t44 -99.5t70.5 -69t95 -26t95.5 26t71 69t43 99 t14.5 118q0 61 -14.5 117.5t-43 100.5t-71 69.5t-95.5 25.5t-95 -25.5t-70.5 -69.5t-44 -100.5t-15.5 -117.5z" />
<glyph unicode="p" horiz-adv-x="925" d="M123 -604v1442h133v-107q35 57 91 92t134 35q84 0 151.5 -37t115 -98t72 -141t24.5 -164t-24.5 -163t-72 -140.5t-115 -98t-151.5 -36.5q-78 0 -134 33.5t-91 90.5v-708h-133zM256 406q2 -59 17.5 -113.5t44 -95.5t69.5 -66t94 -25t95 26t71 69t43.5 99t14.5 118 q0 61 -14.5 117.5t-43.5 100.5t-71 69.5t-95 25.5t-94 -24.5t-69.5 -66.5t-44 -96.5t-17.5 -113.5v-24z" />
<glyph unicode="q" horiz-adv-x="925" d="M82 418q0 84 24.5 164t71.5 141t114.5 98t151.5 37q78 0 133.5 -35t92.5 -90v105h133v-1442h-133v706q-37 -55 -92.5 -88.5t-133.5 -33.5q-84 0 -151.5 36.5t-114.5 98t-71.5 140.5t-24.5 163zM221 418q0 -61 14.5 -117.5t43 -99.5t70.5 -69t95 -26t95.5 26t71 69t44 99 t15.5 118q0 61 -15.5 117.5t-44 100.5t-71 69.5t-95.5 25.5t-95 -25.5t-70.5 -69.5t-43 -100.5t-14.5 -117.5z" />
<glyph unicode="r" horiz-adv-x="696" d="M123 0v838h133v-76q29 43 72 69.5t102 26.5q100 0 162.5 -69.5t62.5 -186.5v-33h-133v21q0 70 -29.5 107.5t-82.5 37.5q-43 0 -73 -18.5t-47.5 -47t-25.5 -62.5t-8 -64v-543h-133z" />
<glyph unicode="s" horiz-adv-x="782" d="M82 260v6h133v-6q0 -78 56.5 -120t125.5 -42q78 0 131.5 31t53.5 109q0 41 -36 63.5t-90.5 37.5t-118 31.5t-117.5 44t-90 75t-36 122.5q0 61 24.5 107.5t65.5 77t96.5 46t116.5 15.5t114.5 -19.5t93.5 -54t65.5 -83t29.5 -107.5h-135q-10 55 -50 100t-118 45t-122 -32.5 t-44 -94.5q0 -41 36 -63.5t90.5 -37.5t118 -31.5t117.5 -44t90 -75t36 -122.5q0 -66 -25.5 -114t-70.5 -80t-104 -48t-122 -16q-66 0 -123 19t-100 56t-67.5 88.5t-24.5 116.5z" />
<glyph unicode="t" horiz-adv-x="757" d="M61 715v123h164v399h133v-399h205v-123h-205v-445q0 -78 20.5 -123t82.5 -45q61 0 81.5 45.5t20.5 122.5h133v-32q0 -117 -59 -187.5t-176 -70.5t-176.5 70.5t-59.5 187.5v477h-164z" />
<glyph unicode="u" horiz-adv-x="860" d="M102 279v559h134v-529q0 -92 40.5 -149.5t133.5 -57.5q45 0 80.5 20.5t60 54.5t39 77t14.5 88v496h133v-838h-133v90q-35 -51 -87 -80.5t-118 -29.5q-139 0 -218 79.5t-79 219.5z" />
<glyph unicode="v" horiz-adv-x="790" d="M41 838h145l209 -654l209 654h146l-287 -838h-135z" />
<glyph unicode="w" horiz-adv-x="1353" d="M41 838h145l209 -656l213 656h137l213 -656l209 656h146l-287 -838h-135l-215 629l-213 -629h-135z" />
<glyph unicode="x" horiz-adv-x="833" d="M41 0l299 432l-283 406h154l205 -297l205 297h153l-282 -406l301 -432h-152l-225 322l-223 -322h-152z" />
<glyph unicode="y" horiz-adv-x="757" d="M-61 -315h133q0 -39 5 -72t18.5 -57.5t37 -39t62.5 -14.5t62.5 17.5t36.5 46t18 64.5t5 75v295l-309 838h150l225 -650l209 650h145l-286 -838v-326q0 -61 -17.5 -115.5t-49.5 -95.5t-80 -64.5t-109 -23.5q-123 0 -189.5 78t-66.5 201v31z" />
<glyph unicode="z" horiz-adv-x="757" d="M82 0v127l465 584h-445v127h615v-127l-475 -584h475v-127h-635z" />
<glyph unicode="{" horiz-adv-x="847" d="M102 590v143h78q92 0 154.5 65.5t62.5 174.5v217q0 80 28 150.5t77 123t116.5 83t147.5 30.5v-133q-109 0 -163 -73t-54 -181v-217q0 -100 -51.5 -182t-128.5 -129q78 -49 129 -131.5t51 -180.5v-217q0 -109 54 -181.5t163 -72.5v-133q-80 0 -147.5 30.5t-116.5 83 t-77 123t-28 150.5v217q0 109 -62.5 174.5t-154.5 65.5h-78z" />
<glyph unicode="|" horiz-adv-x="389" d="M123 -143v1607h143v-1607h-143z" />
<glyph unicode="}" horiz-adv-x="847" d="M82 -121q109 0 163 73t54 181v217q0 98 51 180t129 132q-78 47 -129 128.5t-51 182.5v217q0 109 -54.5 181.5t-162.5 72.5v133q80 0 147.5 -30.5t116.5 -83t77 -123t28 -150.5v-217q0 -109 62 -174.5t155 -65.5h77v-143h-77q-92 0 -154.5 -65.5t-62.5 -174.5v-217 q0 -80 -28 -150.5t-77 -123t-116.5 -83t-147.5 -30.5v133z" />
<glyph unicode="~" horiz-adv-x="1044" d="M123 395q0 55 20.5 104.5t56.5 86.5t84 58.5t103 21.5q66 0 107 -24t71.5 -51.5t59 -50t71.5 -22.5q59 0 99.5 43t40.5 103h125q0 -55 -20.5 -104.5t-56.5 -86.5t-84 -58.5t-104 -21.5q-66 0 -106.5 22.5t-71.5 50.5t-59.5 51.5t-71.5 23.5q-59 0 -99 -43t-40 -103h-125z " />
<glyph unicode="&#xa1;" horiz-adv-x="348" d="M115 680v160h159v-160h-159zM123 532h143v-1136h-143v1136z" />
<glyph unicode="&#xa2;" horiz-adv-x="860" d="M82 418q0 76 20.5 147.5t58.5 130t93 99.5t125 55v192h135v-192q102 -20 172 -96t100 -181h-143q-27 70 -76 114t-121 44q-53 0 -95 -25.5t-70.5 -69.5t-44 -100.5t-15.5 -117.5t15.5 -117.5t44 -99.5t70.5 -69t95 -26q72 0 123.5 44.5t75.5 115.5h143 q-31 -106 -100.5 -182t-173.5 -96v-193h-135v193q-70 14 -125 54t-93 98.5t-58.5 130t-20.5 147.5z" />
<glyph unicode="&#xa3;" horiz-adv-x="1163" d="M102 649v144h154v237q0 92 27.5 171t79 137.5t125 92t165.5 33.5t166 -35.5t125 -96t79 -139.5t28 -163v-20h-144v20q0 61 -16.5 115.5t-49 96.5t-79.5 65.5t-109 23.5q-61 0 -108 -23.5t-80 -65.5t-49.5 -96t-16.5 -116v-237h277v-144h-277v-516h539v-133h-682v649h-154 z" />
<glyph unicode="&#xa5;" horiz-adv-x="1097" d="M20 1444h166l361 -666l360 666h166l-379 -672h201v-123h-270l-2 -4v-160h272v-123h-272v-362h-150v362h-270v123h270v156l-4 8h-266v123h196z" />
<glyph unicode="&#xa6;" horiz-adv-x="389" d="M123 -143v792h143v-792h-143zM123 793v671h143v-671h-143z" />
<glyph unicode="&#xa7;" horiz-adv-x="1036" d="M123 672q0 111 49 196q-49 86 -49 195q0 84 31.5 157.5t87 128t129 85t157.5 30.5t157 -30.5t126 -85t84 -128t31 -157.5v-37h-144v41q0 53 -19.5 101.5t-53 84t-80.5 57t-101 21.5q-53 0 -100 -21.5t-81 -57t-53.5 -85t-19.5 -104.5t19.5 -104.5t53.5 -85t81 -57 t100 -21.5q84 0 158 -31t129 -85t87 -128t32 -158q0 -53 -13.5 -103t-35.5 -93q23 -43 36 -92.5t13 -102.5q0 -84 -32 -157.5t-87 -128t-129 -85t-158 -30.5t-156.5 30.5t-125.5 85t-84 128t-31 157.5v37h143v-41q0 -53 19.5 -101.5t53.5 -84t81 -57t100 -21.5t100.5 21.5 t81 57t53 85t19.5 104.5t-19.5 104.5t-53 85t-80.5 57t-101 21.5q-84 0 -157.5 31t-129 85t-87 128t-31.5 158zM274 672q0 -55 19.5 -104.5t53.5 -85.5t81 -57.5t100 -21.5q70 0 132.5 -21.5t113.5 -59.5q4 16 6 34.5t2 36.5q0 55 -19.5 104.5t-53 85t-80.5 57.5t-101 22 q-141 0 -245 79q-9 -30 -9 -69z" />
<glyph unicode="&#xa8;" horiz-adv-x="651" d="M98 1094v168h168v-168h-168zM385 1094v168h168v-168h-168z" />
<glyph unicode="&#xa9;" horiz-adv-x="1837" d="M102 647q0 168 64.5 317.5t175.5 260t259.5 175t316.5 64.5t317 -64.5t260 -175t175.5 -260t64.5 -317.5t-64.5 -316.5t-175.5 -259t-260.5 -175t-316.5 -64.5q-168 0 -316.5 64.5t-259.5 175t-175.5 259t-64.5 316.5zM244 647q0 -145 51 -270t141 -217t213 -144.5 t269 -52.5q145 0 268 52.5t213 144.5t141 217t51 270t-51 270t-141 217.5t-213 145.5t-268 53t-268.5 -53t-213.5 -145.5t-141 -217.5t-51 -270zM561 647q0 84 25.5 164t73 141.5t115 98t151.5 36.5q63 0 118.5 -22.5t98.5 -60t73.5 -90t49.5 -111.5h-140q-27 70 -78 116 t-122 46q-53 0 -96.5 -27t-73 -71t-45 -101t-15.5 -119q0 -61 15.5 -118.5t45 -100.5t72.5 -69.5t97 -26.5q72 0 125 46t77 118h140q-18 -61 -49 -113.5t-74 -90.5t-98.5 -60.5t-120.5 -22.5q-84 0 -151.5 37t-115 98.5t-73 140t-25.5 162.5z" />
<glyph unicode="&#xaa;" horiz-adv-x="847" d="M82 1024q0 84 24.5 164t71.5 141.5t114.5 98t151.5 36.5q78 0 133.5 -34.5t92.5 -90.5v105h133v-838h-133v103q-37 -55 -92.5 -89t-133.5 -34q-84 0 -151.5 36.5t-114.5 98t-71.5 140.5t-24.5 163zM221 1024q0 -61 14.5 -117.5t43 -99.5t70.5 -68.5t95 -25.5t95.5 25.5 t71 68.5t44 99.5t15.5 117.5t-15.5 117.5t-44 100.5t-71 69.5t-95.5 25.5t-95 -25.5t-70.5 -69.5t-43 -100.5t-14.5 -117.5z" />
<glyph unicode="&#xab;" horiz-adv-x="1024" d="M102 553v147l410 297v-147l-307 -223l307 -221v-148zM512 553v147l410 297v-147l-308 -223l308 -221v-148z" />
<glyph unicode="&#xac;" horiz-adv-x="993" d="M102 516v125h789v-412h-143v287h-646z" />
<glyph unicode="&#xad;" horiz-adv-x="655" d="M41 465v143h573v-143h-573z" />
<glyph unicode="&#xae;" horiz-adv-x="1837" d="M102 647q0 172 62.5 321.5t172 260t259 173t322.5 62.5q172 0 321.5 -62.5t259 -173t172 -260t62.5 -321.5t-62.5 -321.5t-172 -259t-259 -172t-321.5 -62.5t-322 62.5t-259.5 172t-172 259t-62.5 321.5zM244 647q0 -145 51 -270t141 -217t213 -144.5t269 -52.5 q145 0 269 52.5t214 144.5t140 217t50 270t-50 271t-140 218.5t-214 144.5t-269 52t-269.5 -52t-214.5 -144.5t-140 -218.5t-50 -271zM653 223v864h336q61 0 112.5 -18t88.5 -51t57.5 -78t20.5 -98q0 -47 -17.5 -87t-48.5 -72t-71.5 -53.5t-86.5 -29.5l218 -377h-144 l-211 371h-131v-371h-123zM776 711h174q78 0 128 27.5t50 103.5q0 72 -50 100.5t-128 28.5h-174v-260z" />
<glyph unicode="&#xaf;" horiz-adv-x="727" d="M102 1114v125h523v-125h-523z" />
<glyph unicode="&#xb0;" horiz-adv-x="686" d="M102 1223q0 49 18.5 93t51.5 76.5t77 52t93 19.5t93 -19.5t77 -52t52.5 -76.5t19.5 -93t-19.5 -93.5t-52.5 -77t-77 -51t-93 -18.5t-93 18.5t-77 51t-51.5 77t-18.5 93.5zM215 1223q0 -53 37 -93t90 -40t91 39.5t38 93.5q0 53 -38 94t-91 41t-90 -41t-37 -94z" />
<glyph unicode="&#xb1;" horiz-adv-x="993" d="M102 0v125h789v-125h-789zM102 578v124h328v373h133v-373h328v-124h-328v-373h-133v373h-328z" />
<glyph unicode="&#xb2;" horiz-adv-x="763" d="M82 606v123l377 320q33 27 51 49t27.5 41.5t11.5 38t2 41.5q0 61 -44 94t-122 33t-118 -45.5t-50 -100.5h-135q4 59 29.5 107.5t65.5 83t93.5 54t114.5 19.5t116.5 -15t96.5 -46t65.5 -77t24.5 -107q0 -66 -32.5 -130.5t-108.5 -127.5l-279 -232h432v-123h-618z" />
<glyph unicode="&#xb3;" horiz-adv-x="782" d="M82 866v6h133v-6q0 -78 56.5 -119.5t125.5 -41.5q78 0 131.5 30.5t53.5 108.5q0 53 -39 89t-117 36h-59v125h59q78 0 115 35.5t37 89.5q0 61 -44.5 94t-121.5 33q-78 0 -118 -45.5t-50 -100.5h-135q4 59 29.5 107.5t65.5 83t93 54t115 19.5q61 0 116.5 -15t96.5 -46 t65.5 -77t24.5 -107q0 -86 -42 -125t-104 -62q63 -23 106.5 -62.5t43.5 -125.5q0 -66 -25.5 -114t-70.5 -80t-103.5 -48t-122.5 -16q-66 0 -123 19.5t-100 56t-67.5 88t-24.5 116.5z" />
<glyph unicode="&#xb4;" horiz-adv-x="468" d="M106 991l150 453h127l-150 -453h-127z" />
<glyph unicode="&#xb5;" horiz-adv-x="860" d="M102 -604v1442h134v-529q0 -92 40.5 -149.5t133.5 -57.5q45 0 81.5 21.5t61.5 56.5t38 79t13 91v488h133v-838h-133v88q-35 -51 -87 -79.5t-118 -28.5q-109 0 -163 55v-639h-134z" />
<glyph unicode="&#xb6;" horiz-adv-x="1130" d="M61 1047q0 92 37 165.5t98.5 125t141.5 79t164 27.5h608v-133h-147v-1311h-136v649h-151v-649h-135v649h-39q-84 0 -164 28t-141.5 79t-98.5 124.5t-37 166.5zM215 1047q0 -123 82 -194t205 -71h39v529h-39q-123 0 -205 -70.5t-82 -193.5zM676 782h151v529h-151v-529z " />
<glyph unicode="&#xb7;" horiz-adv-x="364" d="M98 635v164h168v-164h-168z" />
<glyph unicode="&#xb8;" horiz-adv-x="460" d="M92 -389l150 452h127l-150 -452h-127z" />
<glyph unicode="&#xb9;" horiz-adv-x="749" d="M143 1044v123h21q51 0 98 21.5t83 58.5t58.5 84t24.5 101v12h137v-838h-137v572q-43 -61 -109.5 -97.5t-158.5 -36.5h-17z" />
<glyph unicode="&#xba;" d="M82 319v134h727v-134h-727zM82 1024q0 84 25.5 164t72.5 141.5t114.5 98t151.5 36.5t152 -36.5t115 -98t71.5 -141.5t24.5 -164t-24.5 -163t-71.5 -140.5t-115 -98t-152 -36.5t-151.5 36.5t-114.5 98t-72.5 140.5t-25.5 163zM221 1024q0 -61 15.5 -117.5t44 -99.5 t70.5 -68.5t95 -25.5t95.5 25.5t71 68.5t43 99.5t14.5 117.5t-14.5 117.5t-43 100.5t-71 69.5t-95.5 25.5t-95 -25.5t-70.5 -69.5t-44 -100.5t-15.5 -117.5z" />
<glyph unicode="&#xbb;" horiz-adv-x="1024" d="M102 258v148l308 221l-308 223v147l410 -297v-147zM512 258v148l307 221l-307 223v147l410 -297v-147z" />
<glyph unicode="&#xbc;" horiz-adv-x="1679" d="M143 1044v123h21q51 0 98 21.5t83 58.5t58.5 84t24.5 101v12h137v-838h-137v572q-43 -61 -109.5 -97.5t-158.5 -36.5h-17zM389 0l811 1444h141l-811 -1444h-141zM899 186v133l369 519h143v-539h174v-113h-174v-186h-123v186h-389zM1024 299h264v371z" />
<glyph unicode="&#xbd;" horiz-adv-x="1679" d="M115 1044v123h20q51 0 98.5 21.5t83 58.5t58 84t24.5 101v12h138v-838h-138v572q-43 -61 -109.5 -97.5t-158.5 -36.5h-16zM307 0l811 1444h142l-811 -1444h-142zM958 0h619v123h-432l278 231q76 63 109 127.5t33 130.5q0 61 -24.5 107.5t-65.5 77t-96.5 46t-116.5 15.5 t-114.5 -19.5t-93.5 -54t-65.5 -83t-30.5 -107.5h136q10 55 50 100t118 45t121.5 -32.5t43.5 -94.5q0 -23 -2 -41t-11 -37.5t-27.5 -42t-51.5 -49.5l-377 -319v-123z" />
<glyph unicode="&#xbe;" horiz-adv-x="1679" d="M82 866v6h133v-6q0 -78 56.5 -119.5t125.5 -41.5q78 0 131.5 30.5t53.5 108.5q0 53 -39 89t-117 36h-59v125h59q78 0 115 35.5t37 89.5q0 61 -44.5 94t-121.5 33q-78 0 -118 -45.5t-50 -100.5h-135q4 59 29.5 107.5t65.5 83t93 54t115 19.5q61 0 116.5 -15t96.5 -46 t65.5 -77t24.5 -107q0 -86 -42 -125t-104 -62q63 -23 106.5 -62.5t43.5 -125.5q0 -66 -25.5 -114t-70.5 -80t-103.5 -48t-122.5 -16q-66 0 -123 19.5t-100 56t-67.5 88t-24.5 116.5zM440 0l811 1444h142l-811 -1444h-142zM924 186v133l368 519h144v-539h174v-113h-174v-186 h-123v186h-389zM1049 299h264v371z" />
<glyph unicode="&#xbf;" horiz-adv-x="1007" d="M102 -223q0 68 26 129t65 110l200 252q23 29 33 65t10 77v122h148v-122q0 -68 -24.5 -129.5t-63.5 -110.5l-201 -256q-23 -29 -32 -64.5t-9 -76.5q0 -53 19.5 -101.5t53 -84.5t81 -57.5t100.5 -21.5t100 21.5t81 57.5t53.5 84t19.5 102v41h143v-37q0 -84 -30.5 -158 t-84 -128t-126 -85t-156.5 -31t-158 31t-129 85t-87 128t-32 158zM430 680v160h160v-160h-160z" />
<glyph unicode="&#xc0;" horiz-adv-x="1241" d="M61 0l478 1444h163l478 -1444h-148l-166 510h-493l-164 -510h-148zM418 645h405l-202 625zM461 1772h125l88 -256h-125z" />
<glyph unicode="&#xc1;" horiz-adv-x="1241" d="M61 0l478 1444h163l478 -1444h-148l-166 510h-493l-164 -510h-148zM418 645h405l-202 625zM557 1516l88 256h125l-88 -256h-125z" />
<glyph unicode="&#xc2;" horiz-adv-x="1241" d="M61 0l478 1444h163l478 -1444h-148l-166 510h-493l-164 -510h-148zM385 1516l178 256h115l178 -256h-137l-101 157l-98 -157h-135zM418 645h405l-202 625z" />
<glyph unicode="&#xc3;" horiz-adv-x="1241" d="M61 0l478 1444h163l478 -1444h-148l-166 510h-493l-164 -510h-148zM338 1626q31 37 75 65.5t97 28.5q33 0 62.5 -11t55 -24.5t50 -24.5t49.5 -11q57 0 94 53l80 -78q-33 -39 -77 -66.5t-97 -27.5q-35 0 -63.5 11t-54 24.5t-49 25t-48.5 11.5q-57 0 -94 -54zM418 645h405 l-202 625z" />
<glyph unicode="&#xc4;" horiz-adv-x="1241" d="M61 0l478 1444h163l478 -1444h-148l-166 510h-493l-164 -510h-148zM397 1556v160h160v-160h-160zM418 645h405l-202 625zM684 1556v160h160v-160h-160z" />
<glyph unicode="&#xc5;" horiz-adv-x="1241" d="M61 0l451 1366q-41 27 -66.5 71t-25.5 99q0 84 57.5 142.5t143.5 58.5q84 0 142 -58.5t58 -142.5q0 -55 -25.5 -99t-68.5 -71l453 -1366h-148l-166 510h-493l-164 -510h-148zM418 645h405l-202 625zM518 1536q0 -29 14.5 -53.5t36.5 -38.5h101q23 14 38 38.5t15 53.5 q0 41 -30.5 73.5t-71.5 32.5q-43 0 -73 -32.5t-30 -73.5z" />
<glyph unicode="&#xc6;" horiz-adv-x="1708" d="M0 0l838 1444h788v-133h-645v-523h430v-135h-430v-520h645v-133h-788v510h-383l-295 -510h-160zM535 645h303v522z" />
<glyph unicode="&#xc7;" horiz-adv-x="1249" d="M82 721q0 137 37 271t107.5 238.5t176 169t244.5 64.5q100 0 184 -34.5t148.5 -96t112 -143.5t75.5 -176h-159q-23 61 -54.5 117.5t-77 101.5t-102.5 71.5t-127 26.5q-104 0 -181 -56t-128 -145.5t-76.5 -197t-25.5 -211.5t25.5 -212t76.5 -196t128 -144t181 -56 q70 0 127 26.5t102.5 71.5t77 101.5t54.5 117.5h159q-25 -86 -65.5 -160.5t-96 -133t-125 -98.5t-153.5 -52l-125 -377h-127l123 375q-127 12 -223 78.5t-162 169t-98.5 229.5t-32.5 260z" />
<glyph unicode="&#xc8;" horiz-adv-x="983" d="M133 0v1444h789v-133h-646v-523h431v-135h-431v-520h646v-133h-789zM387 1772h125l88 -256h-125z" />
<glyph unicode="&#xc9;" horiz-adv-x="983" d="M133 0v1444h789v-133h-646v-523h431v-135h-431v-520h646v-133h-789zM430 1516l88 256h125l-88 -256h-125z" />
<glyph unicode="&#xca;" horiz-adv-x="983" d="M133 0v1444h789v-133h-646v-523h431v-135h-431v-520h646v-133h-789zM270 1516l179 256h114l178 -256h-137l-100 157l-98 -157h-136z" />
<glyph unicode="&#xcb;" horiz-adv-x="983" d="M133 0v1444h789v-133h-646v-523h431v-135h-431v-520h646v-133h-789zM303 1556v160h160v-160h-160zM590 1556v160h160v-160h-160z" />
<glyph unicode="&#xcc;" horiz-adv-x="409" d="M84 1772h125l88 -256h-125zM133 0v1444h143v-1444h-143z" />
<glyph unicode="&#xcd;" horiz-adv-x="409" d="M113 1516l88 256h125l-88 -256h-125zM133 0v1444h143v-1444h-143z" />
<glyph unicode="&#xce;" horiz-adv-x="409" d="M-31 1516l178 256h115l178 -256h-137l-100 157l-99 -157h-135zM133 0v1444h143v-1444h-143z" />
<glyph unicode="&#xcf;" horiz-adv-x="409" d="M-18 1556v160h159v-160h-159zM133 0v1444h143v-1444h-143zM268 1556v160h160v-160h-160z" />
<glyph unicode="&#xd0;" horiz-adv-x="1302" d="M41 653v135h164v656h465q135 0 237.5 -64.5t172 -167t105.5 -231.5t36 -260t-37 -260t-107.5 -231.5t-173 -166t-233.5 -63.5h-465v653h-164zM348 133h301q100 0 178 54.5t131.5 139.5t81 188t27.5 204q0 106 -24.5 212.5t-77 190.5t-131 136.5t-185.5 52.5h-301v-523 h225v-135h-225v-520z" />
<glyph unicode="&#xd1;" horiz-adv-x="1187" d="M133 0v1444h184l598 -1204v1204h140v-1444h-185l-598 1202v-1202h-139zM311 1626q31 37 75 65.5t97 28.5q33 0 62.5 -11t55.5 -24.5t50 -24.5t49 -11q57 0 95 53l79 -78q-33 -39 -76.5 -66.5t-97.5 -27.5q-35 0 -63.5 11t-54 24.5t-49 25t-48.5 11.5q-57 0 -94 -54z" />
<glyph unicode="&#xd2;" horiz-adv-x="1290" d="M82 721q0 137 37 271t107.5 238.5t176 169t244.5 64.5q137 0 242.5 -64.5t176.5 -169t106.5 -238.5t35.5 -271q0 -139 -35.5 -272.5t-106.5 -238t-176.5 -167.5t-242.5 -63q-139 0 -244.5 63t-176 167.5t-107.5 238t-37 272.5zM236 721q0 -104 25.5 -212t76.5 -196 t128 -144t181 -56t180 56t127.5 144t76 195.5t24.5 212.5q0 104 -24.5 211.5t-76 197t-127.5 145.5t-180 56t-181 -56t-128 -145.5t-76.5 -197t-25.5 -211.5zM500 1772h125l88 -256h-125z" />
<glyph unicode="&#xd3;" horiz-adv-x="1290" d="M82 721q0 137 37 271t107.5 238.5t176 169t244.5 64.5q137 0 242.5 -64.5t176.5 -169t106.5 -238.5t35.5 -271q0 -139 -35.5 -272.5t-106.5 -238t-176.5 -167.5t-242.5 -63q-139 0 -244.5 63t-176 167.5t-107.5 238t-37 272.5zM236 721q0 -104 25.5 -212t76.5 -196 t128 -144t181 -56t180 56t127.5 144t76 195.5t24.5 212.5q0 104 -24.5 211.5t-76 197t-127.5 145.5t-180 56t-181 -56t-128 -145.5t-76.5 -197t-25.5 -211.5zM569 1516l88 256h125l-88 -256h-125z" />
<glyph unicode="&#xd4;" horiz-adv-x="1290" d="M82 721q0 137 37 271t107.5 238.5t176 169t244.5 64.5q137 0 242.5 -64.5t176.5 -169t106.5 -238.5t35.5 -271q0 -139 -35.5 -272.5t-106.5 -238t-176.5 -167.5t-242.5 -63q-139 0 -244.5 63t-176 167.5t-107.5 238t-37 272.5zM236 721q0 -104 25.5 -212t76.5 -196 t128 -144t181 -56t180 56t127.5 144t76 195.5t24.5 212.5q0 104 -24.5 211.5t-76 197t-127.5 145.5t-180 56t-181 -56t-128 -145.5t-76.5 -197t-25.5 -211.5zM410 1516l178 256h114l179 -256h-138l-100 157l-98 -157h-135z" />
<glyph unicode="&#xd5;" horiz-adv-x="1290" d="M82 721q0 137 37 271t107.5 238.5t176 169t244.5 64.5q137 0 242.5 -64.5t176.5 -169t106.5 -238.5t35.5 -271q0 -139 -35.5 -272.5t-106.5 -238t-176.5 -167.5t-242.5 -63q-139 0 -244.5 63t-176 167.5t-107.5 238t-37 272.5zM236 721q0 -104 25.5 -212t76.5 -196 t128 -144t181 -56t180 56t127.5 144t76 195.5t24.5 212.5q0 104 -24.5 211.5t-76 197t-127.5 145.5t-180 56t-181 -56t-128 -145.5t-76.5 -197t-25.5 -211.5zM362 1626q31 37 75 65.5t98 28.5q33 0 62.5 -11t55 -24.5t50 -24.5t49.5 -11q57 0 94 53l80 -78 q-33 -39 -77 -66.5t-97 -27.5q-35 0 -64 11t-54.5 24.5t-49 25t-47.5 11.5q-57 0 -95 -54z" />
<glyph unicode="&#xd6;" horiz-adv-x="1290" d="M82 721q0 137 37 271t107.5 238.5t176 169t244.5 64.5q137 0 242.5 -64.5t176.5 -169t106.5 -238.5t35.5 -271q0 -139 -35.5 -272.5t-106.5 -238t-176.5 -167.5t-242.5 -63q-139 0 -244.5 63t-176 167.5t-107.5 238t-37 272.5zM236 721q0 -104 25.5 -212t76.5 -196 t128 -144t181 -56t180 56t127.5 144t76 195.5t24.5 212.5q0 104 -24.5 211.5t-76 197t-127.5 145.5t-180 56t-181 -56t-128 -145.5t-76.5 -197t-25.5 -211.5zM428 1556v160h160v-160h-160zM715 1556v160h159v-160h-159z" />
<glyph unicode="&#xd7;" horiz-adv-x="915" d="M102 317l260 261l-260 262l95 94l260 -262l262 262l94 -94l-262 -262l262 -261l-94 -94l-262 260l-260 -260z" />
<glyph unicode="&#xd8;" horiz-adv-x="1290" d="M82 0l141 213q-72 104 -106.5 236.5t-34.5 271.5q0 137 37 271t107.5 238.5t176 169t244.5 64.5q98 0 179 -33.5t147 -93.5l71 107h164l-143 -213q72 -106 107.5 -238.5t35.5 -271.5t-35.5 -272.5t-106.5 -238t-176.5 -167.5t-242.5 -63q-100 0 -182 33.5t-148 92.5 l-71 -106h-164zM236 721q0 -92 19 -188.5t60 -180.5l578 865q-47 53 -108.5 83.5t-137.5 30.5q-104 0 -181 -56t-128 -145.5t-76.5 -197t-25.5 -211.5zM397 229q47 -53 109.5 -84.5t140.5 -31.5q104 0 180 56t127.5 144t76 195.5t24.5 212.5q0 92 -20.5 189.5t-61.5 181.5z " />
<glyph unicode="&#xd9;" horiz-adv-x="1085" d="M92 430v1014h144v-1014q0 -66 23.5 -123t64.5 -100t97 -68.5t122 -25.5t122 25.5t97 68.5t64.5 100.5t23.5 122.5v1014h143v-1014q0 -100 -35.5 -183t-97 -142.5t-143.5 -92t-174 -32.5t-174 32.5t-143.5 92t-97.5 142.5t-36 183zM365 1772h124l89 -256h-125z" />
<glyph unicode="&#xda;" horiz-adv-x="1085" d="M92 430v1014h144v-1014q0 -66 23.5 -123t64.5 -100t97 -68.5t122 -25.5t122 25.5t97 68.5t64.5 100.5t23.5 122.5v1014h143v-1014q0 -100 -35.5 -183t-97 -142.5t-143.5 -92t-174 -32.5t-174 32.5t-143.5 92t-97.5 142.5t-36 183zM467 1516l88 256h125l-88 -256h-125z " />
<glyph unicode="&#xdb;" horiz-adv-x="1085" d="M92 430v1014h144v-1014q0 -66 23.5 -123t64.5 -100t97 -68.5t122 -25.5t122 25.5t97 68.5t64.5 100.5t23.5 122.5v1014h143v-1014q0 -100 -35.5 -183t-97 -142.5t-143.5 -92t-174 -32.5t-174 32.5t-143.5 92t-97.5 142.5t-36 183zM307 1516l178 256h115l178 -256h-137 l-100 157l-99 -157h-135z" />
<glyph unicode="&#xdc;" horiz-adv-x="1085" d="M92 430v1014h144v-1014q0 -66 23.5 -123t64.5 -100t97 -68.5t122 -25.5t122 25.5t97 68.5t64.5 100.5t23.5 122.5v1014h143v-1014q0 -100 -35.5 -183t-97 -142.5t-143.5 -92t-174 -32.5t-174 32.5t-143.5 92t-97.5 142.5t-36 183zM322 1556v160h159v-160h-159zM608 1556 v160h160v-160h-160z" />
<glyph unicode="&#xdd;" horiz-adv-x="1097" d="M20 1444h166l361 -664l360 664h166l-450 -799v-645h-150v641zM469 1516l88 256h125l-88 -256h-125z" />
<glyph unicode="&#xde;" horiz-adv-x="1120" d="M133 0v1444h143v-314h322q84 0 164 -27.5t141.5 -78.5t98 -125t36.5 -166t-36.5 -165.5t-98 -125t-141.5 -79t-164 -27.5h-322v-336h-143zM276 469h322q123 0 205 70.5t82 193.5t-82 193.5t-205 70.5h-322v-528z" />
<glyph unicode="&#xdf;" horiz-adv-x="870" d="M102 0v1100q0 70 19.5 135t59.5 116.5t97.5 82t135.5 30.5q76 0 138 -25.5t105 -70.5t67 -109.5t24 -140.5q0 -102 -43 -173t-130 -103q49 -27 89.5 -70t68 -96t41.5 -113.5t14 -124.5q0 -84 -25.5 -167t-72.5 -147.5t-114.5 -104t-151.5 -39.5v126q53 0 95 29t70.5 76 t44 106.5t15.5 120.5t-15.5 120.5t-46 108t-76.5 77t-108 28.5h-34v127h41q39 0 74.5 15.5t63 43t45 68.5t17.5 92q0 100 -48 159.5t-148 59.5q-92 0 -135 -66.5t-43 -166.5v-1104h-134z" />
<glyph unicode="&#xe0;" horiz-adv-x="847" d="M82 248q0 66 27.5 115t72.5 82.5t103.5 51t120.5 17.5q104 0 188 -49v63q0 100 -42 155.5t-142 55.5q-70 0 -117 -42t-47 -103h-129q0 61 22.5 110.5t63.5 83t96 52t121 18.5q139 0 223 -80t84 -219v-344q0 -35 20.5 -72t45.5 -69q29 -37 65 -74h-164q-14 10 -28.5 24.5 t-26.5 36.5q-45 -41 -106.5 -61t-126.5 -20q-61 0 -120 17t-104 51t-72.5 84t-27.5 116zM215 248q0 -80 56.5 -115t134.5 -35q59 0 109 15.5t79 50.5v166q-29 35 -79 50t-109 15q-78 0 -134.5 -34.5t-56.5 -112.5zM240 1444h127l149 -453h-127z" />
<glyph unicode="&#xe1;" horiz-adv-x="847" d="M82 248q0 66 27.5 115t72.5 82.5t103.5 51t120.5 17.5q104 0 188 -49v63q0 100 -42 155.5t-142 55.5q-70 0 -117 -42t-47 -103h-129q0 61 22.5 110.5t63.5 83t96 52t121 18.5q139 0 223 -80t84 -219v-344q0 -35 20.5 -72t45.5 -69q29 -37 65 -74h-164q-14 10 -28.5 24.5 t-26.5 36.5q-45 -41 -106.5 -61t-126.5 -20q-61 0 -120 17t-104 51t-72.5 84t-27.5 116zM215 248q0 -80 56.5 -115t134.5 -35q59 0 109 15.5t79 50.5v166q-29 35 -79 50t-109 15q-78 0 -134.5 -34.5t-56.5 -112.5zM377 991l149 453h127l-149 -453h-127z" />
<glyph unicode="&#xe2;" horiz-adv-x="847" d="M82 248q0 66 27.5 115t72.5 82.5t103.5 51t120.5 17.5q104 0 188 -49v63q0 100 -42 155.5t-142 55.5q-70 0 -117 -42t-47 -103h-129q0 61 22.5 110.5t63.5 83t96 52t121 18.5q139 0 223 -80t84 -219v-344q0 -35 20.5 -72t45.5 -69q29 -37 65 -74h-164q-14 10 -28.5 24.5 t-26.5 36.5q-45 -41 -106.5 -61t-126.5 -20q-61 0 -120 17t-104 51t-72.5 84t-27.5 116zM195 991l157 453h115l158 -453h-119l-98 297l-97 -297h-116zM215 248q0 -80 56.5 -115t134.5 -35q59 0 109 15.5t79 50.5v166q-29 35 -79 50t-109 15q-78 0 -134.5 -34.5t-56.5 -112.5 z" />
<glyph unicode="&#xe3;" horiz-adv-x="847" d="M82 248q0 66 27.5 115t72.5 82.5t103.5 51t120.5 17.5q104 0 188 -49v63q0 100 -42 155.5t-142 55.5q-70 0 -117 -42t-47 -103h-129q0 61 22.5 110.5t63.5 83t96 52t121 18.5q139 0 223 -80t84 -219v-344q0 -35 20.5 -72t45.5 -69q29 -37 65 -74h-164q-14 10 -28.5 24.5 t-26.5 36.5q-45 -41 -106.5 -61t-126.5 -20q-61 0 -120 17t-104 51t-72.5 84t-27.5 116zM145 1196q31 37 75 65.5t97 28.5q33 0 63 -11t55.5 -24.5t50 -24.5t49.5 -11q57 0 94 53l80 -98q-33 -39 -77 -67t-97 -28q-35 0 -64 11.5t-54.5 24.5t-49 24.5t-48.5 11.5 q-57 0 -94 -53zM215 248q0 -80 56.5 -115t134.5 -35q59 0 109 15.5t79 50.5v166q-29 35 -79 50t-109 15q-78 0 -134.5 -34.5t-56.5 -112.5z" />
<glyph unicode="&#xe4;" horiz-adv-x="847" d="M82 248q0 66 27.5 115t72.5 82.5t103.5 51t120.5 17.5q104 0 188 -49v63q0 100 -42 155.5t-142 55.5q-70 0 -117 -42t-47 -103h-129q0 61 22.5 110.5t63.5 83t96 52t121 18.5q139 0 223 -80t84 -219v-344q0 -35 20.5 -72t45.5 -69q29 -37 65 -74h-164q-14 10 -28.5 24.5 t-26.5 36.5q-45 -41 -106.5 -61t-126.5 -20q-61 0 -120 17t-104 51t-72.5 84t-27.5 116zM160 1094v168h168v-168h-168zM215 248q0 -80 56.5 -115t134.5 -35q59 0 109 15.5t79 50.5v166q-29 35 -79 50t-109 15q-78 0 -134.5 -34.5t-56.5 -112.5zM446 1094v168h168v-168h-168z " />
<glyph unicode="&#xe5;" horiz-adv-x="847" d="M82 248q0 66 27.5 115t72.5 82.5t103.5 51t120.5 17.5q104 0 188 -49v63q0 100 -42 155.5t-142 55.5q-70 0 -117 -42t-47 -103h-129q0 61 22.5 110.5t63.5 83t96 52t121 18.5q139 0 223 -80t84 -219v-344q0 -35 20.5 -72t45.5 -69q29 -37 65 -74h-164q-14 10 -28.5 24.5 t-26.5 36.5q-45 -41 -106.5 -61t-126.5 -20q-61 0 -120 17t-104 51t-72.5 84t-27.5 116zM205 1223q0 92 61.5 154.5t153.5 62.5t154.5 -62.5t62.5 -154.5t-62.5 -153.5t-154.5 -61.5t-153.5 61.5t-61.5 153.5zM215 248q0 -80 56.5 -115t134.5 -35q59 0 109 15.5t79 50.5v166 q-29 35 -79 50t-109 15q-78 0 -134.5 -34.5t-56.5 -112.5zM311 1223q0 -47 31 -81t78 -34t78.5 34t31.5 81t-31.5 81.5t-78.5 34.5t-78 -34.5t-31 -81.5z" />
<glyph unicode="&#xe6;" horiz-adv-x="1423" d="M82 248q0 66 27.5 115t72.5 82.5t103.5 51t120.5 17.5q104 0 188 -49v63q0 100 -42 155.5t-142 55.5q-70 0 -117 -42t-47 -103h-129q0 61 22.5 110.5t63.5 83t96 52t121 18.5q92 0 160.5 -37t107.5 -104q47 66 115.5 103.5t154.5 37.5q84 0 152 -37t115 -98t71.5 -141 t24.5 -164v-19h-590q2 -59 18.5 -112.5t45 -94t69.5 -64.5t94 -24q72 0 129.5 46.5t86.5 115.5h139q-18 -61 -51 -113.5t-79 -90t-102.5 -60t-122.5 -22.5q-80 0 -144 32.5t-112 87.5q-47 -57 -125.5 -88.5t-170.5 -31.5q-61 0 -120 17t-104 51t-72.5 84t-27.5 116zM215 248 q0 -80 56.5 -112t134.5 -32q90 0 148 32t58 112q0 78 -58 112.5t-148 34.5q-78 0 -134.5 -34.5t-56.5 -112.5zM741 518h433q-20 92 -75 153.5t-141 61.5t-141 -61.5t-76 -153.5z" />
<glyph unicode="&#xe7;" horiz-adv-x="860" d="M82 418q0 84 25.5 164t72.5 141t114.5 98t151.5 37q63 0 119 -22.5t99 -60.5t73.5 -90t48.5 -112h-143q-27 70 -76 114t-121 44q-53 0 -95 -25.5t-70.5 -69.5t-44 -100.5t-15.5 -117.5t15.5 -117.5t44 -99.5t70.5 -69t95 -26q72 0 123.5 44.5t75.5 115.5h143 q-33 -111 -105.5 -187.5t-182.5 -92.5l-123 -377h-127l125 379q-68 14 -122 55t-92 99.5t-58.5 129t-20.5 146.5z" />
<glyph unicode="&#xe8;" d="M82 418q0 84 25.5 164t72.5 141t114.5 98t151.5 37t152 -37t115 -98t71.5 -141t24.5 -164v-19h-590q2 -59 18.5 -112.5t45 -94t69.5 -64.5t94 -24q72 0 129.5 46.5t86.5 115.5h139q-18 -61 -51 -113.5t-79 -90t-102.5 -60t-122.5 -22.5q-84 0 -151.5 36.5t-114.5 98 t-72.5 140.5t-25.5 163zM229 518h433q-20 92 -75 153.5t-141 61.5t-141 -61.5t-76 -153.5zM229 1444h127l150 -453h-127z" />
<glyph unicode="&#xe9;" d="M82 418q0 84 25.5 164t72.5 141t114.5 98t151.5 37t152 -37t115 -98t71.5 -141t24.5 -164v-19h-590q2 -59 18.5 -112.5t45 -94t69.5 -64.5t94 -24q72 0 129.5 46.5t86.5 115.5h139q-18 -61 -51 -113.5t-79 -90t-102.5 -60t-122.5 -22.5q-84 0 -151.5 36.5t-114.5 98 t-72.5 140.5t-25.5 163zM229 518h433q-20 92 -75 153.5t-141 61.5t-141 -61.5t-76 -153.5zM379 991l149 453h127l-149 -453h-127z" />
<glyph unicode="&#xea;" d="M82 418q0 84 25.5 164t72.5 141t114.5 98t151.5 37t152 -37t115 -98t71.5 -141t24.5 -164v-19h-590q2 -59 18.5 -112.5t45 -94t69.5 -64.5t94 -24q72 0 129.5 46.5t86.5 115.5h139q-18 -61 -51 -113.5t-79 -90t-102.5 -60t-122.5 -22.5q-84 0 -151.5 36.5t-114.5 98 t-72.5 140.5t-25.5 163zM229 518h433q-20 92 -75 153.5t-141 61.5t-141 -61.5t-76 -153.5zM229 991l158 453h115l157 -453h-118l-99 297l-96 -297h-117z" />
<glyph unicode="&#xeb;" d="M82 418q0 84 25.5 164t72.5 141t114.5 98t151.5 37t152 -37t115 -98t71.5 -141t24.5 -164v-19h-590q2 -59 18.5 -112.5t45 -94t69.5 -64.5t94 -24q72 0 129.5 46.5t86.5 115.5h139q-18 -61 -51 -113.5t-79 -90t-102.5 -60t-122.5 -22.5q-84 0 -151.5 36.5t-114.5 98 t-72.5 140.5t-25.5 163zM221 1094v168h168v-168h-168zM229 518h433q-20 92 -75 153.5t-141 61.5t-141 -61.5t-76 -153.5zM508 1094v168h168v-168h-168z" />
<glyph unicode="&#xec;" horiz-adv-x="358" d="M41 1444h127l149 -453h-127zM113 0v838h133v-838h-133z" />
<glyph unicode="&#xed;" horiz-adv-x="358" d="M41 991l149 453h127l-149 -453h-127zM113 0v838h133v-838h-133z" />
<glyph unicode="&#xee;" horiz-adv-x="358" d="M-39 991l158 453h114l158 -453h-119l-98 297l-96 -297h-117zM113 0v838h133v-838h-133z" />
<glyph unicode="&#xef;" horiz-adv-x="358" d="M-47 1094v168h168v-168h-168zM113 0v838h133v-838h-133zM240 1094v168h168v-168h-168z" />
<glyph unicode="&#xf0;" d="M82 418q0 84 25.5 164t72.5 141t114.5 98t151.5 37q66 0 120.5 -22.5t97.5 -61.5q-10 100 -41 192.5t-80 166.5l-256 -121v125l182 86q-53 51 -114.5 79.5t-133.5 28.5v133q109 0 201 -49t164 -137l223 106v-124l-156 -74q74 -123 115 -282t41 -339v-131v-16 q0 -84 -24.5 -163t-71.5 -140.5t-115 -98t-152 -36.5t-151.5 36.5t-114.5 98t-72.5 140.5t-25.5 163zM221 418q0 -61 15.5 -117.5t44 -99.5t70.5 -69t95 -26t94.5 25t69 67t43 96t17.5 116v20q-2 59 -17.5 113.5t-44 96.5t-70 66.5t-92.5 24.5q-53 0 -95 -25.5t-70.5 -69.5 t-44 -100.5t-15.5 -117.5z" />
<glyph unicode="&#xf1;" horiz-adv-x="860" d="M123 0v838h133v-90q35 51 87 80.5t118 29.5q139 0 218 -80t79 -219v-559h-133v528q0 92 -41 149.5t-133 57.5q-47 0 -83 -21.5t-60.5 -56t-38 -80t-13.5 -90.5v-487h-133zM147 1196q31 37 75 65.5t97 28.5q33 0 63 -11t55.5 -24.5t50 -24.5t49.5 -11q57 0 94 53l80 -98 q-33 -39 -77 -67t-97 -28q-35 0 -64 11.5t-54.5 24.5t-49 24.5t-47.5 11.5q-57 0 -95 -53z" />
<glyph unicode="&#xf2;" d="M82 418q0 84 25.5 164t72.5 141t114.5 98t151.5 37t152 -37t115 -98t71.5 -141t24.5 -164t-24.5 -163t-71.5 -140.5t-115 -98t-152 -36.5t-151.5 36.5t-114.5 98t-72.5 140.5t-25.5 163zM221 418q0 -61 15.5 -117.5t44 -99.5t70.5 -69t95 -26t95.5 26t71 69t43 99 t14.5 118q0 61 -14.5 117.5t-43 100.5t-71 69.5t-95.5 25.5t-95 -25.5t-70.5 -69.5t-44 -100.5t-15.5 -117.5zM246 1444h127l149 -453h-127z" />
<glyph unicode="&#xf3;" d="M82 418q0 -84 25.5 -163t72.5 -140.5t114.5 -98t151.5 -36.5t152 36.5t115 98t71.5 140.5t24.5 163t-24.5 164t-71.5 141t-115 98t-152 37t-151.5 -37t-114.5 -98t-72.5 -141t-25.5 -164zM221 418q0 61 15.5 117.5t44 100.5t70.5 69.5t95 25.5t95.5 -25.5t71 -69.5 t43 -100.5t14.5 -117.5t-14.5 -117.5t-43 -99.5t-70.5 -69t-96 -26q-53 0 -95 26t-70.5 69t-44 99t-15.5 118zM369 991l149 453h127l-149 -453h-127z" />
<glyph unicode="&#xf4;" d="M82 418q0 -84 25.5 -163t72.5 -140.5t114.5 -98t151.5 -36.5t152 36.5t115 98t71.5 140.5t24.5 163t-24.5 164t-71.5 141t-115 98t-152 37t-151.5 -37t-114.5 -98t-72.5 -141t-25.5 -164zM221 418q0 61 15.5 117.5t44 100.5t70.5 69.5t95 25.5t95.5 -25.5t71 -69.5 t43 -100.5t14.5 -117.5t-14.5 -117.5t-43 -99.5t-70.5 -69t-96 -26q-53 0 -95 26t-70.5 69t-44 99t-15.5 118zM233 991l158 453h115l158 -453h-119l-99 297l-96 -297h-117z" />
<glyph unicode="&#xf5;" d="M82 418q0 84 25.5 164t72.5 141t114.5 98t151.5 37t152 -37t115 -98t71.5 -141t24.5 -164t-24.5 -163t-71.5 -140.5t-115 -98t-152 -36.5t-151.5 36.5t-114.5 98t-72.5 140.5t-25.5 163zM164 1196q31 37 75 65.5t97 28.5q33 0 62.5 -11t55 -24.5t50 -24.5t49.5 -11 q57 0 94 53l80 -98q-33 -39 -77 -67t-97 -28q-35 0 -63.5 11.5t-54 24.5t-49.5 24.5t-48 11.5q-57 0 -94 -53zM221 418q0 -61 15.5 -117.5t44 -99.5t70.5 -69t95 -26t95.5 26t71 69t43 99t14.5 118q0 61 -14.5 117.5t-43 100.5t-71 69.5t-95.5 25.5t-95 -25.5t-70.5 -69.5 t-44 -100.5t-15.5 -117.5z" />
<glyph unicode="&#xf6;" d="M82 418q0 -84 25.5 -163t72.5 -140.5t114.5 -98t151.5 -36.5t152 36.5t115 98t71.5 140.5t24.5 163t-24.5 164t-71.5 141t-115 98t-152 37t-151.5 -37t-114.5 -98t-72.5 -141t-25.5 -164zM217 1094v168h168v-168h-168zM221 418q0 61 15.5 117.5t44 100.5t70.5 69.5 t95 25.5t95.5 -25.5t71 -69.5t43 -100.5t14.5 -117.5t-14.5 -117.5t-43 -99.5t-70.5 -69t-96 -26q-53 0 -95 26t-70.5 69t-44 99t-15.5 118zM504 1094v168h168v-168h-168z" />
<glyph unicode="&#xf7;" horiz-adv-x="993" d="M102 516v125h789v-125h-789zM412 143v164h168v-164h-168zM412 854v164h168v-164h-168z" />
<glyph unicode="&#xf8;" d="M72 -129l125 223q-55 61 -85 146.5t-30 177.5q0 84 25.5 164t72.5 141t114.5 98t151.5 37q86 0 156 -41l84 150h133l-125 -224q55 -63 85 -148t30 -177q0 -84 -24.5 -163t-71.5 -140.5t-115 -98t-152 -36.5q-86 0 -157 38l-84 -147h-133zM221 418q0 -113 45 -197l273 486 q-20 10 -43 17t-50 7q-53 0 -95 -25.5t-70.5 -69.5t-44 -100.5t-15.5 -117.5zM350 131q43 -25 96 -25t95.5 26t71 69t43 99.5t14.5 117.5q0 115 -47 198z" />
<glyph unicode="&#xf9;" horiz-adv-x="860" d="M102 279v559h134v-529q0 -92 40.5 -149.5t133.5 -57.5q45 0 80.5 20.5t60 54.5t39 77t14.5 88v496h133v-838h-133v90q-35 -51 -87 -80.5t-118 -29.5q-139 0 -218 79.5t-79 219.5zM225 1444h127l150 -453h-127z" />
<glyph unicode="&#xfa;" horiz-adv-x="860" d="M102 279v559h134v-529q0 -92 40.5 -149.5t133.5 -57.5q45 0 79.5 20.5t60 54.5t39 76t15.5 87v498h133v-838h-133v88q-35 -51 -87 -79.5t-118 -28.5q-139 0 -218 79.5t-79 219.5zM332 991l149 453h127l-149 -453h-127z" />
<glyph unicode="&#xfb;" horiz-adv-x="860" d="M102 279v559h134v-529q0 -92 40.5 -149.5t133.5 -57.5q45 0 79.5 20.5t60 54.5t39 76t15.5 87v498h133v-838h-133v88q-35 -51 -87 -79.5t-118 -28.5q-139 0 -218 79.5t-79 219.5zM205 991l157 453h115l158 -453h-119l-98 297l-96 -297h-117z" />
<glyph unicode="&#xfc;" horiz-adv-x="860" d="M102 279v559h134v-529q0 -92 40.5 -149.5t133.5 -57.5q45 0 79.5 20.5t60 54.5t39 76t15.5 87v498h133v-838h-133v88q-35 -51 -87 -79.5t-118 -28.5q-139 0 -218 79.5t-79 219.5zM203 1094v168h168v-168h-168zM489 1094v168h168v-168h-168z" />
<glyph unicode="&#xfd;" horiz-adv-x="757" d="M-61 -315v-31q0 -123 66.5 -201t189.5 -78q61 0 109 23.5t80 64.5t49.5 95.5t17.5 115.5v326l286 838h-145l-209 -650l-225 650h-150l309 -838v-295q0 -39 -5 -75t-18 -64.5t-36.5 -46t-62.5 -17.5t-62.5 14.5t-37 39t-18.5 57.5t-5 72h-133zM313 991l150 453h127 l-150 -453h-127z" />
<glyph unicode="&#xfe;" horiz-adv-x="915" d="M113 -604v2048h133v-713q35 57 91 92t134 35q84 0 151.5 -37t114.5 -98t72 -141t25 -164t-25 -163t-72 -140.5t-114.5 -98t-151.5 -36.5q-78 0 -134 33.5t-91 90.5v-708h-133zM246 406q2 -59 17.5 -113.5t44 -95.5t69.5 -66t94 -25t95 26t71 69t43 99t14 118 q0 61 -14 117.5t-43 100.5t-71 69.5t-95 25.5t-94 -24.5t-69.5 -66.5t-44 -96.5t-17.5 -113.5v-24z" />
<glyph unicode="&#xff;" horiz-adv-x="757" d="M-61 -315v-31q0 -123 66.5 -201t189.5 -78q61 0 109 23.5t80 64.5t49.5 95.5t17.5 115.5v326l286 838h-145l-209 -650l-225 650h-150l309 -838v-295q0 -39 -5 -75t-18 -64.5t-36.5 -46t-62.5 -17.5t-62.5 14.5t-37 39t-18.5 57.5t-5 72h-133zM152 1094v168h167v-168h-167 zM438 1094v168h168v-168h-168z" />
<glyph unicode="&#x152;" horiz-adv-x="1638" d="M82 721q0 137 37 271t107.5 238.5t176 169t244.5 64.5q37 0 73 -5t71 -15h786v-133h-645v-523h430v-135h-430v-520h645v-133h-786q-35 -10 -71 -15t-73 -5q-139 0 -244.5 63t-176 167.5t-107.5 238t-37 272.5zM236 721q0 -104 25.5 -212t76.5 -196t128 -144t181 -56 q39 0 75 4t66 20v1168q-33 16 -66.5 21t-74.5 5q-104 0 -181 -56t-128 -145.5t-76.5 -197t-25.5 -211.5z" />
<glyph unicode="&#x153;" horiz-adv-x="1478" d="M82 418q0 84 25.5 164t72.5 141t114.5 98t151.5 37q104 0 177 -55t116 -141q45 86 118 141t177 55q84 0 151.5 -37t115 -98t72 -141t24.5 -164v-19h-590q2 -59 18.5 -112.5t45 -94t69.5 -64.5t94 -24q72 0 129.5 46.5t85.5 115.5h140q-18 -61 -51 -113.5t-79.5 -90 t-102.5 -60t-122 -22.5q-102 0 -176 52t-119 138q-43 -86 -115.5 -138t-177.5 -52q-84 0 -151.5 36.5t-114.5 98t-72.5 140.5t-25.5 163zM221 418q0 -61 15.5 -117.5t44 -99.5t70.5 -69t95 -26t95.5 26t71 69t43 99t14.5 118q0 61 -14.5 117.5t-43 100.5t-71 69.5 t-95.5 25.5t-95 -25.5t-70.5 -69.5t-44 -100.5t-15.5 -117.5zM817 518h432q-20 92 -74.5 153.5t-140.5 61.5t-141 -61.5t-76 -153.5z" />
<glyph unicode="&#x178;" horiz-adv-x="1097" d="M20 1444h166l361 -664l360 664h166l-450 -799v-645h-150v641zM326 1556v160h159v-160h-159zM612 1556v160h160v-160h-160z" />
<glyph unicode="&#x2c6;" horiz-adv-x="716" d="M143 991l158 453h115l157 -453h-118l-99 297l-96 -297h-117z" />
<glyph unicode="&#x2dc;" horiz-adv-x="768" d="M102 1196q31 37 75 65.5t97 28.5q33 0 63 -11t55.5 -24.5t50 -24.5t49.5 -11q57 0 94 53l80 -98q-33 -39 -77 -67t-97 -28q-35 0 -64 11.5t-54.5 24.5t-49 24.5t-48.5 11.5q-57 0 -94 -53z" />
<glyph unicode="&#x2000;" horiz-adv-x="886" />
<glyph unicode="&#x2001;" horiz-adv-x="1772" />
<glyph unicode="&#x2002;" horiz-adv-x="886" />
<glyph unicode="&#x2003;" horiz-adv-x="1772" />
<glyph unicode="&#x2004;" horiz-adv-x="590" />
<glyph unicode="&#x2005;" horiz-adv-x="443" />
<glyph unicode="&#x2006;" horiz-adv-x="295" />
<glyph unicode="&#x2007;" horiz-adv-x="295" />
<glyph unicode="&#x2008;" horiz-adv-x="221" />
<glyph unicode="&#x2009;" horiz-adv-x="354" />
<glyph unicode="&#x200a;" horiz-adv-x="98" />
<glyph unicode="&#x2010;" horiz-adv-x="655" d="M41 465v143h573v-143h-573z" />
<glyph unicode="&#x2011;" horiz-adv-x="655" d="M41 465v143h573v-143h-573z" />
<glyph unicode="&#x2012;" horiz-adv-x="655" d="M41 465v143h573v-143h-573z" />
<glyph unicode="&#x2013;" horiz-adv-x="1024" d="M20 506v143h984v-143h-984z" />
<glyph unicode="&#x2014;" horiz-adv-x="2048" d="M20 506v143h2008v-143h-2008z" />
<glyph unicode="&#x2018;" horiz-adv-x="460" d="M102 991l150 453h127l-150 -453h-127z" />
<glyph unicode="&#x2019;" horiz-adv-x="460" d="M102 991l150 453h127l-150 -453h-127z" />
<glyph unicode="&#x201a;" horiz-adv-x="468" d="M94 -309l150 452h127l-150 -452h-127z" />
<glyph unicode="&#x201c;" horiz-adv-x="718" d="M102 991v135l150 318h135l-149 -318v-135h-136zM373 991v135l149 318h135l-149 -318v-135h-135z" />
<glyph unicode="&#x201d;" horiz-adv-x="718" d="M102 991l150 318v135h135v-135l-149 -318h-136zM373 991l149 318v135h135v-135l-149 -318h-135z" />
<glyph unicode="&#x201e;" horiz-adv-x="739" d="M80 -309l149 317v135h136v-135l-150 -317h-135zM350 -309l150 317v135h135v-135l-150 -317h-135z" />
<glyph unicode="&#x2022;" horiz-adv-x="1206" d="M207 684q0 82 30.5 154.5t85 126t126 85t153.5 31.5t154.5 -31.5t126 -85t85 -126t31.5 -154.5t-31.5 -153.5t-85 -126t-126 -85t-154.5 -30.5t-153.5 30.5t-126 85t-85 126t-30.5 153.5z" />
<glyph unicode="&#x2026;" horiz-adv-x="985" d="M57 0v164h168v-164h-168zM410 0v164h168v-164h-168zM762 0v164h168v-164h-168z" />
<glyph unicode="&#x202f;" horiz-adv-x="354" />
<glyph unicode="&#x2039;" horiz-adv-x="614" d="M102 553v147l410 297v-147l-307 -223l307 -221v-148z" />
<glyph unicode="&#x203a;" horiz-adv-x="614" d="M102 258v148l308 221l-308 223v147l410 -297v-147z" />
<glyph unicode="&#x205f;" horiz-adv-x="443" />
<glyph unicode="&#x20ac;" horiz-adv-x="1169" d="M41 514v133h182q-2 18 -2 35.5v38.5v70h-180v133h195q20 121 61 220t98.5 170.5t128 110.5t148.5 39q70 0 134 -31.5t118.5 -91t96.5 -142.5t66 -185h-147q-41 137 -111.5 222t-156.5 85q-49 0 -95.5 -29.5t-84 -82t-66.5 -126t-45 -159.5h336v-133h-350q-2 -16 -2 -35 v-35v-37.5t2 -36.5h350v-133h-334q16 -86 45 -157.5t65.5 -124t83 -81t95.5 -28.5q88 0 157.5 84t110.5 223h147q-25 -102 -66.5 -185t-96 -142.5t-119 -91t-133.5 -31.5q-78 0 -147.5 38.5t-127 108.5t-98.5 168t-61 219h-197z" />
<glyph unicode="&#x2122;" horiz-adv-x="1710" d="M82 1321v123h563v-123h-215v-715h-133v715h-215zM768 606v838h174l236 -653l235 653h174v-838h-125v600l-223 -600h-123l-223 600v-600h-125z" />
<glyph unicode="&#x25fc;" horiz-adv-x="839" d="M0 0v840h840v-840h-840z" />
</font>
</defs>
</svg>
