<?xml version="1.0" encoding="utf-8"?>
<!DOCTYPE svg PUBLIC "-//W3C//DTD SVG 1.1//EN" "http://www.w3.org/Graphics/SVG/1.1/DTD/svg11.dtd">
<svg version="1.1" id="Layer_1" xmlns:sketch="http://www.bohemiancoding.com/sketch/ns"
	 xmlns="http://www.w3.org/2000/svg" xmlns:xlink="http://www.w3.org/1999/xlink" x="0px" y="0px" width="531.675px"
	 height="345.262px" viewBox="31.803 173.904 531.675 345.262" enable-background="new 31.803 173.904 531.675 345.262"
	 xml:space="preserve">
<title>Slice 1</title>
<g>
	<g>
		<g>
			<path d="M297.641,519.166c-147.943,0-264.396-167.833-264.396-167.833c-1.92-2.614-1.922-6.945,0-9.594
				c0,0,116.453-167.834,264.396-167.834s264.396,167.834,264.396,167.834c1.92,2.614,1.922,6.944,0,9.594
				C562.037,351.333,445.584,519.166,297.641,519.166z M297.641,450.115c55.479,0,100.453-46.375,100.453-103.58
				s-44.975-103.579-100.453-103.579s-100.453,46.374-100.453,103.579S242.162,450.115,297.641,450.115z"/>
			<path d="M297.641,381.062c18.492,0,33.484-15.458,33.484-34.526s-14.992-34.526-33.484-34.526
				c-18.494,0-33.484,15.458-33.484,34.526S279.147,381.062,297.641,381.062z"/>
		</g>
	</g>
</g>
</svg>
