<?xml version="1.0" encoding="utf-8"?>
<!DOCTYPE svg PUBLIC "-//W3C//DTD SVG 1.1//EN" "http://www.w3.org/Graphics/SVG/1.1/DTD/svg11.dtd">
<svg version="1.1" id="Layer_1" xmlns:sketch="http://www.bohemiancoding.com/sketch/ns"
	 xmlns="http://www.w3.org/2000/svg" xmlns:xlink="http://www.w3.org/1999/xlink" x="0px" y="0px" width="531.675px"
	 height="345.262px" viewBox="31.803 173.904 531.675 345.262" enable-background="new 31.803 173.904 531.675 345.262"
	 xml:space="preserve">
<title>Slice 1</title>
<g>
	<g>
		<g>
			<path fill="none" stroke="#000000" stroke-width="30" stroke-miterlimit="10" d="M297.64,503.861
				c-134.827,0-240.956-152.955-240.956-152.955c-1.75-2.383-1.751-6.33,0-8.744c0,0,106.128-152.955,240.956-152.955
				c134.829,0,240.958,152.955,240.958,152.955c1.748,2.382,1.749,6.329,0,8.744C538.598,350.907,432.469,503.861,297.64,503.861z"
				/>
		</g>
	</g>
</g>
<path d="M91.245,491.776c-3.965,0-7.85-1.945-10.17-5.517c-3.644-5.613-2.049-13.115,3.562-16.757L497.45,201.426
	c5.611-3.643,13.113-2.05,16.757,3.562c3.644,5.611,2.049,13.113-3.562,16.757L97.832,489.82
	C95.794,491.144,93.507,491.776,91.245,491.776z"/>
<g>
	<path d="M297.641,281.227c33.938,0,61.548,28.889,61.548,64.397c0,35.508-27.61,64.396-61.548,64.396s-61.548-28.888-61.548-64.396
		C236.093,310.115,263.703,281.227,297.641,281.227 M297.641,251.227c-50.56,0-91.548,42.264-91.548,94.397
		c0,52.134,40.988,94.396,91.548,94.396c50.56,0,91.548-42.262,91.548-94.396C389.189,293.491,348.2,251.227,297.641,251.227
		L297.641,251.227z"/>
</g>
</svg>
