<?xml version="1.0" encoding="utf-8"?>
<!-- Generator: Adobe Illustrator 15.0.0, SVG Export Plug-In . SVG Version: 6.00 Build 0)  -->
<!DOCTYPE svg PUBLIC "-//W3C//DTD SVG 1.0//EN" "http://www.w3.org/TR/2001/REC-SVG-20010904/DTD/svg10.dtd">
<svg version="1.0" id="Layer_1" xmlns="http://www.w3.org/2000/svg" xmlns:xlink="http://www.w3.org/1999/xlink" x="0px" y="0px"
	 width="35.999px" height="35.999px" viewBox="0 0 35.999 35.999" enable-background="new 0 0 35.999 35.999" xml:space="preserve">
<g>
	<circle fill="#FFFFFF" cx="18" cy="18" r="16.65"/>
	<path fill="#010202" d="M18.001,0C27.926,0,36,8.076,36,18s-8.077,17.998-18.001,17.998S0,27.923,0,17.999
		C0,8.074,8.076,0,18.001,0z M17.999,33.299c8.438,0,15.302-6.863,15.302-15.299s-6.862-15.301-15.3-15.301
		c-8.437,0-15.302,6.863-15.302,15.3C2.699,26.435,9.562,33.299,17.999,33.299z"/>
</g>
<g>
	<polyline fill="#010202" points="17.999,27.595 12.015,16.989 16.524,18.028 16.046,1.363 19.954,1.363 19.474,18.028 
		23.986,17.125 17.999,27.595 	"/>
</g>
</svg>
