<?xml version="1.0" encoding="utf-8"?>
<!-- Generator: Adobe Illustrator 15.0.0, SVG Export Plug-In . SVG Version: 6.00 Build 0)  -->
<!DOCTYPE svg PUBLIC "-//W3C//DTD SVG 1.0//EN" "http://www.w3.org/TR/2001/REC-SVG-20010904/DTD/svg10.dtd">
<svg version="1.0" id="Layer_1" xmlns="http://www.w3.org/2000/svg" xmlns:xlink="http://www.w3.org/1999/xlink" x="0px" y="0px"
	 width="35.999px" height="35.999px" viewBox="0 0 35.999 35.999" enable-background="new 0 0 35.999 35.999" xml:space="preserve">
<g>
	<circle fill="#FFFFFF" cx="18" cy="17.998" r="16.65"/>
	<path fill="#010202" d="M18,35.998c-9.925,0-18-8.076-18-18S8.076,0,18.001,0S36,8.074,36,17.998
		C36,27.923,27.924,35.998,18,35.998z M18.001,2.699c-8.438,0-15.302,6.864-15.302,15.299S9.562,33.299,18,33.299
		c8.437,0,15.301-6.863,15.301-15.301C33.301,9.562,26.438,2.699,18.001,2.699z"/>
</g>
<g>
	<polyline fill="#010202" points="18.001,8.403 23.985,19.008 19.476,17.97 19.955,34.635 16.046,34.635 16.526,17.97 
		12.014,18.873 18.001,8.403 	"/>
</g>
</svg>
