<?xml version="1.0" encoding="utf-8"?>
<!-- Generator: Adobe Illustrator 15.0.0, SVG Export Plug-In . SVG Version: 6.00 Build 0)  -->
<!DOCTYPE svg PUBLIC "-//W3C//DTD SVG 1.0//EN" "http://www.w3.org/TR/2001/REC-SVG-20010904/DTD/svg10.dtd">
<svg version="1.0" id="Layer_1" xmlns="http://www.w3.org/2000/svg" xmlns:xlink="http://www.w3.org/1999/xlink" x="0px" y="0px"
	 width="35.999px" height="35.999px" viewBox="0 0 35.999 35.999" enable-background="new 0 0 35.999 35.999" xml:space="preserve">
<g>
	<circle fill="#FFFFFF" cx="18.001" cy="17.999" r="16.651"/>
	<path fill="#010202" d="M0.001,17.998c0-9.925,8.076-18,18-18S35.999,8.075,35.999,18S27.924,35.999,18,35.999
		C8.076,35.999,0.001,27.923,0.001,17.998z M33.3,18c0-8.438-6.863-15.302-15.299-15.302S2.7,9.561,2.7,17.998
		C2.7,26.435,9.563,33.3,18,33.3C26.436,33.3,33.3,26.437,33.3,18z"/>
</g>
<g>
	<polyline fill="#010202" points="27.596,18 16.991,23.984 18.029,19.475 1.364,19.953 1.364,16.045 18.029,16.525 17.126,12.012 
		27.596,18 	"/>
</g>
</svg>
