<?xml version="1.0" encoding="utf-8"?>
<!-- Generator: Adobe Illustrator 15.0.0, SVG Export Plug-In . SVG Version: 6.00 Build 0)  -->
<!DOCTYPE svg PUBLIC "-//W3C//DTD SVG 1.0//EN" "http://www.w3.org/TR/2001/REC-SVG-20010904/DTD/svg10.dtd">
<svg version="1.0" id="Layer_1" xmlns="http://www.w3.org/2000/svg" xmlns:xlink="http://www.w3.org/1999/xlink" x="0px" y="0px"
	 width="35.999px" height="35.999px" viewBox="0 0 35.999 35.999" enable-background="new 0 0 35.999 35.999" xml:space="preserve">
<g>
	<circle fill="#FFFFFF" cx="17.999" cy="17.999" r="16.651"/>
	<path fill="#010202" d="M35.999,17.999c0,9.925-8.076,18-18,18S0.001,27.923,0.001,17.998s8.074-18,17.998-18
		C27.924-0.001,35.999,8.074,35.999,17.999z M2.7,17.998C2.7,26.436,9.564,33.3,18,33.3s15.3-6.863,15.3-15.301
		c0-8.437-6.863-15.301-15.301-15.301C9.563,2.698,2.7,9.562,2.7,17.998z"/>
</g>
<g>
	<polyline fill="#010202" points="8.404,17.998 19.009,12.013 17.971,16.523 34.636,16.044 34.636,19.952 17.971,19.473 
		18.875,23.985 8.404,17.998 	"/>
</g>
</svg>
