<?xml version="1.0" encoding="utf-8"?>
<!-- Generator: Adobe Illustrator 15.0.0, SVG Export Plug-In . SVG Version: 6.00 Build 0)  -->
<!DOCTYPE svg PUBLIC "-//W3C//DTD SVG 1.0//EN" "http://www.w3.org/TR/2001/REC-SVG-20010904/DTD/svg10.dtd">
<svg version="1.0" xmlns="http://www.w3.org/2000/svg" xmlns:xlink="http://www.w3.org/1999/xlink" x="0px" y="0px"
	 width="35.999px" height="44.75px" viewBox="0 0 35.999 44.75" enable-background="new 0 0 35.999 44.75" xml:space="preserve">
<g id="Layer_2">
</g>
<g id="Layer_1">
	<g>
		<g>
			<path fill="#010202" d="M15.333,9.178h-2.139V2.227h2.139V9.178z"/>
		</g>
		<g>
			<rect x="13.195" y="13.812" fill="#010202" width="2.139" height="3.208"/>
		</g>
	</g>
	<g>
		<g>
			<path fill="#FFFFFF" d="M31.275,38.939c0.938,0.938,0.938,2.472,0,3.409l-0.568,0.568c-0.938,0.938-2.471,0.938-3.409,0
				L14.231,29.85c-0.938-0.938-0.938-2.471,0-3.409l0.568-0.567c0.938-0.938,2.471-0.938,3.409,0L31.275,38.939z"/>
		</g>
		<g>
			<path fill="#010202" d="M29.003,44.688c-0.932,0-1.805-0.36-2.461-1.016L13.475,30.606c-0.656-0.655-1.017-1.528-1.017-2.46
				c0-0.932,0.361-1.806,1.017-2.461l0.569-0.568c1.309-1.31,3.608-1.311,4.92,0.001l13.067,13.066c1.356,1.356,1.356,3.564,0,4.921
				l-0.568,0.568C30.807,44.328,29.934,44.688,29.003,44.688z M16.503,26.24c-0.36,0-0.696,0.139-0.948,0.39l-0.569,0.568
				c-0.251,0.251-0.388,0.587-0.388,0.948c0,0.36,0.137,0.696,0.389,0.948L28.054,42.16c0.504,0.503,1.394,0.503,1.897,0
				l0.568-0.568c0.523-0.523,0.523-1.374,0-1.896L17.452,26.63C17.2,26.379,16.864,26.24,16.503,26.24z"/>
		</g>
	</g>
	<g>
		<circle fill="#FFFFFF" cx="14.264" cy="25.927" r="8.906"/>
		<path fill="#010202" d="M14.265,35.903c-5.501,0-9.977-4.475-9.977-9.976c0-5.5,4.475-9.976,9.977-9.976
			c5.5,0,9.976,4.476,9.976,9.976C24.24,31.428,19.765,35.903,14.265,35.903z M14.265,18.09c-4.322,0-7.837,3.516-7.837,7.837
			s3.515,7.837,7.837,7.837c4.321,0,7.836-3.516,7.836-7.837S18.586,18.09,14.265,18.09z"/>
	</g>
	<g>
		<rect x="10.17" y="24.981" fill="#010202" width="8.271" height="2.139"/>
	</g>
</g>
</svg>
