<?xml version="1.0" encoding="utf-8"?>
<!-- Generator: Adobe Illustrator 15.0.0, SVG Export Plug-In . SVG Version: 6.00 Build 0)  -->
<!DOCTYPE svg PUBLIC "-//W3C//DTD SVG 1.0//EN" "http://www.w3.org/TR/2001/REC-SVG-20010904/DTD/svg10.dtd">
<svg version="1.0" xmlns="http://www.w3.org/2000/svg" xmlns:xlink="http://www.w3.org/1999/xlink" x="0px" y="0px"
	 width="35.999px" height="44.75px" viewBox="0 0 35.999 44.75" enable-background="new 0 0 35.999 44.75" xml:space="preserve">
<g id="Layer_2">
</g>
<g id="Layer_1">
	<g>
		<g>
			<rect x="13.195" y="27.473" fill="#010202" width="2.139" height="3.208"/>
		</g>
		<g>
			<path fill="#010202" d="M15.333,42.267h-2.139v-6.952h2.139V42.267z"/>
		</g>
	</g>
	<g>
		<g>
			<path fill="#FFFFFF" d="M33.923,30.252c0.938,0.938,0.938,2.471,0,3.409l-0.568,0.568c-0.938,0.938-2.471,0.938-3.409,0
				L16.879,21.163c-0.938-0.938-0.938-2.471,0-3.409l0.568-0.567c0.938-0.938,2.471-0.938,3.409,0L33.923,30.252z"/>
		</g>
		<g>
			<path fill="#010202" d="M31.651,36.001c-0.932,0-1.805-0.36-2.46-1.017L16.123,21.919c-0.656-0.656-1.016-1.529-1.016-2.461
				c0-0.931,0.36-1.804,1.016-2.46l0.569-0.568c1.31-1.31,3.608-1.311,4.92,0.001L34.68,29.496c1.357,1.357,1.357,3.564,0,4.921
				l-0.568,0.568C33.456,35.642,32.583,36.001,31.651,36.001z M19.152,17.553c-0.361,0-0.697,0.138-0.949,0.39l-0.569,0.568
				c-0.25,0.25-0.389,0.586-0.389,0.947c0,0.361,0.139,0.697,0.39,0.949l13.067,13.066c0.503,0.503,1.393,0.503,1.896,0l0.568-0.569
				c0.523-0.523,0.523-1.373,0-1.896L20.1,17.943C19.849,17.691,19.512,17.553,19.152,17.553z"/>
		</g>
	</g>
	<g>
		<circle fill="#FFFFFF" cx="14.264" cy="14.278" r="13.195"/>
		<path fill="#010202" d="M14.265,28.542C6.399,28.542,0,22.143,0,14.278C0,6.413,6.399,0.014,14.265,0.014
			c7.864,0,14.264,6.399,14.264,14.264C28.528,22.143,22.129,28.542,14.265,28.542z M14.265,2.152
			c-6.687,0-12.126,5.439-12.126,12.126c0,6.686,5.439,12.125,12.126,12.125c6.686,0,12.125-5.439,12.125-12.125
			C26.39,7.592,20.95,2.152,14.265,2.152z"/>
	</g>
	<g>
		<rect x="13.195" y="9.054" fill="#010202" width="2.139" height="10.694"/>
	</g>
	<g>
		<rect x="8.917" y="13.332" fill="#010202" width="10.694" height="2.139"/>
	</g>
</g>
</svg>
