<?xml version="1.0" standalone="no"?>
<!DOCTYPE svg PUBLIC "-//W3C//DTD SVG 1.1//EN" "http://www.w3.org/Graphics/SVG/1.1/DTD/svg11.dtd" >
<svg xmlns="http://www.w3.org/2000/svg" xmlns:xlink="http://www.w3.org/1999/xlink" version="1.1">
<metadata></metadata>
<defs>
<font id="dauphinedings" horiz-adv-x="847" >
<font-face units-per-em="2048" ascent="1536" descent="-512" />
<missing-glyph horiz-adv-x="512" />
<glyph horiz-adv-x="0" />
<glyph horiz-adv-x="682" />
<glyph unicode=" "  horiz-adv-x="512" />
<glyph unicode="&#x09;" horiz-adv-x="512" />
<glyph unicode="&#xa0;" horiz-adv-x="512" />
<glyph unicode="!" horiz-adv-x="348" d="M43 106q0 61 46 108.5t108 47.5q54 0 83 -34t29 -85q0 -57 -38.5 -100t-106.5 -43q-49 0 -85 27.5t-36 78.5zM102 1294q-1 38 4.5 69t24 56t49.5 25q117 0 117 -252q0 -66 -12 -201q-8 -90 -39 -506q-20 -118 -47 -118q-8 0 -14.5 2t-11 6.5l-8.5 8.5t-6 12t-3.5 13 t-2.5 15t-1.5 14t-1 15.5t-0.5 13.5q-3 31 -11 124t-11.5 139t-7 120.5t-3.5 136.5q0 41 -7.5 149t-7.5 158z" />
<glyph unicode="'" horiz-adv-x="509" />
<glyph unicode="(" horiz-adv-x="819" d="M90 1380l88 -10q113 -14 221 -82q45 35 112 56.5t116 25.5l121 12l-86 -88q-23 -23 -39 -116q-8 -50 -18.5 -83t-29.5 -63.5t-51.5 -46t-79.5 -16.5v-969h-104v965q-42 5 -80 25.5t-59 53.5q-29 55 -45 164q-7 68 -23 99v-2zM236 1268q3 -11 8 -45q16 -94 35 -133 q23 -37 65 -37q4 0 12 1t13 1v16q59 -10 77 -10q38 0 57.5 34t31.5 99q9 52 16 72q-83 -26 -109 -64l-24 -37l-39 29q-74 55 -143 74z" />
<glyph unicode=")" horiz-adv-x="819" d="M72 1382l121 -12q49 -4 115.5 -25.5t111.5 -56.5q108 68 221 82l88 10l-43 -75v2q-15 -28 -22 -99q-16 -107 -46 -164q-21 -33 -59 -53.5t-80 -25.5v-965h-104v969q-47 1 -79 16.5t-51 46t-29 63t-19 83.5q-16 93 -39 116zM268 1266q9 -26 17 -72q12 -66 31 -99.5 t57 -33.5q19 0 78 10v-16q5 0 12.5 -1t11.5 -1q43 0 66 37q18 36 34 133q4 27 9 45q-71 -19 -144 -74l-39 -29l-24 37q-26 38 -109 64z" />
<glyph unicode="+" horiz-adv-x="993" d="M-29 281v557h1053v-557h-276v55q0 110 -75 185t-177 75q-111 0 -180.5 -77.5t-69.5 -182.5v-55h-275zM72 379h67q13 97 69 170t131.5 108t156.5 35q131 0 234 -86t124 -227h68v358h-850v-358z" />
<glyph unicode="," horiz-adv-x="395" d="M-219 -512q258 166 359 246q200 159 200 262q0 40 -40 66t-97 40.5t-113.5 29.5t-96.5 42.5t-40 69.5q0 17 4 32.5t14 29t19 24t26.5 22t28.5 18.5t33.5 17t32.5 14.5t34 14t31 12.5h129q-13 -7 -48.5 -25.5t-54.5 -29.5t-43.5 -27.5t-36 -33t-11.5 -33.5q0 -20 31.5 -33 t79 -20t102.5 -22.5t102.5 -36.5t79 -65t31.5 -106q0 -44 -8.5 -88t-30 -93.5t-36.5 -81.5t-51.5 -88.5t-50 -76.5t-55.5 -80h-524z" />
<glyph unicode="-" horiz-adv-x="655" />
<glyph unicode="." horiz-adv-x="364" />
<glyph unicode="0" horiz-adv-x="1085" d="M-94 332q209 18 299 57q-63 20 -195 117l103 18q79 15 141 47q-54 12 -96 54l-43 43l61 22q84 40 141 86q-81 8 -172 96q103 19 174 46q-18 6 -90 45q99 60 144 92q-27 4 -37 10l-76 29q14 11 75 49t89 65l-70 21l66 49q23 17 43 50.5t80 154.5q54 -108 78.5 -147 t48.5 -58l49 -47l-51 -17l184 -135q-17 -2 -66.5 -11t-78.5 -11q19 -22 46.5 -41t65.5 -41.5t60 -38.5q-120 -17 -125 -18q48 -25 239 -89q-119 -41 -239 -41q63 -56 213 -108q-34 -56 -67 -77.5t-77 -24.5q48 -21 117 -41h-2l25 -7l71 -20q-49 -55 -84 -78t-90 -29 q114 -52 293 -55q-109 -87 -178 -117t-141 -30q-86 0 -160 28v-229h-262v236q-86 -25 -160 -25q-151 0 -346 121zM154 295q12 -2 98 -2q4 0 31 -1t39 0.5t41 6.5t63 18.5t78 34.5v-270h76v272q42 -20 76 -34t54 -21.5t43 -11.5t29.5 -4.5t27.5 0t24 0.5q77 0 106 10 q-48 15 -64 20.5t-65.5 25.5t-78 38.5t-67 51t-65.5 71.5q74 -23 242 -23q-137 48 -195 125l-59 64q29 -2 81 -11.5t91 -9.5q26 0 65 8q-49 22 -94.5 58t-155.5 137q108 -10 168 -2q-56 24 -97 63.5t-68 108.5q50 -18 67 -23q-22 13 -38 41t-32 92q49 7 78 2l-110 152 q-62 -127 -109 -164l84 15q-9 -43 -28 -74t-36 -44.5t-44 -29.5q12 1 24 3.5t30.5 8t33.5 9.5q-30 -65 -73.5 -103.5t-107.5 -60.5q35 -8 104.5 -7.5t100.5 7.5q-102 -124 -225 -191q10 -4 22 -4q115 0 185 17l-45 -48q-74 -60 -121.5 -88.5t-138.5 -56.5q7 -3 33.5 -6.5 t33.5 -3.5q34 0 232 39q-57 -85 -154 -137t-190 -68z" />
<glyph unicode="1" horiz-adv-x="796" d="M104 850v98h17v49l278 637l279 -637v-49h16v-98h-57v-696l29 -154h-533l29 154v696h-58zM233 948h332v27l-166 420l-166 -420v-27zM268 98h264l-8 45v707h-250v-707zM348 551v219h103v-219h-103zM350 242v221h105v-221h-105z" />
<glyph unicode="2" horiz-adv-x="1052" d="M-20 672q0 42 46 100.5t56 91.5q63 191 84 240q-76 16 -103 104q21 -1 56 -4t50.5 -3.5t36.5 0t33 4.5t21 12l29 26q-48 32 -65 57.5t-21 77.5q25 -7 51.5 -18.5t46.5 -17t49 -5.5q4 0 13 2.5t16 5.5t8 3q-2 4 -15.5 21t-13.5 32q0 36 25 69q6 -4 21.5 -15.5t25 -17.5 t25.5 -15.5t32 -16.5q0 51 15 70q4 -2 30.5 -19.5t45 -28t24.5 -10.5h29q-19 26 -6 62q10 -12 58.5 -48.5t59.5 -41.5q47 -13 86.5 -54t42.5 -88q8 0 29 1t33 1q29 0 44 -8.5t15 -32.5q0 -45 -119 -45q-45 0 -92 -51h35q119 0 119 -49q0 -43 -53 -43q-10 0 -33 1t-35 1 t-39 2.5t-41 3t-33 -3.5q-4 -7 -24.5 -23.5t-22.5 -25.5q-2 -2 -2 -12q0 -3 12.5 -22t14.5 -26l47 -98q-50 15 -84 28.5t-43 20.5l-8 6l92 -124l-133 34q-12 4 -22.5 15t-23 29t-20.5 26q-2 -3 -7 -11.5t-7.5 -14t-5 -15.5t-2.5 -20q0 -83 72.5 -152.5t158.5 -77.5l-110 -86 q60 -29 118 -29q22 0 46.5 16.5t46 40t44 47t50 40t55.5 16.5q37 0 70 -14t33 -45q0 -25 -18.5 -39t-43.5 -14q-24 0 -31 -68q-1 -15 -8 -37t-14.5 -39.5t-16 -37t-10.5 -23.5q-5 -6 -19 -28.5t-24 -35.5q-31 -42 -61 -49q-40 -4 -77 -25.5t-66 -48.5t-58 -53.5t-66.5 -44.5 t-78.5 -18q-25 0 -37 0.5t-27 4.5t-20.5 12.5t-5.5 23.5q0 26 19.5 42.5t49.5 16.5q18 0 32.5 6t18.5 12q9 30 9 58q0 34 -19 74t-49 40q-107 0 -127 -20q-7 -34 -16 -60t-25 -53t-42 -42t-60 -15q-20 0 -39 14t-19 33t13.5 30.5t35.5 21t31 18.5q12 17 15.5 60.5t3.5 133.5 q0 79 -37 158q-20 -4 -39 -4q-42 0 -91.5 37.5t-49.5 83.5zM70 690q36 -36 49 -39q21 21 49 21q32 0 54.5 -28t43.5 -89q31 -91 31 -158q0 -2 -1 -9t-2 -18.5t-1 -25.5q49 18 129 18q63 0 104 -65.5t41 -151.5q130 118 207 129q80 97 86 183q-26 -39 -77.5 -72t-92.5 -33 q-62 0 -131 33t-113 84l95 74q-152 82 -152 245q0 116 96 150l62 4q20 7 28 52.5t27 56.5q18 12 40.5 24.5t37.5 20.5t18 10q13 33 26.5 55.5t30 35.5t23 16.5t23.5 11.5q-11 63 -63.5 87.5t-143.5 24.5q-73 0 -145.5 -43t-128 -109.5t-96.5 -142.5t-58 -147 q-23 -107 -78 -182q-8 -8 -18 -23zM244 758q0 93 8 147.5t42 114.5t101 113l47 -64q-78 -63 -98 -122.5t-20 -186.5q0 -29 23 -84t26 -80l-78 -12q-3 23 -27 80t-24 94zM606 1219q0 12 12 23t27 11q16 0 26.5 -10.5t10.5 -23.5q0 -14 -10.5 -25.5t-26.5 -11.5 q-15 0 -27 11.5t-12 25.5z" />
<glyph unicode="3" horiz-adv-x="1058" d="M16 1165v279h131v-121h89v121h143v-121h82v121h145v-121h82v121h143v-121h80v121h133l-2 -279l-120 -243v-258l57 -117v-547h-895v547l57 117v258zM121 1219l129 -263v-327l-64 -146v-385h254v250q0 45 25.5 78t66.5 33t66 -33t25 -78v-250h254v385l-64 146v325l127 265 h-819zM348 670v248q0 26 18 43.5t44 17.5t43.5 -17.5t17.5 -43.5v-248h-123zM594 670v248q0 26 17.5 43.5t43.5 17.5t44 -17.5t18 -43.5v-248h-123z" />
<glyph unicode="4" horiz-adv-x="1095" d="M43 1184q0 36 20 78t48 75q103 125 409 164l25 -149v-64q-14 -108 -31.5 -478t-17.5 -615q0 -70 8 -195h-404v543zM170 1221q1 -9 6 -101t10.5 -184t14 -214t16.5 -208v-399h172q0 329 11.5 738t27.5 515q-58 -11 -131 -40t-96 -52q-10 -10 -17 -22t-10 -22t-4 -11z M569 1491l113 35q27 4 68 4q114 0 159 -23q67 -31 115.5 -84t48.5 -120q0 -10 -1 -38.5t-2.5 -76t-2.5 -92.5q-1 -53 -4.5 -160t-5.5 -184.5t-2 -120.5t0.5 -114t1 -142.5t1 -136.5t0.5 -108l1 -42l4 -88h-328l-24 373l-45 436zM711 1425l141 -1310h96v374q0 145 3 428 t3 412q-57 96 -243 96z" />
<glyph unicode="5" horiz-adv-x="1062" d="M51 791q19 39 40.5 63.5t35 31.5t35.5 15q14 3 28 14q12 6 54 46q37 21 61 32q6 0 19 8q98 48 139 48q26 0 50.5 -13t40 -28t34 -46t26 -46.5t23.5 -49.5q2 -3 8 -18t12 -25q22 -60 54 -92q52 -62 131 -121l30 -24q9 -6 32 -24t37.5 -27t25.5 -13l-27 -119 q-70 27 -129 78l-41 33q-85 66 -160 148q-26 31 -73.5 137.5t-75.5 128.5q-23 -6 -47 -19q59 -28 59 -75q0 -18 -10 -43l18 -27q11 -16 42.5 -48t47 -60t15.5 -66q0 -22 -16 -38.5t-40 -16.5q-40 0 -49 36q-8 23 -69 76q-28 16 -66 58q-2 -5 -9 -16t-11 -19l4 -4 q38 -21 59 -74q5 -17 14 -29t35 -39q63 -55 78 -102q13 -37 16 -119q0 -24 -15.5 -39.5t-41.5 -15.5t-43 24q-2 5 -9.5 16t-8.5 15l-25 105q-9 -39 2 -88.5t33 -71.5q38 -38 59 -92l15 -37q7 -27 14 -39q12 -16 12 -33q0 -22 -16 -37.5t-39 -15.5q-21 0 -90 125 q-9 16 -21 40.5t-19.5 38.5t-10.5 17l-10 -9q-10 -8 -15.5 -20t0.5 -36q9 -25 33.5 -61t44 -61t18.5 -26q-5 -15 -19.5 -26t-31.5 -11q-33 0 -64.5 29.5t-52.5 68.5q-34 48 -34 123q0 12 3 42.5t3 50.5q0 3 -1 10.5t-1 11.5q0 26 14 46t41 20q11 0 29 -9v11q4 28 4 49 q0 24 16 37q13 13 37 16l-29 29q-2 2 -4.5 7.5t-7 15.5t-10.5 20q-9 27 -25 32q-30 5 -50.5 25.5t-20.5 52.5q0 18 8 31q20 20 47 72l39 65q14 23 43 23q-2 6 -2 18v8q-13 -6 -39 -26q-7 -6 -17.5 -16.5t-13.5 -12.5q-32 -20 -55 -27q-8 -2 -10 -2q-15 -8 -37 -45z" />
<glyph unicode="6" horiz-adv-x="1083" d="M27 33q126 145 270.5 317t165.5 203q10 16 36.5 53t35.5 51l57 82q13 34 59.5 75.5t77.5 41.5q30 0 74 -29q6 -6 23.5 -11t27.5 -5q29 -4 45 -20q21 -15 25 -21q4 3 26 14q20 10 35 13q26 16 53 16q15 0 29 -6.5t20 -12t19 -18.5q-5 -8 -18 -30.5t-25.5 -41t-24.5 -30.5 q-6 4 -18 4q-11 0 -19 -4q-19 -18 -50 -54t-46 -51l-90 82l12 15l15 16q-14 7 -17 10q-56 7 -86 31q-4 -8 -17.5 -18t-16.5 -17l-68 -100q-60 -83 -70 -101q-27 -42 -197 -243t-249 -291z" />
<glyph unicode="7" horiz-adv-x="901" d="M-14 504q0 53 37 100q10 13 131 84q16 9 38 22.5t36.5 22.5t19.5 12q17 16 69.5 96.5t69.5 123.5q17 50 39 221l-88 -62q1 37 0 75t16.5 77t53.5 57q12 4 22 4q25 0 88 -32l45 -23h211q50 58 72 64l8 2h18l9 -7q26 -10 57 -79l39 -82l-80 16l-2 -149q0 -8 6 -118t6 -153 q0 -62 -18 -178.5t-58 -196.5q-53 -106 -151 -161q42 -20 51 -90l8 -115q-15 13 -41.5 42.5t-46 44.5t-37.5 15q4 -47 -12 -133l-76 78l-16 -88q-54 48 -64 53h-28q-10 -30 -58 -78q-109 17 -167 54q-27 17 -51.5 44.5t-33.5 41.5t-14 24l-12 23q-14 0 -31 10q-31 25 -31 78 q0 23 11 41q-43 25 -43 110q0 35 16 54q-18 24 -18 55zM74.5 530q0.5 -9 4.5 -30.5t5 -28.5l233 195l-208 -291q3 -9 8 -22t11.5 -39t2.5 -35q106 137 260 352q-69 -227 -147 -338q-11 -15 -39.5 -50.5t-40.5 -52.5q2 -3 19 -25t33 -40.5t26 -24.5q16 -10 84 -30q1 1 9.5 6 t14.5 11t14 23.5t11 43.5q87 24 153 58.5t108.5 76t66.5 76t47 79.5q31 60 47 157t18 177q0 21 -1 55t-3 69t-4 66t-3 52l-1 20v2l2 148h-266q-21 12 -27 12q-15 -207 -41 -268q-8 -25 -49 -94.5t-74 -118.5l-270 -170q-4 -12 -3.5 -21zM526 1083q0 22 13 40t32 18 q21 0 37.5 -18.5t16.5 -39.5q0 -24 -16 -39.5t-38 -15.5q-18 0 -31.5 15.5t-13.5 39.5zM606 1004q9 26 15 49q24 36 30 39q0 -1 5 -6.5t11 -14.5t9 -18q5 -10 9 -22.5t5 -19.5l2 -7q-12 -7 -22 -19q-4 -3 -8.5 -10t-7.5 -13l-3 -6q-12 23 -22 29q-4 5 -9.5 10t-9.5 7z M674 1081q0 21 16 38.5t39 17.5q20 0 34.5 -17t14.5 -39q0 -26 -14 -41.5t-35 -15.5q-24 0 -39.5 15.5t-15.5 41.5z" />
<glyph unicode="8" horiz-adv-x="999" d="M39 420l53 106q62 -21 121 -73l41 -33q85 -66 160 -148q31 -36 71 -127q59 -128 78 -139q67 10 172 88q2 1 15.5 11.5t18.5 14t17 10.5t22 11t21 6q15 7 37 46l107 -50q-19 -39 -40.5 -63.5t-35 -31.5t-35.5 -15q-23 -3 -47 -27l-35 -33q-6 -4 -37.5 -22t-46 -25t-41 -19 t-49.5 -17t-45 -5q-32 0 -59 16t-49.5 49t-34.5 55.5t-31 62.5v2q-8 13 -29.5 60.5t-44.5 72.5q-50 60 -161 145q-7 5 -25.5 19t-29 21t-27 16.5t-31.5 15.5z" />
<glyph unicode="9" horiz-adv-x="1083" d="M-291 397l119 29q22 -104 92 -236q32 -59 82 -131q29 -40 55 -71l62 71q45 58 69.5 81t51.5 26l24 12q78 51 144 51q62 0 167 -69l35 -21q9 0 21 4q55 19 92 19q50 0 121 -22t108 -56l17 -14q46 -41 53 -45q22 -15 33 -15q17 0 116 53l95 56l2 2l166 90l59 -109l-164 -88 l-102 -61q-126 -66 -172 -66q-32 0 -67.5 17.5t-53 32t-49.5 43.5l-15 14q-17 15 -66 30t-81 15q-17 0 -57 -12q-39 -13 -62 -13q-30 0 -94 41q-74 51 -102 51q-23 0 -80 -32q-42 -26 -60 -29q-8 -7 -53 -63q-61 -73 -91.5 -100t-64.5 -27q-30 0 -62 24t-83 92 q-60 82 -102 160q-76 142 -103 266z" />
<glyph unicode=":" horiz-adv-x="364" />
<glyph unicode=";" horiz-adv-x="374" d="M-217 1053l67 34q20 31 64 46q0 7 -1 15.5t-1 10.5q0 55 53 90q76 50 163.5 80.5t207.5 59.5l6 -11q-11 -6 -71 -36t-99.5 -53t-77 -58t-37.5 -66q0 -29 35 -59q25 -12 81 -24t81 -25q36 0 93 -9.5t126.5 -24.5t93.5 -19v-15l-215 -2q19 -10 100 -59.5t105 -63.5l-6 -10 q-15 6 -61 26.5t-67.5 29t-59 21.5t-69 18t-63.5 5q-18 0 -70.5 -1t-66.5 -1q19 -34 74 -84q35 -30 252 -157l-4 -13q-126 28 -253.5 88t-205.5 136q-23 23 -23 55q-19 8 -39.5 23t-29.5 28z" />
<glyph unicode="=" horiz-adv-x="897" d="M-1157 -106q59 0 174 36q131 42 149 60q31 25 129 80q40 20 52 28q31 17 141 60q94 36 121 49l53 26q54 26 105 54q45 25 59 39q16 24 47.5 43.5t91.5 46.5l53 26q19 15 134 76q117 55 159 55q34 0 115 -45q103 -55 141 -55q57 0 103 8q54 6 57 6q20 0 43.5 -9 t36.5 -16.5t41 -25.5q30 -22 47 -28q32 -13 84 -48t78 -55l8 -6l102 -106l158 -144q59 -48 107 -78l217 -106l10 -6l252 -193l182 -131l-72 -100l-182 133h-2l-248 190l-215 105l-8 4q-1 1 -17 12t-33.5 23t-38.5 28.5t-34 28.5q-155 137 -160 145l-4 2l-98 103 q-89 67 -131 84q-24 8 -72 41q-40 29 -53 31l-35 -5q-67 -10 -123 -10q-74 0 -198 72l-58 29q-42 -14 -110 -48q-90 -44 -107 -57q-26 -19 -76 -41q-74 -33 -90 -49q-18 -27 -65 -56t-146 -77l-51 -25q-29 -15 -135 -55q-86 -30 -119 -49q-36 -22 -57 -33q-77 -40 -109 -65 q-47 -39 -192 -82q-142 -43 -211 -43v123z" />
<glyph unicode="@" horiz-adv-x="1837" d="M180 1079l152 78q16 51 68.5 85t99.5 34q81 0 123.5 -57.5t42.5 -135.5q0 -16 3.5 -31t10 -34.5t8.5 -26.5q138 -80 176 -108q126 -90 197 -231q7 -14 14 -29q25 -54 53 -95t64 -71t69 -50.5t85 -38.5t93.5 -29.5t112.5 -29.5q37 -9 56 -14l-62 -64q-8 -8 -12 -16 q-32 -41 -66 -47l-3 -1q-3 -1 -7 -1q-28 -12 -31 -19h-2q-25 -43 -69 -43h-13q-28 -1 -82.5 -10.5t-82.5 -9.5q-45 0 -82 51q-35 45 -101 45q-33 0 -79 -8t-50 -8q-4 -12 -4 -35q0 -38 17 -90q12 -6 40 -24t48 -27l-13 -25l-116 -8q-41 -9 -113 -41t-92 -39l-25 10 q17 20 80.5 62t91.5 67q4 24 4 37q0 18 -3 38.5t-9 51.5t-8 43q-43 13 -96 37q-2 -12 -2 -39q0 -42 18 -98q17 -8 44.5 -24.5t43.5 -24.5l-20 -25q-54 6 -78 6q-17 0 -25 -2q-37 -8 -105 -47.5t-102 -48.5l-28 14q18 21 81.5 68t88.5 70q12 37 12 82q0 40 -12 118 q-112 77 -177 190.5t-65 246.5q0 56 24.5 155t24.5 144q0 17 -3 22.5t-17 11.5zM367 1106q51 -4 79.5 -37.5t28.5 -71.5q0 -51 -21.5 -145t-21.5 -143q0 -95 32 -172t89.5 -130.5t129 -89t159.5 -57.5q12 1 85.5 6.5t112.5 5.5q20 0 37 -4.5t35.5 -19t25.5 -20t29 -29 t23 -25.5q23 1 74 12t73 11q13 0 19 12q12 18 36.5 31.5t45.5 13.5q-174 47 -260 100q-36 21 -60 43q-7 -55 -63 -61q-24 -6 -31 -10q-103 45 -233 86q-246 78 -246 227q0 45 26 96l84 -43q-20 -39 -20 -63q0 -36 29 -66.5t76.5 -52.5t93.5 -37.5t96.5 -30t68.5 -22.5 q13 2 30 14t22 31q-49 61 -78 133q-19 54 -48 96.5t-66.5 73t-71 52.5t-81 50.5t-77.5 51.5l-8 6l-3 10q-4 16 -11.5 79.5t-20.5 104.5t-39 58q-20 14 -47 14t-48 -11.5t-32 -25.5t-25.5 -29.5t-27.5 -21.5zM449 1110q2 19 16.5 34t34.5 15t35.5 -14.5t15.5 -34.5 q-1 -21 -16.5 -35t-34.5 -14q-20 0 -35.5 14.5t-15.5 34.5zM487 1108q0 -10 15 -10q12 0 12 10q0 12 -12 12t-15 -12z" />
<glyph unicode="A" horiz-adv-x="1241" d="M-164 -201q84 14 211 185q38 46 84 151q44 108 135 238q17 28 37.5 56t48 62t41.5 52q16 41 46.5 68.5t68.5 27.5q10 0 22.5 -2.5t31.5 -7.5t34 -8q19 -5 54 -10t63.5 -12t52.5 -19q29 -14 52.5 -45t41.5 -69t21 -42q31 -43 42.5 -75t18.5 -77q19 -67 23 -88 q3 -7 10 -29.5t17.5 -46.5t27.5 -51q8 -3 16 -7.5t14 -8.5t7 -4q49 -36 80 -70q15 -18 51 -43q57 -38 63 -41q100 -58 156 -127l-64 -88q-31 12 -45 31q-22 32 -108 80q-16 5 -74 45q-35 22 -65 61l-72 58q-39 13 -59 51q-43 57 -52 102q-27 59 -39 115q-4 14 -10 45.5 t-13.5 53.5t-21.5 40q-7 11 -20.5 39.5t-26 51.5t-22.5 28q-42 17 -121 27q-22 3 -78 14q-14 -29 -22 -37q-19 -28 -68 -90q-33 -33 -59 -78q-84 -126 -123 -217q-45 -108 -99 -178q-152 -202 -288 -232z" />
<glyph unicode="B" horiz-adv-x="1099" d="M-102 -186q20 14 82 36q33 12 43 19q82 41 180 102q4 18 12 35q32 94 92 111l76 12q20 4 31 4q148 174 174 211q21 35 55 35q15 0 35 -10.5t24 -22.5q63 27 84 27q17 0 33.5 -9.5t22.5 -16t20 -21.5l41 -56q30 -40 37 -47q22 -17 37 -61l6 -10q2 1 26 12.5t47.5 20 t39.5 8.5q15 0 37 -10t30 -23q50 -4 64 -10q17 -4 35.5 -19.5t27.5 -28.5l10 -14q7 -8 28 -43.5t28 -48.5l-111 -53q-2 6 -45 77l-12 13l-55 6q-25 6 -48 22q-78 -38 -120 -38q-21 0 -36.5 6t-26.5 19.5t-17 24.5t-15 31t-14 29q-20 18 -49.5 59.5t-36.5 49.5 q-56 -29 -82 -29q-20 0 -37 12q-4 -6 -59 -69q-48 -58 -73.5 -87.5t-33 -35.5t-14.5 -8q-15 -9 -70 -17q-27 -3 -55 -10q-22 -30 -35 -92q-43 -38 -59 -48l-2 -1q-17 -11 -93 -54t-79 -45l-53 -22q-30 -10 -56 -23z" />
<glyph unicode="C" horiz-adv-x="1249" d="M106 1317q24 29 61 29h9q142 -62 356 -211l41 -17q51 -23 79.5 -38.5t67.5 -43t58 -62.5t19 -77q0 -54 -43 -125q-26 -44 -33 -63q206 129 432 203.5t434 74.5q197 0 373 -43q7 -4 25 -8l28 -8l-6 -39q-6 1 -28 1q-42 0 -144 -3q-114 -4 -166 -4q-122 0 -229.5 -15 t-175 -32.5t-141 -52t-103.5 -53t-88 -56.5q-49 -33 -77 -49t-66.5 -29.5t-75.5 -13.5q-39 0 -62 18h-4q-57 41 -57 102q0 22 8 45t16 36t25 38q39 58 39 88q0 19 -10.5 36.5t-30 32t-35 24t-37.5 20.5q-69 28 -116 65q24 -96 24 -204q0 -66 -10.5 -141t-21 -121.5 t-31.5 -128.5q-62 -227 -62 -357q0 -179 164 -354q32 -18 53 -33q-29 -29 -35 -29q-4 -2 -18 -2q-1 0 -5 -1t-5 -1q-2 2 -4 2q-9 0 -21 4q-65 29 -123 101t-90.5 154.5t-32.5 150.5q0 66 11.5 141.5t23.5 125.5t35 132q68 235 68 361q0 72 -3.5 116t-21.5 98.5t-53 90.5 q-3 2 -14 10.5t-14 10.5t-12.5 9t-13 9.5t-12 8t-13 8t-12 6.5t-13 6.5t-13 5t-14.5 4.5l-6 2l-7 2q-7 3 -8.5 3.5t-7 3t-7.5 5t-6 7t-7 10.5t-5 14zM508 926q2 4 4.5 9.5t4 8.5t1.5 4q1 15 3.5 23.5t12.5 17t27 8.5q21 0 53 -20l4 -4q10 -17 10 -49q0 -8 -1 -17 q-17 -26 -68 -26l-12 6l-6 3q-6 3 -6 5h-21q6 22 -6 31z" />
<glyph unicode="D" horiz-adv-x="1230" d="M20 -51l515 715q-11 26 -11 49q0 18 12.5 32t30.5 19l-69 815l94 33l4 -23l18 4l64 -786h12q3 0 9 -1t8 -1l135 172l108 18l-20 -37h28l-167 -235q10 -23 10 -55q0 -31 -2 -39l413 -674v-59h-118l-273 469l49 -361l-241 -59l-127 12l51 27v96l192 33l-61 440 q-11 -8 -31 -8q-22 0 -49 12l-426 -600l-43 -8h-115z" />
<glyph unicode="E" horiz-adv-x="983" d="M-244 -365q28 126 103 267q40 74 102 159q51 68 83 92.5t62 24.5q34 0 64.5 -27t91.5 -100q45 -56 53 -63q17 -3 60 -29q59 -33 80 -33q28 0 102 51q64 41 94 41q26 0 62 -12q40 -12 57 -12q32 0 81.5 15t66.5 30l14 14q31 28 49 43t53.5 32t67.5 17q48 0 172 -65 l102 -62l164 -88l-59 -108l-166 90l-2 2q-45 26 -94 55q-101 54 -117 54q-10 0 -33 -15q-7 -4 -53 -45l-17 -14q-37 -34 -108 -56t-121 -22q-40 0 -92 18q-15 5 -21 5l-34 -21q-106 -70 -168 -70q-65 0 -144 52l-24 12q-27 3 -51.5 26t-69.5 80l-62 72q-20 -24 -55 -72 q-50 -72 -82 -131q-70 -133 -92 -235z" />
<glyph unicode="F" horiz-adv-x="952" d="M6 412l920 428l45 -103l-918 -428zM182 92q0 138 99 237t237 99t236 -99t98 -237q0 -137 -98 -235.5t-236 -98.5t-237 98.5t-99 235.5zM281 43q12 -58 48 -107t87 -75q-41 67 -49 182h-86zM281 143h86q8 115 53 185q-52 -26 -89.5 -76t-49.5 -109zM459 43 q7 -59 22.5 -111.5t36.5 -64.5q50 47 62 176h-121zM459 143h119q-20 155 -60 179q-51 -46 -59 -179zM618 326q44 -68 52 -183h82q-12 59 -47.5 108t-86.5 75zM621 -139q51 28 85.5 76.5t45.5 105.5h-80q-12 -116 -51 -182z" />
<glyph unicode="G" horiz-adv-x="1298" d="M63 866l5 4q76 58 219 58h6v-29q0 -37 10 -59l4 -13l-14 2q-76 13 -117 13q-23 0 -33 -2q63 -46 129 -78l13 -6l-13 -8q-32 -19 -53 -60l-6 -6l-6 4q-48 33 -87.5 79.5t-53.5 96.5zM207 588q0 69 46.5 120t115.5 60q-58 58 -58 135q0 73 52 126.5t126 53.5q53 0 97.5 -30 t68.5 -80q14 28 21 35q52 73 143 73q73 0 126.5 -53t53.5 -127t-61 -135q68 -9 115 -60.5t47 -119.5q0 -71 -52.5 -124.5t-127.5 -53.5q-54 0 -93 24q4 -12 4 -39q0 -74 -52 -127t-126 -53q-75 0 -127.5 53t-52.5 127q0 17 4 41q-35 -24 -92 -24q-71 0 -124.5 51.5 t-53.5 126.5zM274 262q0 64 25 141l2 9l8 -4q30 -15 70 -15h24l-8 -12q-42 -79 -57 -139q60 36 117 96l8 10l4 -12q8 -38 39 -72l6 -6l-6 -6q-38 -30 -96 -55t-121 -25q-15 41 -15 90zM276 594q0 -53 39.5 -90t94.5 -37q33 0 64.5 16t53.5 43l23 31l20 -16q-17 -22 -24 -37 q-23 -33 -23 -80q0 -58 37.5 -98.5t91.5 -40.5q53 0 91 40.5t38 98.5q0 45 -26 86q-2 5 -21 31q15 10 19 16l28 -35q39 -55 117 -55q52 0 91.5 35.5t39.5 89.5q0 56 -45 95.5t-106 39.5q-15 0 -35 -4l-37 -12l-8 24l41 15q41 14 68.5 52.5t27.5 84.5q0 49 -36.5 88t-88.5 39 q-68 0 -113 -60q-30 -45 -30 -84q0 -4 -1 -19t-1 -20h-23q-2 10 -2 43q-5 56 -45.5 98t-97.5 42q-52 0 -87.5 -35t-35.5 -88q0 -44 27 -85t71 -58l37 -13q-5 -11 -8 -24l-43 14q-10 2 -35 2q-57 0 -102.5 -38t-45.5 -95zM330 571q0 7 2 7l174 118l-2 -14q0 -17 8 -53 q10 -26 27 -49l10 -11l-211 -8q-8 0 -8 10zM449 940l2 4l4 4l4 2h4l166 -127l-15 -6q-23 -3 -47 -20q-21 -16 -39 -41l-8 -13zM524 1094l2 10q49 141 127 192q81 -56 129 -192l2 -10h-8q-42 -6 -74 -35l-10 -6l-2 12q-12 76 -37 147q-29 -81 -35 -147l-2 -12l-10 6 q-36 29 -74 35h-8zM537 674q0 46 34 82.5t82 36.5q47 0 83 -34t36 -85q0 -45 -34.5 -81t-82.5 -36q-47 0 -82.5 33.5t-35.5 83.5zM588 541q39 -15 65 -15q16 0 33 4t26 8l9 3l-59 -201v-2l-7 -2l-4 2l-6 2zM588 676q0 -25 19.5 -45.5t45.5 -20.5t46 18.5t20 45.5 q0 26 -18.5 46.5t-45.5 20.5q-26 0 -46.5 -19t-20.5 -46zM678 823l166 127q2 2 4 2q5 0 8 -3t2 -7l-72 -199l-8 15q-8 14 -37 39q-26 16 -49 22zM760 571l12 11q20 35 23 47q8 21 8 45v24l172 -118q4 -4 4 -7q0 -6 -8 -10zM795 258l6 6q29 33 41 72l4 12l8 -10 q62 -64 117 -96q-21 69 -58 139l-8 12h23q36 0 71 17l9 2l2 -9q22 -79 22 -141q0 -52 -12 -84l-2 -6q-106 0 -215 82zM999 827l7 13q8 24 8 82l-2 6h10q141 0 221 -62q-26 -98 -141 -180l-8 -4l-4 6q-25 41 -56 60l-10 8l12 6q75 37 127 78q-8 2 -33 2q-24 0 -118 -11z" />
<glyph unicode="H" horiz-adv-x="1167" d="M86 320q-4 23 -4 48q0 26 4 54q7 56 18 100.5t33.5 103t39 94.5t42.5 89q5 9 30.5 53.5t34.5 58.5t32 52t37 58t35.5 50t42 54t42.5 47q24 9 45 0l21 -11q17 -17 17 -43q0 -11 -3 -24q-7 -3 -11.5 -14t-9.5 -11q-6 -9 -31 -49.5t-33 -53.5t-29 -48t-31 -54.5t-25.5 -49.5 t-26.5 -56t-20 -53q-6 -35 -38 -110q-30 -69 -31 -109q0 -4 1 -7h8q100 106 216.5 193.5t261.5 175.5q25 13 52 13q44 0 95 -33q0 -11 5.5 -21t14 -21t11.5 -18q-5 -33 -34 -140t-32 -169l-8 -10q0 -39 -6 -49q43 4 123.5 23t97.5 22q39 6 124.5 30t135.5 29l6 -6 q-32 -50 -98 -92q-36 -38 -98 -74.5t-147 -77t-105 -51.5q-49 -8 -79 -8q-18 0 -29 3q-38 8 -58 36q-44 52 -62 94q-12 27 -12 62q0 19 4 40q31 121 31 148q-5 -9 -35.5 -66t-54.5 -82q-36 -108 -107 -211q-4 -4 -17.5 -18t-20 -20t-17.5 -15.5t-21.5 -15.5t-21.5 -10l-6 6 q-4 -6 -4 -17q-3 0 -4.5 1.5t-1.5 3.5v1q-33 -32 -87 -32q-49 0 -114 26q-38 39 -59.5 87t-28.5 94z" />
<glyph unicode="I" horiz-adv-x="409" d="M-59 516v121q48 0 117.5 -11t105.5 -34q8 -5 13.5 -9t11 -10t8 -9.5t8.5 -12t8 -12.5q14 -21 59 -21q10 38 39 61t66 23q23 0 82 -18l43 -6q20 0 51 -7l-29 -116l-39 4q-64 6 -98 24q-35 -86 -121 -86q-36 0 -74 17.5t-63 42.5q-7 7 -27 32q-14 7 -74 17q-54 10 -82 10 h-5z" />
<glyph unicode="J" horiz-adv-x="968" d="M-164 0l555 584l-88 82l88 79l43 -40v890l53 41l68 -49v-831l43 45l70 -88l-113 -119l647 -594h-162l-542 489l-318 -565l-69 -12l-50 33l199 344l-276 -289h-148z" />
<glyph unicode="K" horiz-adv-x="989" d="M14 -123l54 31l14 6q65 13 100 31q18 9 197 141l133 133q17 17 41 17q19 0 33 -7l129 -73q13 -13 71 -43q54 -31 54 -47q6 0 65 -9q82 -16 117 -80l2 -2q20 -11 86 -34l-39 -117q-24 8 -51 18q-58 21 -82 45q-15 12 -23 29l-6 10q-7 7 -28 11q-33 6 -43 6q-14 0 -35 6 q-33 8 -60 41q-8 11 -16 16q-51 26 -76 45l-86 49l-108 -108q-43 -34 -118 -89t-101 -67q-41 -21 -117 -41l-45 -24z" />
<glyph unicode="L" horiz-adv-x="972" d="M-123 913l436 -59l-161 225l221 60l-29 399l322 -373l401 -250l-309 -256l280 -659h-430v-59h-209v59h-309v106l150 132l-248 231l297 61zM186 768l332 -303l-289 -57l172 -166l-149 -131h622l-251 585l235 197l-278 174l-99 135l23 -147l-180 -45l204 -285z" />
<glyph unicode="M" horiz-adv-x="1413" d="M-23 0l717 1241l289 -498q4 8 4 13q4 4 6 11t2 12v5q4 0 14 7t17 15l8 7q10 -10 10 -16q-10 -12 -10 -33q0 -16 -16 -16q0 -6 -6 -12t-6 -9l-13 -2l13 -18q8 11 22 20q6 0 6 21q5 0 10 7t12.5 22t10.5 20q0 3 5 7t12 9.5t10 9.5q7 0 13.5 7t6.5 12q6 14 8.5 18t12.5 10 q4 0 12.5 10.5t11.5 10.5q4 4 6 5.5t3.5 3t2 3t0.5 3v5.5q8 0 19 9q0 7 10.5 17.5t18.5 10.5l6 8q-5 -16 -17 -16q-4 -4 -6 -11.5t-2 -12.5v-5q0 -5 -10 -15.5t-10 -16.5l-27 -25q-11 -11 -4 -11q10 -1 22 11q8 8 19 8q0 4 5 13t5 16q3 0 6 5.5t6 13t7 10.5q16 20 30 20 q9 8 19 8q3 4 18 14.5t19 18.5q30 4 38 4q5 0 15 6t14 6q0 4 7.5 9.5t11.5 11.5l10 6q7 7 17 11.5t12 6.5q5 0 10.5 9t9.5 12q10 13 39 31q10 0 15 -1.5t4 -5t-3 -6t-6 -6.5q-19 0 -31 -12q-5 0 -11.5 -11t-6.5 -16t-2.5 -9.5t-5.5 -6.5l-2 -2q-4 -5 -8.5 -8t-6.5 -4h-2 q0 -6 -12 -13.5t-20 -7.5q-8 -4 -19 -4q-4 -6 -8.5 -10t-11 -7t-9.5 -6q0 -10 -18 -10q-3 -2 -7 -4.5t-6.5 -4t-4.5 -3.5t-2 -6q-9 0 -9 -19q1 -10 9 -20q5 0 15 5t15 5q4 0 6 2.5t2 4.5v3q0 8 11 19q10 10 10 28q4 4 8.5 4t7.5 -2l2 -2q0 -4 -2.5 -8.5t-5.5 -7.5l-2 -2 q-8 -10 -8 -29q-4 0 -7 -2.5t-6.5 -8t-7.5 -9.5q0 -7 -4 -16.5t-4 -12.5q-10 -8 -20 -26q0 -6 -9.5 -12t-9.5 -11l-20 -16q-5 -7 -14.5 -12.5t-12.5 -8.5q-8 -4 -17.5 -10t-14 -8t-9.5 -2q-4 -4 -28 -47q2 -6 11 -3t17 9q41 12 49 20q18 0 29 13q28 23 49 36q14 8 20.5 2 t7.5 -9.5t1 -12.5q-21 0 -29 -8q-11 0 -18.5 -4t-11.5 -4q-9 -13 -19 -21q-15 -18 -29 -18q-19 0 -30 -11q-3 -3 -8 -13t-11 -13l-8 -13q-2 -2 -11.5 -13.5t-17 -18t-12.5 -6.5q0 -11 -16 -11l-29 -28q-11 -9 -20 -9q0 -3 -7 -10l330 -563h-694l-4 -6q0 -12 -6 -19t-6 -8 q-9 0 -9 -20q9 -14 9 -31q0 -4 -4.5 -8.5t-9.5 -7.5l-5 -2q-6 0 -6 -19q-12 -19 -12 -29q-4 0 -6 -5t-2 -10v-5v-29q-13 -12 -13 -16q-8 -33 -18 -33l-8 -45q0 -9 -19 -41v-28l-12 -19l-29 -88v37q0 15 -1 17.5t-7 2.5v23q0 6 -6.5 6t-13.5 -6q-3 0 -5 -2q5 -20 5 -21l-5 9 q-2 9 0 12l-6 29q-2 4 -5.5 3t-5.5 -3t-5 -6l-2 -3q0 19 -8 29q0 8 -3 3q-2 -3 -8 -13q0 5 -4 14t-4 14v37l8 60q19 23 19 57q0 21 10 31v30q4 3 9 17t10 20q0 6 6.5 23.5t13.5 21.5q0 7 10 27h-588zM176 115h434q4 6 21 6q10 8 10 29l8 36q0 10 21 31q18 15 18 37 q10 19 19 31l12 10q4 4 8.5 12.5t6.5 15.5l3 7l11 12q8 29 20 37q10 20 29 39q16 20 16 41q21 18 21 28q4 3 14 18.5t16 20.5q25 27 25 35l22 21q0 16 13 32l-232 404zM788 115h422l-200 350q-4 -4 -4 -6l-29 -31q0 -24 -19 -37q-11 0 -28 -31q-19 -15 -19 -30 q0 -19 -22 -27q-3 -4 -12.5 -24.5t-12.5 -24.5q0 -27 -22 -45q0 -7 -9.5 -21t-9.5 -18q-10 0 -10 -20q-8 -13 -16 -21q-5 0 -9 -14zM1044 698q0 -4 5.5 -4t14.5 2t11 2q10 11 10 17h19q5 6 5 16.5t5 16.5q8 8 -10 16q-8 0 -18.5 -10t-10.5 -19zM1143 641q0 -8 10 -8v8h-10z M1227 958q10 8 10 23q8 0 11 -0.5t6 -3.5t3 -10q0 -9 -30 -9zM1276 1006q10 12 20 12q8 0 15 1.5t11 2.5l3 2l10 12q29 21 37 21v-21q-4 0 -8.5 -3t-7.5 -6l-2 -3q0 -5 -6.5 -11.5t-12.5 -6.5q-20 -9 -30 -9q-1 0 -10 -2t-14 0t-5 11z" />
<glyph unicode="N" horiz-adv-x="1187" d="M111 459v94v5t4.5 11t13 14t27.5 11t45 6q319 -10 434 -10q31 0 31 6q0 8 -4 10l-95 94q-19 22 -32 87t-13 102q0 15 7.5 26t21 17t28 9.5t34 4.5t33 1t30.5 -0.5t22 -0.5q293 0 447 -86q-23 -1 -70 -26q-17 -6 -47 -14t-123.5 -22t-187.5 -14q-25 6 -25 -8 q0 -19 28.5 -58.5t62.5 -78.5t62.5 -87.5t28.5 -84.5q0 -43 -73 -45q-126 -4 -226 -4q-3 0 -31 0.5t-45.5 0t-43.5 -1.5t-45 -4.5t-31 -9.5q11 -7 29.5 -18.5t68 -49.5t90 -76.5t79.5 -94t52 -107.5q-9 8 -26 22t-73.5 55.5t-117 81t-152.5 91.5t-184 94q-4 2 -9.5 6t-15 19 t-9.5 33z" />
<glyph unicode="O" horiz-adv-x="1290" d="M-106 0v385l305 190v232l229 115v120l115 37v68l164 108l163 -108v-68l115 -37v-120l227 -115v-232l308 -190v-383h-674v303h-281v-305h-671zM-6 92h471v314h481v-314h473v238l-305 190v228l-229 112v109l-115 39v86l-63 41l-66 -41v-86l-113 -39v-109l-229 -112v-228 l-305 -190v-238zM446 539v168h3q2 19 14.5 32t32.5 13q22 0 36.5 -15t14.5 -35v-8v-155h-101zM655 539v264q0 20 15 34.5t35 14.5t33.5 -14.5t13.5 -34.5h2v-264h-99zM864 539v168q0 20 14.5 34.5t36.5 14.5q21 0 35.5 -14t14.5 -35v-168h-101z" />
<glyph unicode="P" horiz-adv-x="1089" d="M29 1034l1040 226l-457 -1127zM217 909l47 -73l156 -9zM244 989l178 -71l-107 86zM317 756l246 -379l21 366zM424 1028l203 -180l243 276zM651 469l92 225l-79 33zM705 803l69 -29l92 227z" />
<glyph unicode="Q" horiz-adv-x="1290" d="M27 1114v66h65q90 0 166 -24t133.5 -68.5t97.5 -90.5t80 -108l56 -86l41 110q28 71 54 121t65.5 102t93 79.5t118.5 27.5q89 0 159.5 -54.5t100.5 -182.5q-108 -7 -145 -77q-24 -44 -37 -170q0 -6 -2 -20v-4q-6 -67 -36.5 -146t-79.5 -155t-122 -136.5t-155 -84.5v-213 h-123v209q-112 37 -204.5 124t-144.5 199.5t-52 223.5q0 73 -13.5 124t-32.5 77.5t-37.5 47.5t-32 47t-13.5 62zM156 1077q70 -96 95 -156t28 -165q2 -98 42.5 -192.5t112.5 -162.5t158 -84h94q49 22 89.5 55t69 68t52.5 84.5t38 89t27.5 97.5t20 95t15.5 96q2 11 3 17.5 t2.5 15.5t2.5 17q-69 0 -101 19q-22 12 -39 33t-20 45q-47 -68 -73.5 -122.5t-66 -156t-75.5 -182.5l-125 205q-165 266 -350 284zM940 1079q0 -17 14.5 -32t36.5 -15q26 0 42 13.5t16 35.5q0 23 -16 40.5t-40 17.5q-28 0 -40.5 -20.5t-12.5 -39.5z" />
<glyph unicode="R" horiz-adv-x="1130" d="M33 748q5 15 22.5 34.5t87.5 83.5l25 25q21 26 35.5 42t46.5 45t69 44.5t76 15.5q150 0 234 -67q32 -22 76 -45q18 -9 36 -21q41 -24 95 -78q153 -96 206 -114q49 -16 132 -82q49 -39 59 -41l-35 -119q-30 9 -100 64q-58 47 -97 63q-61 21 -237 131l-8 6q-71 61 -78 66 l-31 16q-55 26 -92 57q-55 41 -160 41q-50 0 -131 -102l-39 -37q-7 -7 -27.5 -26.5t-36.5 -35t-20 -20.5z" />
<glyph unicode="S" horiz-adv-x="1161" d="M-41 637l115 90l145 37q24 5 113 29q0 232 -10 389l-7 84l138 -43l8 -33q8 -46 22 -105q20 -83 55.5 -143t69.5 -84q40 175 99 711h26l84 -504q17 28 33 58.5t26 54t18 43t12 30.5l5 11l88 211l21 -228l47 -565l25 -18l38 -29l-49 -90q11 -61 28 -144.5t46.5 -201.5 t52.5 -172l33 -78h-201l-16 28q-41 71 -69 116t-68.5 104t-83.5 106t-90 84l-17 -18q-1 0 -2 -2.5t-3 -8.5t-4.5 -14t-7 -23t-9.5 -32t-13.5 -44t-17.5 -57q-8 -23 -21 -78t-14 -59h-100l74 391q-33 -54 -35 -59q-5 -14 -45 -88.5t-45 -95.5l-45 -228l-9 -47h-116l6 62 l8 108q8 107 17.5 248t13.5 213l-187 47zM225 674q55 -13 105 -23q0 8 1 24.5t1 24.5q-17 -3 -55.5 -13t-51.5 -13zM416 334q75 188 133 266q136 -48 199 -92q91 -60 161 -147.5t144 -210.5q-43 161 -76 339l-51 -6l-15 113l74 8q-91 74 -111 94l70 82l-24 283 q-57 -93 -148 -180q-90 -87 -194 -125q-8 10 -45 49.5t-66.5 75.5t-32.5 51q0 -299 -4 -369q-1 -9 -3 -53.5t-5 -94t-6 -83.5zM705 922l40 43l-18 184z" />
<glyph unicode="T" horiz-adv-x="1064" d="M45 340l51 111l49 -27l78 -4q26 -26 39 -29q43 -2 117 -55q10 -10 18 -14q24 -8 43 -27l15 12q126 118 141 156l47 98q81 171 86 201q11 57 51 196q49 170 78 199q36 34 75 34q12 0 25 -3q12 8 25 8q7 1 13 1q36 0 53 -26q14 -14 18 -34q3 -12 12 -27l113 -168l10 -27 q2 -6 37 -34l-82 -82q-58 14 -74 86l-102 153q-1 0 -3 -1t-3 -1q-20 -3 -39 6q-14 -39 -41 -129q-16 -52 -45 -170q-7 -43 -96 -233l-43 -94q-26 -62 -113 -142q19 -8 37 -8q47 0 133 -71q11 -11 12 -13q26 -11 115 -98l201 -190l145 -82l-61 -107l-150 86l-92 82l-127 123 l-84 78q-8 3 -39 26q-46 38 -57 43q-33 0 -103 27l-16 6q-54 -12 -82 -12q-39 0 -72 39q-19 8 -53 33q-31 26 -49 32q-37 0 -84 33q-14 -4 -29 -4q-28 0 -98 43z" />
<glyph unicode="U" horiz-adv-x="1085" d="M195 848q-1 9 1 16.5t9.5 15.5t11 12t15.5 13t14 10q245 142 455 142h14q4 -2 23 -7t27 -11.5t11 -18.5q8 -18 2 -42t-20 -40q-2 -16 -19.5 -29.5t-17.5 -25.5q-18 -13 -46 -42.5t-44 -41.5q-16 -22 -45.5 -50.5t-34.5 -33.5q-8 -12 -35.5 -30.5t-34.5 -35.5 q-97 -78 -123 -104q28 5 79 21.5t73 21.5q36 7 69 6q89 0 154 -49q20 -42 20.5 -74.5t-20.5 -56.5q-6 -7 -29.5 -49t-44.5 -58q-3 -5 -10.5 -17t-11.5 -19t-10.5 -16t-13.5 -16t-15 -12q-5 -10 -12.5 -19.5t-12.5 -14.5t-17 -16t-17 -15q-10 2 -22.5 -8t-22.5 -9v9 q49 60 78 99t62 97t48 111q7 22 -6 49q-12 1 -25 1q-25 0 -51 -5q-40 -8 -87 -24t-73 -21q-3 -7 -8 -10t-15.5 -4.5t-13.5 -2.5q-11 -3 -37 -12.5t-41 -14t-36.5 -10t-38.5 -6.5q-8 3 -16 1.5t-15.5 0.5t-9.5 11q-20 37 -20 69q0 34 22 62q2 3 10 13t10 17v-2 q173 223 433 406l12 14h-14q-32 0 -63 -7q-38 -9 -92 -29.5t-73 -26.5q-7 -9 -26.5 -14.5t-26.5 -14.5q-36 -12 -154 -70q-3 0 -8 0.5t-7.5 1t-6.5 2t-6 5t-4 8.5z" />
<glyph unicode="V" horiz-adv-x="1241" d="M41 1339q-7 32 -7 62.5t7 58.5q102 -38 214.5 -57.5t206.5 -23.5q30 -1 63 -1q70 0 153 6q122 8 206 18.5t215.5 28.5t207.5 27v-123l-729 -75q-56 -61 -55.5 -136.5t55.5 -165.5q-30 6 -61.5 6t-65.5 -6q-49 95 -49 183q0 64 26 123zM213 778q0 36 25 61t63 25 q37 0 63.5 -25.5t26.5 -60.5q0 -37 -26.5 -63.5t-63.5 -26.5q-38 0 -63 26.5t-25 63.5zM295 532q0 37 26.5 63t63.5 26q38 0 63 -26t25 -63t-25 -63.5t-63 -26.5q-37 0 -63.5 26.5t-26.5 63.5zM430 291q0 38 26.5 64t63.5 26q38 0 64 -26t26 -64q0 -37 -26 -63.5t-64 -26.5 q-37 0 -63.5 26.5t-26.5 63.5zM444 778q0 35 27 60.5t64 25.5t62.5 -25.5t25.5 -60.5q0 -37 -25.5 -63.5t-62.5 -26.5t-64 26.5t-27 63.5zM528 532q0 37 26.5 63t63.5 26t64 -26t27 -63t-27 -63.5t-64 -26.5t-63.5 26.5t-26.5 63.5zM537 51q0 37 25.5 63.5t62.5 26.5 t63.5 -26.5t26.5 -63.5q0 -38 -26.5 -63t-63.5 -25t-62.5 25t-25.5 63zM666 291q0 38 25.5 64t62.5 26q36 0 62 -26t26 -64q0 -37 -26.5 -63.5t-61.5 -26.5q-37 0 -62.5 26.5t-25.5 63.5zM676 778q0 35 26.5 60.5t63.5 25.5q38 0 64 -25t26 -61q0 -37 -26 -63.5t-64 -26.5 q-37 0 -63.5 26.5t-26.5 63.5zM762 532q0 37 25.5 63t62.5 26q36 0 62 -26.5t26 -62.5q0 -37 -26.5 -63.5t-61.5 -26.5q-37 0 -62.5 26.5t-25.5 63.5zM911 778q0 36 25 61t63 25q35 0 61.5 -25.5t26.5 -60.5q0 -37 -26.5 -63.5t-61.5 -26.5q-38 0 -63 26.5t-25 63.5z" />
<glyph unicode="W" horiz-adv-x="1888" d="M82 766q0 52 33.5 92t82 62t111 36t111 18.5t92.5 4.5q1 -9 11 -97.5t21.5 -135t28.5 -46.5q10 0 23.5 4t35.5 14t25 11q9 71 25 119q10 33 33 63q31 39 78 39q14 0 30 -8q128 86 252 86q112 0 175 -68t83 -180q180 160 180 318q0 88 -22.5 158.5t-87.5 207.5 q62 16 130.5 30t138 27t89.5 17q-3 -31 -14 -144t-16 -183.5t-5 -139.5q0 -371 15 -530q4 -48 14.5 -122.5t22.5 -147t23 -137.5t18.5 -106t7.5 -42l10 -56l-115 -18l-96 27l-12 26q-6 14 -32.5 77.5t-47 109t-50.5 103.5t-60.5 97t-59.5 54q-17 -313 -35 -383l-8 -39 q-51 -7 -72 -7q-23 0 -63 5q-27 -47 -96 -62l-62 43v29q0 21 4 108t15 220.5t26 205.5q-81 73 -131 101q-26 -4 -55 -19q-18 -140 -33 -555l-2 -47l-88 -12l-53 37v370q-40 40 -49 56q-34 -11 -46 -23q-4 -4 -14.5 -17.5t-31 -49.5t-37.5 -77t-30.5 -103t-13.5 -126v-45 l-161 -24h-156l27 74q6 15 56 147.5t56 148.5q20 50 33 113q-111 43 -186.5 116.5t-75.5 174.5zM190 758q0 -21 6 -40.5t19.5 -35.5t26.5 -29t36.5 -26t39.5 -21.5t46 -19t45 -16t46 -15.5l-2 -43q-1 -31 -18.5 -97t-31.5 -96q-3 -8 -13.5 -42.5t-27 -84.5t-30.5 -90l61 9 q9 129 66 249q38 85 88 148q27 32 70 48.5t79 16.5l70 -71q2 18 2 55l8 70q8 55 35 69q20 11 64 26t75 15q51 0 130 -64.5t116 -115.5l-8 -31q-2 -2 -2 -4l-33 -444l74 2q2 25 17 196.5t16 196.5l2 39l65 4q58 0 115.5 -49.5t111 -143.5t82 -153t68.5 -154q4 -9 6 -14 q-17 90 -40 259.5t-30 268.5q-24 300 -24 494q-32 -121 -122 -233.5t-226 -186.5q-23 159 -43 211q-35 90 -116 103q-16 2 -34 2q-42 0 -91.5 -19.5t-81 -39t-81.5 -54.5l-24 27q-14 -21 -20.5 -48t-10 -65t-6.5 -53q-34 -27 -89 -51.5t-98 -24.5q-29 0 -53 10.5t-41 31 t-24.5 32t-18.5 32.5q-4 28 -9 83t-9 83q-26 -3 -58 -9.5t-74 -19t-69 -33t-27 -44.5zM1561 1391q46 -99 59 -209q8 139 16 221q-46 -12 -75 -12z" />
<glyph unicode="X" horiz-adv-x="1265" d="M-123 334l199 237l12 13q27 31 45.5 49.5t50 37.5t60.5 21h4q44 0 117 -47l34 -20h2q43 61 109 61h4q69 -2 178 -78l107 -69l16 -15l49 -63l105 -17l24 -10l78 -53l55 16q14 5 33 5q39 0 101 -19q37 -14 55 -14l8 -123h-8q-26 0 -92 20q-7 1 -20 5t-24 7t-16 3 q-83 -27 -86 -27l-51 8l-90 64l-115 16l-39 23l-59 75l-98 66l-4 2q-25 20 -58.5 37.5t-52.5 17.5l-12 -12q-37 -53 -88 -53h-9q-39 2 -104 45q-31 21 -47 26q-1 -1 -4 -3l-9 -6t-12 -9q-31 -31 -45 -49l-12 -13q-16 -18 -65 -76t-90.5 -108t-41.5 -51z" />
<glyph unicode="Y" horiz-adv-x="1097" d="M-152 428q35 23 105 102.5t108 133.5q11 16 41 92q26 62 35 80q37 67 86 67q37 0 74 -22l18 20q67 76 109 84l31 33q26 29 39 42t38 27.5t50 14.5q20 0 38.5 -9t37.5 -30.5t29.5 -35.5t31.5 -46q22 -41 35 -53q20 -10 38.5 -28.5t53.5 -61.5q31 -41 51 -60q24 -4 70 -47 q12 -11 73 -76q22 -23 45 -49.5t37 -42.5l13 -16l2 -4q160 -224 196 -254l-6 4l-47 -113q-26 10 -70 66q-3 4 -75 94l-97 129q-131 159 -176 190q-17 5 -36.5 21t-32.5 30.5t-41 49.5q-47 53 -52 57q-16 7 -31.5 23t-24.5 28.5t-30 44.5q-19 34 -36 56l-31 -33 q-58 -66 -94 -72q-14 -9 -42.5 -40t-52.5 -64l-90 -8q-22 16 -26 18l-25 -61q-41 -93 -55 -115q-43 -60 -120.5 -148.5t-127.5 -119.5zM1333 289h2h-2z" />
<glyph unicode="Z" horiz-adv-x="1122" d="M0 377v123q21 0 104 18q87 17 105 17q21 5 65 47q53 50 62 71l18 37q23 52 41 84q39 70 88 70q25 0 50 -20t69 -76l55 -76l95 -115l114 -123q13 0 17 2q22 11 41 8q36 -5 80 -57q24 -27 40 -55l5 -8q68 -122 135 -134l-27 -120q-41 9 -78 33t-66.5 60.5t-41 52.5 t-29.5 46q0 1 -1 3t-1 3l-14 18q-15 19 -23 29q-16 -4 -29 -4q-61 0 -88 27l-127 137l-2 4l-96 117l-2 4q-45 61 -70 90l-24 -53l-19 -39q-30 -58 -96 -113q-79 -73 -137 -73q-24 0 -82 -15q-90 -20 -131 -20z" />
<glyph unicode="_" horiz-adv-x="1024" d="M-387 1415v33q807 67 1128 -657q143 55 441.5 64t689.5 -36v-28q-13 0 -35.5 -1.5t-92.5 -7t-140 -14t-167.5 -25t-184.5 -36.5t-182.5 -52t-171 -69t-139 -89t-97.5 -112q-21 80 -39 142t-49 145.5t-63.5 149t-81.5 142t-103.5 134.5t-129 115.5t-159 97t-193 67.5 t-231.5 37z" />
<glyph unicode="a" d="M-324 137v123q22 2 154 45q212 66 258 66q31 0 75 24.5t56 40.5q21 35 76 72q59 42 113 45q3 2 71 55q43 37 66 55.5t60.5 38t68.5 19.5q40 0 82.5 -14.5t66.5 -28.5t64 -41q36 -24 58 -37.5t54 -25t62 -11.5v-123q-47 0 -94.5 16t-76 32.5t-71.5 46.5q-4 2 -17 10.5 t-17.5 11t-15.5 9.5t-16.5 9t-15 7t-16 7t-15 4.5t-16.5 3.5t-16 1t-41 -23q-11 -7 -23.5 -17t-27.5 -22.5t-23 -19.5q-39 -33 -55 -46t-42 -26.5t-48 -13.5q-14 0 -47 -22q-20 -12 -45 -37q-24 -38 -96 -80.5t-138 -42.5q-23 0 -221 -60q-156 -51 -191 -51z" />
<glyph unicode="b" horiz-adv-x="905" d="M-317 158q5 7 17 18.5t44.5 26t71.5 14.5q7 0 32 14q28 15 58 39q48 32 63 37q59 20 137 55l19 9q120 59 162 61q10 5 35 25q71 51 112 51q23 0 39 8q4 4 4 6q56 78 131 78q40 0 105 -25q58 -20 82 -20q54 0 168 -43q74 -24 84 -25q63 -9 153 -47l12 -6q18 -5 78 -28 l-49 -115q-50 22 -59 24l-29 11q-78 35 -121 39q-27 3 -112 32q-94 35 -125 35q-47 0 -127 29q-37 16 -60 16q-10 0 -30 -26q-20 -29 -37 -39q-52 -25 -103 -27q-16 -6 -43 -29q-23 -16 -33.5 -23t-30 -15t-36.5 -9q-25 -4 -117 -49l-20 -10q-72 -32 -148 -57l-33 -23 q-98 -76 -161 -76q-17 0 -33 -8l-4 -4z" />
<glyph unicode="c" horiz-adv-x="860" d="M-14 406q8 25 28 71l9 15q1 3 4 9.5t5 11.5t3 9q11 42 45 96l10 21l7 14l18 39q1 2 6.5 12.5t6.5 12t5.5 10.5t7 11.5t7.5 9.5t9 10t10 8.5t13 9.5t15 8q19 6 33 12.5t16 6.5q12 3 20.5 9.5t14 17t9 19.5t8 23.5t7.5 22.5q10 39 10 47q4 8 4 10q11 28 25 52l14 26v14 q7 50 54 82q32 18 59 15q20 33 45 33q32 0 66 -39l24 -27q85 -89 105 -158q3 -10 6.5 -22.5t5.5 -19.5t2 -9q10 -43 22 -55q6 -6 21 -6q36 0 84 6l57 -125q-8 4 -35 4q-17 1 -42 -1q-64 -4 -68 -5q-65 0 -104.5 46.5t-53.5 113.5l-10 41q-10 37 -76 110q-7 -2 -17.5 -2.5 t-13.5 -1.5q-1 0 -5.5 -1t-6.5 -1q0 -3 -1 -7.5t-2.5 -11t-2.5 -10.5q-3 -11 -25 -49q-7 -14 -16 -53q-18 -67 -43 -123q-13 -28 -33.5 -46t-35 -23.5t-37.5 -10.5q-24 -8 -29 -10q-11 -6 -25 -39l-32 -61q-31 -48 -41 -84q-6 -29 -29 -72q-21 -35 -21 -45l-114 29h-2z" />
<glyph unicode="d" horiz-adv-x="925" d="M-227 260v123q22 0 94 33q46 18 70 27t69 19.5t82 10.5q41 0 191 64q52 24 82.5 36t71.5 23.5t73 11.5q11 0 22 -0.5t22.5 -3t20 -4t20.5 -5t18.5 -5.5t19.5 -7t17.5 -6.5t18.5 -7t17 -6.5q87 -35 125 -35q42 0 92 13q75 12 96 12v-123q-32 0 -65 -10q-63 -14 -123 -14 q-67 0 -172 43q-90 36 -129 36q-45 0 -178 -61q-164 -74 -240 -74q-57 0 -174 -49q-94 -41 -141 -41z" />
<glyph unicode="e" horiz-adv-x="890" d="M74 422v123q22 0 76 -13l18 -6q4 4 4 6q12 18 19 26t23.5 19t35.5 11q17 0 45 -8q3 0 17 -3.5t20 -3.5q4 0 7.5 1t8 2t8.5 2q12 4 23 4l10 10q58 63 109 63q35 0 82 -14q12 -4 16 -4q27 0 72 -31q8 -6 21 -17.5t16 -13.5q2 -2 20 -26q0 -2 6 -8l49 -15q16 -8 25 -8v-123 q-21 0 -66 15q-16 8 -24 8q-54 0 -94 65q0 1 -5 6q-30 24 -32 25q-14 2 -37 10q-4 1 -19.5 4.5t-23.5 3.5q-11 -6 -25 -24q-41 -47 -80 -47q-8 0 -14 -2q-24 -8 -53 -8q-28 0 -60 8q-40 -58 -88 -58q-13 0 -67 13q-6 1 -22.5 4.5t-20.5 3.5z" />
<glyph unicode="f" horiz-adv-x="645" d="M-61 313q41 51 61 156.5t20 196.5q0 10 -1 30t-1 29q0 34 5.5 64.5t18 58.5t36.5 44.5t57 16.5q27 0 52 -17.5t32.5 -28t20.5 -29.5q23 -45 49 -111q32 -74 49 -107q21 -41 37 -49q32 -17 65 -53t82 -98q33 -42 53 -66t52.5 -60t59.5 -53.5t48 -17.5v-123q-42 0 -84 20 t-84 61t-70 74t-71 89q-84 107 -109 119q-24 12 -44 33t-39 57.5t-28.5 57t-29.5 69.5q-22 53 -35 78q-1 -16 0.5 -54t1.5 -67q0 -77 -30 -203q-39 -169 -101 -215z" />
<glyph unicode="g" horiz-adv-x="839" d="M-102 555q112 133 125 170q5 32 20 87t20 67q27 21 51.5 38t36.5 24.5t15 10.5q13 20 43 98t65 128.5t82 50.5q31 0 60 -24t67 -81q30 -42 49 -80q10 -14 51 -78t52 -83q10 -16 22 -56q1 -3 6 -18.5t9 -22.5q21 0 71 -12q69 -18 86 -53q6 -16 11 -47.5t10 -44.5 q59 -20 78 -31q26 -18 36.5 -65.5t14.5 -55.5l-80 -90q-18 17 -35.5 56t-17.5 59q-22 4 -53 16q-58 29 -74 135q-39 13 -66 13q-31 0 -53 17.5t-31 37t-21 53t-18 45.5l-102 162q-34 57 -66 102q-32 -48 -88 -190q-11 -26 -41.5 -48t-60.5 -30q-24 -76 -29 -108 q-4 -45 -84 -148q-15 -19 -32.5 -40t-27 -32t-9.5 -12z" />
<glyph unicode="h" horiz-adv-x="839" d="M-82 420l127 129l84 4q29 -24 69.5 -45t69.5 -21q64 0 219 41q54 41 105 72q134 88 194 88q68 0 109 -41q-8 4 -14 4v-123q-34 0 -70 29l-6 6q-1 0 -3 0.5t-6.5 1t-9.5 0.5q-26 0 -131 -69l-104 -74l-21 -10q-1 0 -25.5 -6t-51.5 -12.5t-61 -13t-67 -11t-57 -4.5 q-75 0 -172 61l-92 -92z" />
<glyph unicode="i" horiz-adv-x="358" d="M-164 207q43 21 53 31q60 37 78 45q49 29 90 37t107 8l15 1q15 1 38 1q67 0 94 -19q20 -15 37 -45q33 -45 78 -82t66 -37l4 -118q-69 0 -143.5 56.5t-112.5 121.5h-76q-53 0 -80.5 -5t-54.5 -22l-103 -63q-27 -15 -49 -15z" />
<glyph unicode="j" horiz-adv-x="358" d="M-358 438q19 6 72.5 44t76.5 61l31 35q28 32 38.5 43.5t31 27t38.5 19.5q4 3 15 13.5t16 14.5q36 36 61.5 54t53.5 18q25 0 45 -10l2 2q27 23 40 33t35.5 21t41.5 11q7 0 13.5 -1t14 -4t12.5 -5.5t13.5 -8.5t12.5 -9t13.5 -11.5t13 -12l14.5 -14.5t15 -14q31 -31 46 -43 q7 -1 14.5 -3.5t13 -5.5t13 -8.5t11.5 -9t12.5 -11.5t11.5 -11t12 -13t12 -13l22 -23q28 -9 48 -39l6 -6q-12 6 -21 6v-123q-42 0 -82 47q-19 8 -63 56q-3 3 -11.5 12t-15 15.5t-10.5 9.5q-39 9 -105 75l-38 37l-35 -26q-21 -18 -30.5 -26t-24 -14.5t-29.5 -6.5 q-24 0 -43 16l-29 -29q-53 -53 -86 -59l-47 -51q-17 -24 -35 -39q-37 -40 -104 -84l-58 -37q-44 -21 -63 -21v123z" />
<glyph unicode="k" horiz-adv-x="813" d="M-109 309h5h-5zM-104 309q15 7 28 25q42 33 66 39l22 26q47 51 70 60q35 59 98 59q17 0 45 8q33 11 47 11q5 0 50 10q92 18 116 18q9 0 39 13q45 18 80 18q36 0 88 -10t90 -25q3 -2 11.5 -5t11.5 -5q41 -14 49 -14q48 0 70 -52q4 -8 14 -43q13 -52 22 -67q9 -13 17 -13 v-122q-79 0 -121 73q-25 39 -37 97q-2 4 -2 8q-14 3 -57 20q-21 7 -23 8q-71 27 -133 27q-14 0 -37 -10q-52 -21 -82 -21q-32 0 -90 -16q-56 -12 -74 -12q-1 -1 -4.5 -2t-5.5 -2q-40 -15 -78 -15q0 -1 -1 -2t-1 -2q-12 -18 -16 -22q-16 -20 -37 -23l-27 -29q-43 -46 -62 -55 q-8 -4 -17 -6l-21 -16q-60 -52 -100 -52v123q-6 0 -8 -2z" />
<glyph unicode="l" horiz-adv-x="358" d="M-84 463l10 121q28 -4 35 -4q21 0 29 15.5t14 45.5q0 2 2 9t5.5 19.5t6.5 22.5q20 69 105 158l37 43q22 22 55 22q19 0 41 -30q51 -11 61 -17q47 -32 54 -82v-14q35 -64 43 -88q0 -8 10 -47q3 -8 7.5 -22.5t8 -23.5t9 -19.5t14 -17t20.5 -9.5q2 0 16 -6.5t33 -12.5 l-55 -106l-26 8q-26 7 -40 12.5t-35 23.5t-34 46q-25 56 -43 123l-8 29q0 12 -8 24q-22 38 -25 49q-1 4 -2.5 10.5t-2.5 11t-1 7.5q-22 0 -43 6l-6 -8q-59 -63 -70 -103l-10 -41q-14 -67 -53.5 -113t-104.5 -46q-21 0 -49 4z" />
<glyph unicode="m" horiz-adv-x="1361" d="M45 463q37 42 37 63q7 11 12 25q34 57 47 72q3 2 15 13t20 17q38 46 39 47q0 2 2 7t2 6l8 14q15 45 43 76t66 31q23 0 45 -11q-6 27 -6 82q0 68 35 103q18 21 53 39t63 18q36 -1 60.5 -24t35 -52t27 -65.5t35.5 -55.5q15 -11 34.5 -41t32.5 -56t34 -68.5t26 -53.5 q32 -46 52.5 -103t29 -98t31.5 -83.5t61 -69.5q7 -5 52 -23t61 -36q26 -36 30 -78q2 -6 2 -17q10 -67 44 -149q42 -104 61 -137l-109 -58q-12 23 -65 150q-34 84 -51 176q-6 30 -6 33q-33 23 -68 41q-47 13 -83 65t-54 107.5t-40.5 127.5t-39.5 105l-21 41q-6 11 -17.5 36 t-18.5 37t-21 28.5t-31 27.5q-24 21 -53 82.5t-29 87.5q-20 -8 -26 -14t-6 -21q0 -27 2 -39q2 -14 2 -45q0 -77 -54 -114q-27 -15 -53 -15q-29 0 -47 11q-13 -43 -22 -58q-13 -27 -62 -76l-31 -30q-19 -19 -38 -70q-16 -45 -58 -90z" />
<glyph unicode="n" horiz-adv-x="860" d="M-82 240q17 11 95 90t102 108l24 39q44 69 67 90q25 22 52 27l21 31q17 28 28.5 43.5t35.5 32t50 16.5q43 0 70 -17q41 -3 192 -67q2 -1 6 -2.5t7 -2.5t4 -1q11 -5 33 -19q30 -20 49 -24q43 -10 120 -64q3 -3 13 -8q20 -14 56.5 -23.5t68.5 -9.5v-123q-53 0 -106.5 14.5 t-88.5 39.5l-12 8q-62 42 -76 45q-29 5 -88 41l-14 8l-19 8q-132 55 -153 58q-31 0 -52 14q-15 -19 -20 -33q-1 -2 -8 -12.5t-9 -13t-8.5 -12t-10 -12.5t-10 -10t-12 -10t-12 -7.5t-13.5 -6t-15 -2.5q-11 -11 -41 -59q-13 -26 -33 -54q-8 -10 -26 -29t-44.5 -45.5 t-40.5 -41.5q-89 -91 -116 -109l-64 105h-2z" />
<glyph unicode="o" horiz-adv-x="890" d="M23 -135l106 57q26 -44 35 -90q9 -37 24 -66t26.5 -44t35.5 -41q21 6 43 6q0 3 1 7.5t2.5 10.5l2.5 10q3 11 25 49q8 15 16 54q18 67 43 123q9 19 20.5 32.5t26.5 22.5t26.5 13.5t31.5 11t30 10.5q11 6 25 39l32 61q31 48 41 84q6 29 29 72q12 19 27 65l108 -49 q-6 -21 -24.5 -59t-22.5 -58q-10 -35 -41 -89.5t-39 -80.5q-1 -2 -6.5 -12.5t-6.5 -12t-5.5 -10.5t-7 -11.5t-7.5 -9.5t-9 -10t-10 -8.5t-13 -9.5t-15 -8q-19 -6 -33 -11.5t-16 -6.5q-17 -5 -25.5 -18t-33.5 -74q-21 -77 -39 -109l-14 -27v-14q-7 -50 -54 -82 q-20 -11 -59 -16q-1 1 -3 -2t-5.5 -8t-8 -9.5t-11.5 -8t-15 -3.5q-17 0 -36 12.5t-56 53.5q-119 128 -119 209q-10 43 -22 55z" />
<glyph unicode="p" horiz-adv-x="925" d="M-117 246q64 54 258 166q23 15 56.5 35t40.5 24q40 26 165 98q34 21 89.5 53t68.5 40q4 4 12 8q46 30 72.5 45.5t75.5 31t100 15.5q58 0 125 -10q32 -4 41 -4q43 0 96 -37q11 -11 17 -11h-2v-122q-40 0 -86 32q-15 15 -25 15q-5 0 -59 6q-50 8 -107 8q-49 0 -88 -17.5 t-92 -54.5l-14 -8q-4 -3 -162 -96q-112 -62 -158 -94q-79 -48 -104 -62q-197 -118 -240 -153z" />
<glyph unicode="q" horiz-adv-x="925" d="M-469 -119l45 58q99 134 139 180l6 4q109 113 189 115q28 6 115 71q92 72 125 113q100 100 163 153q145 117 224 117q12 0 22.5 3.5t16 7.5t22.5 16q58 49 123 49q32 0 71 -15.5t68 -33t74 -47.5q10 -6 29.5 -18.5t32.5 -19.5t20 -9l-39 -117q-28 9 -111 61 q-65 45 -88 56q-41 20 -57 20q-18 0 -49 -22q-21 -17 -34 -25.5t-41.5 -18.5t-59.5 -10q-4 0 -13.5 -2.5t-46.5 -25t-84 -62.5q-35 -29 -71.5 -63t-58 -55t-23.5 -23q-61 -65 -150 -131q-119 -92 -178 -92q-14 -2 -45 -25q-32 -25 -60 -53l-4 -6q-23 -20 -129 -166 q-30 -37 -45 -60z" />
<glyph unicode="r" horiz-adv-x="696" d="M-283 115q36 31 74.5 85t58 90.5t33.5 65.5q23 48 97 154q65 96 79 129l15 33q41 108 86 149q37 34 108 72q80 45 133 45q38 0 101 -18q66 -19 100 -19q47 0 80 -45q17 -17 37 -65q20 -50 47 -152q22 -98 37 -119q23 -35 31 -127q4 -44 8 -61q6 -23 10 -23h6v-123 q-87 0 -123 82q-18 39 -22 115q-5 57 -13 70q-21 30 -53 153q-34 116 -35 119q-12 37 -24 53q-41 2 -119 23q-44 14 -68 14q-16 0 -75 -29q-59 -32 -82 -55q-23 -21 -58 -106l-14 -35q-16 -38 -90 -148q-74 -107 -88 -137q-30 -66 -83 -148.5t-116 -136.5z" />
<glyph unicode="s" horiz-adv-x="782" d="M-154 -236l56 52q68 60 108 102q55 57 66 90q26 74 145 262l27 43l20 37q3 4 16.5 27.5t19 32t18.5 29t21.5 32t20.5 26.5t23 27q18 20 68 70q102 102 129 137q7 9 20 39q25 51 43 66q37 34 101 34q65 0 131 -32q34 -15 36 -15q5 0 7 2q2 0 4 2q48 29 114 29v-123 q-29 0 -49 -10q-41 -23 -76 -23q-32 0 -88 27q-4 1 -14 5.5t-15 6.5t-14 4.5t-17.5 3.5t-18.5 1q-5 0 -9.5 -1t-6.5 -1.5t-3 -0.5l-12 -26q-14 -32 -35 -62q-31 -41 -141 -151q-48 -48 -64 -66q-13 -14 -28.5 -35.5t-24.5 -35.5t-27 -44t-22 -36l-23 -39l-28 -45 q-109 -175 -131 -236q-18 -52 -70 -109.5t-139 -135.5q-38 -34 -45 -43z" />
<glyph unicode="t" horiz-adv-x="757" d="M-664 -176q15 15 39 35t75 47.5t91 27.5q42 0 78 -12q24 -8 43 -8q42 17 129 78q98 68 117 92q12 14 108 170l66 104q7 12 22.5 39t22.5 39q41 76 70 113q41 46 149 180q16 19 35 51q23 35 34 50.5t32.5 40t42.5 34.5t45 10q50 0 90 -28l41 -21q43 -18 122 -18h15 q57 0 115 -21q4 0 12 -4q18 -7 53 -10.5t47 -1.5h8q25 0 60 -10q8 0 16 -4q7 3 29 20q2 1 12 8.5t13.5 10t12 7.5t14 7t13.5 4t15 2q43 0 106 -55q2 -2 4 -2v-2v2q0 -2 2 -2h-2l-67 -101q-3 1 -8 5.5t-7 5.5l-24 20l-10 -8q-20 -16 -34 -25.5t-36 -16.5t-43 -3q-19 3 -41 10 q-12 4 -21 4q-7 -1 -15 -1q-23 1 -59 5q-48 6 -79 15l-15 6q-34 12 -71 12h-15q-106 0 -172 29q-4 1 -57 28l-16 11q-23 -20 -58 -78q-24 -40 -43 -64q-116 -143 -151 -182q-21 -24 -58 -92l-49 -86q-11 -16 -63 -101q-103 -170 -121 -188q-28 -31 -143 -115 q-49 -38 -97 -61q-57 -35 -96 -35q-42 0 -84 14q-24 7 -39 7t-50.5 -23t-65.5 -51z" />
<glyph unicode="u" horiz-adv-x="860" d="M-137 74q126 145 270.5 317t165.5 203q10 16 36.5 53t35.5 51l57 82q13 34 59.5 75.5t77.5 41.5t74 -29q6 -6 23.5 -11t27.5 -5q27 -3 45 -21q21 -14 25 -20q4 3 26 14q20 10 35 13q26 16 53 16q15 0 29 -6.5t20 -12t19 -18.5q-5 -8 -18 -30.5t-25.5 -41t-24.5 -30.5 q-6 4 -18 4q-10 0 -18 -4q-19 -18 -51 -54.5t-46 -50.5l-90 82q0 1 1.5 2.5l5 5t6.5 7.5l14 16q-12 6 -16 10q-57 7 -87 31q-4 -8 -17.5 -18t-16.5 -17l-68 -100q-60 -83 -70 -101q-27 -42 -197 -243t-249 -291z" />
<glyph unicode="v" horiz-adv-x="790" d="M-61 -238q8 38 28.5 135.5t54 243.5t50.5 193q30 86 76.5 177.5t82.5 127.5q36 33 84 33q35 0 64 -25q37 180 125 180q48 0 92.5 -50.5t60.5 -100.5l2 -4q50 -125 58 -172q4 -27 4 -99q5 -140 20 -190l-118 -33q-21 76 -25 221q0 64 -4 82q-4 30 -45 140q-18 32 -35 55 q-15 -45 -43 -184q-3 -12 -7.5 -33.5t-9.5 -38.5t-12 -31q-13 -39 -57 -39q-21 0 -36.5 14t-23 40t-11.5 46.5t-6 50t-3 34.5q-61 -84 -117 -242q-28 -78 -129 -555z" />
<glyph unicode="w" horiz-adv-x="1353" d="M-109 315l21 121q78 -17 148.5 -77.5t142.5 -153.5q42 -57 96 -180q33 -79 123 -215q26 -45 59 -78q49 -62 68 -90l24 -39q6 4 29 8l47 8q79 10 121 27q10 5 37 59q7 22 33 59q21 29 37 101q10 57 28 100l10 33q5 12 9 20q8 43 43 93l8 10q20 38 59 51q15 12 21 12 q10 6 20.5 17t16.5 16l14 12q32 41 65 62l56 37q3 3 18 8q88 49 109 80q9 12 47 28l61 -86q-57 -70 -155 -127q-10 -5 -64 -41q-36 -25 -51 -43q-29 -31 -80 -69q-8 -8 -35 -17q-29 -47 -35 -65q-11 -39 -22 -66q-4 -21 -23 -88q-5 -33 -9 -49t-17 -44.5t-35 -57.5 q-2 -1 -4 -6l-6 -15t-8 -18q-16 -30 -25.5 -46t-29.5 -38t-42 -33q-50 -25 -147 -37q-7 0 -23 -4l-28 -4l-2 -2q-28 -12 -58 -12q-64 0 -106 78q-26 51 -68 98q-50 58 -67 90q-94 134 -136 238q-46 105 -84 151q-126 170 -211 184z" />
<glyph unicode="x" horiz-adv-x="833" d="M-39 -399q85 14 211 184q37 45 84 152q43 105 135 237q15 28 68 90q32 40 55 72q51 104 119 104q31 0 59 -14l29 -4q16 -4 22 -4q98 -13 148 -37l-51 -111q-42 17 -121 27l-47 8q-22 3 -29 8l-25 -39q-23 -35 -67 -90q-33 -33 -59 -78q-84 -126 -123 -217 q-45 -108 -99 -178q-152 -201 -288 -231z" />
<glyph unicode="y" horiz-adv-x="757" d="M57 1108v10q17 3 74.5 15.5t103 20t74.5 7.5q21 10 65.5 20.5t65.5 20.5q29 26 29 47q0 25 -30 53.5t-63 47t-80 42t-56 29.5l4 9q200 -48 299 -113q43 -26 43 -72q0 -3 -1 -10t-1 -12q36 -12 51 -37l55 -27l-65 -20q-16 -22 -58 -41q0 -27 -18 -45 q-61 -61 -163.5 -109.5t-205.5 -71.5l-4 11q162 92 203 127q42 37 59 67q-11 0 -53 1t-57 1q-25 0 -50.5 -4t-55.5 -15t-47 -17.5t-55.5 -23.5t-49.5 -22l-4 9q158 97 165 100z" />
<glyph unicode="z" horiz-adv-x="757" d="M-72 500q6 -6 19 -6v122q18 0 33 -5.5t28 -18.5t18.5 -19.5t16.5 -21.5l14 -21q7 7 13 19q9 15 28 57q15 39 33 62q27 34 72 65q61 47 102 47q36 -1 66.5 -31t74.5 -96l17 -24q6 -7 13.5 -21t10.5 -18q14 -31 29 -48.5t43 -25.5q49 -17 160 -76q106 -57 125 -59l-15 -121 q-18 2 -46 13t-48.5 21.5t-72.5 37.5q-91 50 -140 67q-42 13 -73 39t-44 46t-26 48l-14 25l-21 27q-21 33 -47 67q-46 -33 -70 -59l-18 -37q-18 -48 -43 -86q-45 -66 -105 -66h-2q-29 0 -54 14.5t-36 27.5t-26 34q-2 4 -8 11.5t-7 9.5z" />
<glyph unicode="&#xa9;" horiz-adv-x="1837" d="M164 813q0 156 85.5 291.5t222 214.5t288.5 84l4 -133q-123 -2 -231 -66t-172 -169t-64 -222q0 -84 35 -161t90.5 -129.5t124.5 -83.5t137 -31h57l146 688l420 -494q102 86 192 223l111 -71q-99 -145 -219 -250l311 -365l-103 -86l-317 371q-185 -113 -430 -141l-78 -369 l-131 29l70 331h-29q-95 0 -188 40.5t-168 115.5q-79 78 -121.5 177t-42.5 206zM881 420q177 23 317 104l-237 279z" />
<glyph unicode="&#xaa;" />
<glyph unicode="&#xb7;" horiz-adv-x="364" />
<glyph unicode="&#xc0;" horiz-adv-x="1241" d="M61 1186q0 44 34 77t81 33q49 0 83 -32.5t34 -77.5q0 -48 -34 -81.5t-83 -33.5q-47 0 -81 34t-34 81zM209 868q0 49 33.5 83t81.5 34q49 0 82.5 -33.5t33.5 -83.5q0 -46 -33.5 -80t-82.5 -34q-47 0 -81 34t-34 80zM356 559q0 49 33.5 82t83.5 33q48 0 81.5 -33t33.5 -82 q0 -47 -34 -81t-81 -34q-49 0 -83 33.5t-34 81.5zM358 1186q0 45 33 77.5t82 32.5q47 0 81 -33t34 -77q0 -47 -34 -81t-81 -34q-49 0 -82 33.5t-33 81.5zM506 868q0 50 33 83.5t82 33.5q47 0 79.5 -34t32.5 -83q0 -46 -32.5 -80t-79.5 -34q-49 0 -82 33.5t-33 80.5zM508 250 q0 47 33.5 81t79.5 34q47 0 79.5 -33.5t32.5 -81.5t-32.5 -81.5t-79.5 -33.5q-46 0 -79.5 34t-33.5 81zM653 559q0 49 34 82t81 33q46 0 79.5 -33t33.5 -82q0 -47 -33.5 -81t-79.5 -34t-80.5 34t-34.5 81zM653 1186q0 45 34 77.5t83 32.5q46 0 80.5 -33t34.5 -77 q0 -47 -34.5 -81t-80.5 -34q-49 0 -83 33.5t-34 81.5zM799 868q0 50 33.5 83.5t82.5 33.5q46 0 78.5 -34t32.5 -83q0 -46 -33 -80t-78 -34q-49 0 -82.5 34t-33.5 80zM950 1186q0 44 34 77t81 33q46 0 79.5 -33t33.5 -77q0 -47 -33.5 -81t-79.5 -34q-47 0 -81 34t-34 81z" />
<glyph unicode="&#xc1;" horiz-adv-x="1241" d="M-207 475q27 124 103 266q42 78 102 160q51 68 83 92.5t62 24.5q34 0 64.5 -27t91.5 -100q47 -59 53 -64q20 -4 60 -28q59 -33 80 -33q28 0 102 51q64 41 94 41q26 0 62 -12q40 -12 57 -12q32 0 81 15t66 30l15 14q31 28 49 43t53.5 32t67.5 17q48 0 172 -65l102 -62 l164 -88l-59 -108l-166 90l-2 2q-46 26 -95 55q-99 53 -116 53q-12 0 -33 -14q-7 -4 -53 -45l-17 -15q-37 -34 -108 -55.5t-121 -21.5q-40 0 -92 18q-12 4 -21 4l-35 -20q-106 -70 -167 -70q-66 0 -144 51l-24 13q-27 3 -51.5 26t-69.5 80l-62 72q-20 -24 -55 -72 q-50 -72 -82 -131q-70 -132 -92 -236z" />
<glyph unicode="&#xc8;" horiz-adv-x="983" d="M127 252l90 84l5 -4q6 -3 11 -6t14.5 -6t18.5 -3q40 0 119 41l70 -8l67 -55l117 -82l6 -4l78 -66q79 -22 106 -22v-123q-18 0 -149 29l-25 12l-88 74l-118 82l-5 4l-38 32q-83 -36 -140 -36q-82 0 -139 57z" />
<glyph unicode="&#xc9;" horiz-adv-x="983" d="M-57 463q37 42 37 63q7 11 12 25q34 57 47 72q3 2 15 13t20 17q38 46 39 47q0 2 2 7t2 6l8 14q16 46 43 76.5t65 30.5q24 0 46 -11q-7 32 -7 82q0 68 35 103q18 21 53.5 39t63.5 18q36 -1 60.5 -24t35 -52t27 -65.5t35.5 -55.5q15 -11 34.5 -41t32.5 -56t34 -68.5 t26 -53.5q32 -46 52.5 -103t29 -98t31.5 -83.5t61 -69.5q7 -5 51.5 -23t60.5 -36q27 -37 31 -78q2 -6 2 -17q11 -71 43 -149q40 -97 62 -137l-109 -58q-17 34 -66 150q-34 84 -51 176q-6 30 -6 33q-35 25 -67 41q-60 17 -99 88.5t-70 177t-49 139.5l-20 41q-6 11 -17.5 36 t-18.5 37t-21 28.5t-31 27.5q-24 21 -53 82.5t-29 87.5q-21 -8 -27 -14t-6 -21q0 -27 2 -39q2 -14 2 -45q0 -77 -53 -114q-27 -15 -53 -15q-29 0 -47 11q-12 -40 -23 -58q-14 -29 -61 -76l-31 -30q-20 -20 -39 -70q-17 -47 -57 -90z" />
<glyph unicode="&#xca;" horiz-adv-x="983" d="M-354 672v123q30 0 96.5 4.5t87.5 7.5q12 6 43 14l61 19q32 20 150 59l18 2h82l252 258l78 8q80 -56 123 -73q34 -13 52.5 -24.5t43.5 -35.5l172 -153l205 -162l123 -84q160 -75 201 -90q12 -5 23 -10t21.5 -12.5t15.5 -11t15.5 -12.5t12.5 -10q6 -6 18 -14 q30 -24 80 -86q43 -53 57 -80q25 -33 187 -186l-86 -88q-50 47 -99 96q-43 43 -67 70q-38 37 -45 55q-10 17 -49.5 63.5t-51.5 57.5q-6 4 -15.5 11.5t-10.5 8.5q-30 26 -49 33q-20 8 -72.5 31t-96 42.5t-46.5 20.5l-11 6l-127 91l-2 2l-207 161l-4 2q-1 1 -38 34.5 t-79.5 72.5t-54.5 49q-4 3 -10 8t-8.5 7t-7.5 5.5t-9.5 5.5t-11.5 5.5t-16 7.5q-23 9 -103 57l-233 -241l-45 -19h-96q-91 -31 -111 -41q-22 -15 -96 -35l-31 -8q-20 -10 -111 -16q-70 -6 -118 -6z" />
<glyph unicode="&#xe0;" d="M-113 645q18 9 43 11.5t39.5 0.5t42.5 -6l21 -4q31 17 84 21q8 0 12 2l8 12q38 49 70 57l12 15q9 15 25 28q43 43 98 66q25 11 78 43l74 -6q66 -58 79 -78q7 -7 23 -43l12 -33q20 -4 21 -4q55 0 106 -45l15 -12q26 -26 38 -33q7 -5 13.5 -8t8.5 -3l3 -1q34 0 86 -29 q48 -23 72 -23q128 0 168 -59q17 -25 30 -35h-2v-123q-39 0 -72.5 26.5t-52.5 55.5q-26 13 -71 13q-64 0 -129 36q-25 15 -31 15q-28 0 -59 15t-45.5 26.5t-40.5 34.5l-11 10q-19 16 -28 16q-31 3 -66 14q-17 4 -30 14t-23 27.5t-15.5 28.5t-13.5 33q0 2 -2 7t-2 7l-31 29 q-15 -10 -53 -29q-40 -18 -61 -39q-2 -2 -7 -8.5t-8 -9.5q-38 -48 -67 -55l-10 -15q-30 -43 -64 -55q-16 -5 -47 -8q-19 0 -31 -4q-21 -15 -50 -16t-54 5q-43 6 -47 5q2 0 2 2zM1169 479l5 -2q-3 0 -5 2z" />
<glyph unicode="&#xe1;" d="M-59 420q32 45 67 106q46 79 70 101q6 4 20 18q24 24 41 38t47.5 29t61.5 15q22 5 84 47q21 15 28.5 19.5t19 9t23.5 4.5q16 0 31 -8t23 -15.5t32 -31.5q8 -10 31 -33q20 8 49 8q16 0 34 -8t28.5 -15t34.5 -26q41 -35 53 -39q50 -2 127 -53l28 -15q29 -13 52 -36 q1 -1 6.5 -7t12.5 -13t16 -15q90 -84 118 -148q20 -52 35 -67l-88 -86q-26 26 -61 104q-3 12 -28 43.5t-60 65.5l-41 39q0 1 -2 2t-3 2l-8 4l-41 22q-53 35 -67 35q-22 0 -47.5 11.5t-40 22t-41.5 32.5l-25 20q-25 -10 -51 -10q-27 0 -51.5 18.5t-59.5 57.5q-1 0 -2 1t-2 1 q-100 -66 -147 -66q-7 0 -21 -10q-6 -4 -13.5 -10.5t-16 -14.5t-13.5 -12l-22 -22q-13 -11 -47 -72q-54 -87 -78 -117z" />
<glyph unicode="&#xe2;" d="M-141 543v123q143 0 266 28l76 17q145 36 159 41q27 8 91 49l34 20q32 14 111 8q12 -2 31 -2q33 0 90 -15.5t90 -35.5q18 -11 58 -41t81 -62l41 -32l29 -27q6 -5 37 -32t45 -37q32 12 71 12v-123q-17 0 -41 -8q-28 -8 -43 -8q-18 0 -35 10t-49 37l-67 57q-21 21 -25 23 q-134 107 -166 127q-18 10 -59 21.5t-57 11.5q-27 0 -41 2q-34 5 -49 2q-3 -1 -21 -13q-72 -46 -115 -61q-61 -20 -174 -43l-73 -17q-125 -32 -295 -32z" />
<glyph unicode="&#xe7;" horiz-adv-x="860" d="M-14 573h4h-4zM-10 573q29 24 45 43q12 16 57 56q52 43 84 49q10 4 31 18.5t29 22.5l45 61l22 19q53 26 80 26q6 0 14 4l12 3t15.5 3t13.5 1q27 0 70 -27q40 -23 47 -37q25 -25 31 -29q13 -9 45 -49q6 -6 25.5 -28.5t25.5 -26.5q16 -10 53 -47l23 -23l14 -6q2 0 4.5 -1 t3.5 -1t3 1t3 1q24 12 50 12v-122h6l-6 -2q-30 -15 -54 -15q-25 0 -59 17l-8 2q-23 8 -66 51l-37 33q-23 14 -73 77l-25 27q-25 19 -51 49q-19 14 -31 19h-4q-17 -6 -37 -9l-20 -8l-37 -49q-21 -28 -62 -53q-44 -31 -71 -35q-14 -9 -38.5 -29.5t-31.5 -29.5q-12 -18 -41 -43 q-46 -40 -76 -43l-18 120q-4 0 -6 -2z" />
<glyph unicode="&#xe8;" horiz-adv-x="890" d="M-145 754v123q33 0 168 45q1 1 9 3.5t13 4.5q110 43 162 43q31 6 158 88q57 36 74 44.5t34 8.5h2q11 0 30.5 -3t65.5 -23.5t88 -55.5q16 -14 32 -26.5t33.5 -24t28.5 -18t31 -18.5t27 -17q26 -15 43 -27l47 -29q138 -88 197 -116l168 -70l-43 -115q-1 0 -29 11.5 t-70.5 29.5t-76.5 33q-66 32 -211 123l-48 29l-38 24q-109 66 -170 117q-46 40 -97 51q-14 -7 -53 -33q-94 -59 -141.5 -82.5t-77.5 -23.5q-9 0 -27 -4.5t-32.5 -9t-36 -12t-27.5 -9.5l-27 -10q-154 -51 -206 -51z" />
<glyph unicode="&#xe9;" horiz-adv-x="890" d="M12 774v123q23 0 64.5 12.5t58.5 24.5l12 8q92 66 130 86.5t61 20.5q25 0 83.5 -18.5t70.5 -26.5q3 0 6 -3q34 -17 48.5 -25t38 -25t36.5 -33q7 -8 11.5 -16.5t9 -22t6 -19t5 -24.5t4.5 -21q5 -32 13 -49q15 -24 56 -80.5t52 -67.5l127 -122l-86 -88q-84 84 -129 124 q-17 17 -63.5 80t-61.5 90q-16 27 -28 89q-5 36 -13 53q-15 15 -80 47l-6 4q-34 15 -94 29q-34 -17 -125 -82l-12 -8q-36 -24 -96 -42t-99 -18z" />
<glyph unicode="&#xea;" horiz-adv-x="890" d="M-438 154l184 176q140 175 150 190q7 28 67 185l4 8l70 114l31 27l43 14l53 -6l88 -55q81 -21 106 -21q58 0 177 -45l20 -6q6 -2 16 -2q42 -6 54 -6q4 0 39 10q64 19 98 19q44 0 84 -25q33 33 78 33q33 0 90 -11t76 -20q21 -8 73 -80l56 -71l139 -179l35 -36l-90 -84 l-37 39l-4 4l-140 180l-57 74q-5 8 -35 45q-46 12 -100 16l-2 -2q-37 -37 -76 -37q-32 0 -66 23q-16 8 -24 8q-16 0 -62 -12q-53 -17 -75 -17q-30 0 -72 6q-4 2 -8 2q-9 0 -53 15q-102 37 -134 37q-31 0 -67.5 7t-58 13.5t-27.5 9.5l-12 6l-64 39l-53 -86q-58 -144 -64 -168 q-2 -18 -37 -63l-55 -74q-80 -96 -80 -100l-6 -4l-186 -181z" />
<glyph unicode="&#x153;" horiz-adv-x="1478" d="M-170 287v622h295q29 23 68.5 45t65 33.5t80 33t71.5 28.5l8 4h74q69 0 118 -19q1 0 154 43h2q15 2 47.5 7t58.5 7.5t52 2.5q62 0 134.5 -23t129.5 -50t133 -50t143 -23h242v-602h-223l-160 -92q-21 -25 -49 -27l-12 -8q-7 -38 -25 -59q-31 -39 -82 -39q-13 0 -33 4 q-26 -41 -82 -41q-28 0 -65 18q-23 -16 -68 -16q-57 0 -106 16q-63 -27 -143.5 -52t-116.5 -25q-41 0 -84 23.5t-68 60.5h-43q-85 16 -121 90q-8 20 -10 32l-20 -2h-2q-35 2 -56 23q-19 25 -22 49q-12 -2 -45 -10v-4h-240zM-88 369h74v456h-74v-456zM70 377q13 3 32.5 5.5 t26.5 4.5q10 14 33.5 27t56.5 16q35 2 92 2q51 0 85.5 -3t72 -13t61 -33t33.5 -59h2q29 0 65 -19.5t40 -44.5q0 -1 43 -26t45 -25q119 -41 149 -41q11 1 -54 32l-95 42l28 51l246 -125q2 -2 8 -2q3 0 7 1t6 1l-269 248l58 59l286 -264q20 -8 27 -8q9 0 19 10q8 8 8 39 l-238 301l66 51l243 -295h4q-13 101 -55.5 185.5t-106 143t-137 97.5t-155.5 60q-104 -104 -230 -142q-36 -8 -79 -8q-40 0 -77.5 8.5t-69.5 35.5t-32 69q0 25 13 41l157 166l7 6h-58l-65 -29q-58 -24 -85.5 -36.5t-62.5 -32t-55 -37.5l-12 -11h-84v-448zM197 313l264 15 q-14 20 -150 20q-92 0 -114 -12v-23zM299 233q23 -37 72 -40q83 0 190 47q-40 4 -74 4q-39 0 -86 -3t-75 -5zM401 752q31 -23 109 -23q45 0 118.5 40.5t112.5 84.5v39l84 8l6 -29q208 -62 329 -183t179 -329l119 68v436q-160 13 -368 113q-87 33 -172 33q-56 0 -136 -15 q-41 -9 -113.5 -32.5t-97.5 -30.5q-77 -66 -125 -123q-5 -6 -45 -57zM489 125q31 -19 54 -19q17 0 65.5 15t88.5 30l40 15q-16 3 -42.5 4.5t-44.5 1.5h-19zM1548 428h76v436h-76v-436z" />
<glyph unicode="&#x2014;" horiz-adv-x="2048" d="M31 504q73 24 188.5 59.5t357 94.5t347.5 59q105 0 154.5 -17t49.5 -67q0 -19 -17 -47t-17 -45q0 -23 18 -23q55 0 157.5 15.5t202.5 31.5t251 24.5t305 -5.5v-54q-118 10 -253.5 -5.5t-252.5 -45t-220.5 -60t-187.5 -53t-123 -22.5q-35 0 -35 45q0 43 16.5 81t16.5 52 q0 11 -11.5 15t-39.5 4q-68 0 -345 -84.5t-405 -149.5z" />
<glyph unicode="&#x2018;" horiz-adv-x="468" />
<glyph unicode="&#x2019;" horiz-adv-x="468" />
<glyph unicode="&#x201a;" horiz-adv-x="468" />
<glyph unicode="&#x2022;" horiz-adv-x="1206" d="M207 684q0 164 115.5 280.5t279.5 116.5t280.5 -116.5t116.5 -280.5t-116.5 -279.5t-280.5 -115.5t-279.5 115.5t-115.5 279.5z" />
<glyph unicode="&#x25fc;" horiz-adv-x="440" d="M0 0v440h440v-440h-440z" />
</font>
</defs>
</svg>
