<?xml version="1.0" standalone="no"?>
<!DOCTYPE svg PUBLIC "-//W3C//DTD SVG 1.1//EN" "http://www.w3.org/Graphics/SVG/1.1/DTD/svg11.dtd" >
<svg xmlns="http://www.w3.org/2000/svg">
<metadata></metadata>
<defs>
<font id="dauphinebrabancon" horiz-adv-x="860" >
<font-face units-per-em="2048" ascent="1536" descent="-512" />
<missing-glyph horiz-adv-x="512" />
<glyph unicode="ff" horiz-adv-x="1091" d="M492 1464v-123q-59 0 -91 -39.5t-32 -103.5v-360h313v350q0 125 67.5 200.5t188.5 75.5q115 0 185.5 -70.5t70.5 -185.5v-53h-133v41q0 145 -123 145q-59 0 -91 -39.5t-32 -103.5v-360h184v-123h-184v-715h-133v715h-313v-715h-133v715h-175v123h175v350 q0 125 67.5 200.5t188.5 75.5z" />
<glyph unicode="fi" horiz-adv-x="927" d="M492 1464v-133q-123 0 -123 -133v-360h446v-838h-133v715h-313v-715h-133v715h-175v123h175v350q0 125 67.5 200.5t188.5 75.5zM825 1241v-154h-153v154h153z" />
<glyph unicode="fl" horiz-adv-x="927" d="M492 1464v-133q-123 0 -123 -133v-360h123v-123h-123v-715h-133v715h-175v123h175v350q0 125 67.5 200.5t188.5 75.5zM815 0v1444h-133v-1444h133z" />
<glyph unicode="ffi" horiz-adv-x="1374" d="M492 1464v-133q-123 0 -123 -133v-360h313v350q0 125 67.5 200.5t188.5 75.5v-133q-123 0 -123 -133v-360h447v-838h-134v715h-313v-715h-133v715h-313v-715h-133v715h-175v123h175v350q0 125 67.5 200.5t188.5 75.5zM1272 1247v-153h-154v153h154z" />
<glyph unicode="ffl" horiz-adv-x="1374" d="M492 1464v-123q-59 0 -91 -39.5t-32 -103.5v-360h313v350q0 125 67.5 200.5t188.5 75.5v-123q-59 0 -91 -39.5t-32 -103.5v-360h313v606h134v-1444h-134v715h-313v-715h-133v715h-313v-715h-133v715h-175v123h175v350q0 125 67.5 200.5t188.5 75.5z" />
<glyph unicode="www" horiz-adv-x="3606" d="M1735 838h137l213 -666l209 666h145l209 -666l213 666h137l213 -666l209 666h146l-287 -838h-135l-215 670l-213 -670h-136l-213 664l-215 -664h-135l-215 670l-213 -670h-135l-213 664l-215 -664h-135l-215 670l-213 -670h-135l-287 838h145l209 -666l213 666h137 l213 -666l209 666h146l209 -666z" />
<glyph unicode="gy" horiz-adv-x="1597" d="M119 535q0 109 70.5 199.5t179.5 115.5l131 395h127l-131 -393q113 -25 184.5 -116t71.5 -201q0 -137 -90.5 -230.5t-227.5 -93.5q-115 0 -115 -84q0 -45 31 -71.5t84 -26.5q150 0 257.5 -92.5t107.5 -235.5t-107.5 -234.5t-257 -91.5t-256 91.5t-106.5 234.5 q0 186 176 281q-74 49 -74 135q0 94 84 145q-139 93 -139 273zM1221 180l211 658h145l-494 -1442h-135l205 606l-305 836h145zM205 -299q0 -90 66.5 -143.5t162.5 -53.5t164 54.5t68 142.5q0 90 -69 147.5t-163 57.5t-161.5 -57.5t-67.5 -147.5zM434 739q-82 0 -134 -55 t-52 -149.5t52 -149.5t134 -55q84 0 136.5 55t52.5 149.5t-53.5 149.5t-135.5 55z" />
<glyph unicode="fb" horiz-adv-x="1484" d="M815 0v104q78 -125 225 -124q162 0 262.5 130t100.5 308t-100.5 309t-262.5 131q-145 0 -225 -127v713h-133v-1444h133zM492 1464v-133q-123 0 -123 -133v-360h123v-123h-123v-715h-133v715h-175v123h175v350q0 125 67.5 200.5t188.5 75.5zM1040 731q102 0 163 -92 t61 -221t-60.5 -220.5t-163 -91.5t-164 91.5t-61.5 220.5v12q4 125 64.5 213t160.5 88z" />
<glyph unicode="fh" horiz-adv-x="1419" d="M815 0v496q2 96 55.5 167.5t139.5 71.5q174 0 174 -207v-528h133v559q0 139 -80 219t-217 80q-127 0 -205 -110v696h-133v-1444h133zM492 1464v-133q-123 0 -123 -133v-360h123v-123h-123v-715h-133v715h-175v123h175v350q0 125 67.5 200.5t188.5 75.5z" />
<glyph unicode="fk" horiz-adv-x="1382" d="M815 0v338l359 -338h198l-459 432l428 406h-186l-340 -322v928h-133v-1444h133zM492 1464v-133q-123 0 -123 -133v-360h123v-123h-123v-715h-133v715h-175v123h175v350q0 125 67.5 200.5t188.5 75.5z" />
<glyph unicode="gj" horiz-adv-x="1198" d="M952 -358v1196h133v-1186q0 -125 -67.5 -201t-188.5 -76v123q59 0 91 40.5t32 103.5zM1096 1241v-154h-154v154h154zM119 535q0 109 70.5 199.5t179.5 115.5l131 395h127l-131 -393q113 -25 184.5 -116t71.5 -201q0 -137 -90.5 -230.5t-227.5 -93.5q-115 0 -115 -84 q0 -45 31 -71.5t84 -26.5q150 0 257.5 -92.5t107.5 -235.5t-107.5 -234.5t-257 -91.5t-256 91.5t-106.5 234.5q0 186 176 281q-74 49 -74 135q0 94 84 145q-139 93 -139 273zM205 -299q0 -90 66.5 -143.5t162.5 -53.5t164 54.5t68 142.5q0 90 -69 147.5t-163 57.5 t-161.5 -57.5t-67.5 -147.5zM434 739q-82 0 -134 -55t-52 -149.5t52 -149.5t134 -55q84 0 136.5 55t52.5 149.5t-53.5 149.5t-135.5 55z" />
<glyph unicode="fj" horiz-adv-x="927" d="M492 1464v-133q-123 0 -123 -133v-360h446v-1186q0 -125 -67.5 -201t-188.5 -76q-115 0 -185.5 71t-70.5 185v54h133v-41q0 -145 123 -146q59 0 91 40t32 104v1073h-313v-715h-133v715h-175v123h175v350q0 125 67.5 200.5t188.5 75.5zM825 1241v-154h-153v154h153z" />
<glyph unicode="&#xd;" horiz-adv-x="681" />
<glyph unicode=" "  horiz-adv-x="512" />
<glyph unicode="&#x09;" horiz-adv-x="512" />
<glyph unicode="&#xa0;" horiz-adv-x="512" />
<glyph unicode="!" horiz-adv-x="348" d="M266 1444v-1137h-143v1137h143zM274 160v-160h-159v160h159z" />
<glyph unicode="&#x22;" horiz-adv-x="780" d="M674 1444l-150 -453h-127l150 453h127zM403 1444l-149 -453h-127l149 453h127z" />
<glyph unicode="#" horiz-adv-x="1187" d="M1004 520v-129h-244l-105 -391h-133l105 391h-246l-105 -391h-133l105 391h-146v129h181l108 404h-207v129h242l106 391h134l-107 -391h246l106 391h133l-106 -391h147v-129h-182l-108 -404h209zM524 924l-108 -404h246l108 404h-246z" />
<glyph unicode="$" horiz-adv-x="1161" d="M987 1087h-153q0 106 -79 177t-190 71q-121 0 -194.5 -69.5t-73.5 -178.5q0 -51 20.5 -90t67.5 -69.5t87 -48t114 -43.5q23 -8 93.5 -33t93 -34t76.5 -33.5t74.5 -41t56.5 -48.5t48 -63.5t24.5 -75.5t12.5 -97q0 -188 -119 -300t-301 -128v-187h-135v189 q-178 20 -293 130.5t-115 295.5h154q0 -137 88 -219t241.5 -82t241.5 81.5t88 219.5q0 37 -10 67.5t-39.5 57t-48 42t-73 38t-73 29.5t-85.5 32q-215 78 -283 121q-156 100 -156 290q0 152 103.5 254.5t259.5 118.5v189h135v-191q147 -25 244.5 -125.5t97.5 -245.5z" />
<glyph unicode="%" horiz-adv-x="1167" d="M102 1222.5q0 100.5 70 171t170 70.5t171 -70.5t71 -171t-71 -170t-171 -69.5t-170 69.5t-70 170zM215 1222.5q0 -55.5 37 -94t90 -38.5t91 39.5t38 93.5q0 55 -38 95t-91 40t-90 -40t-37 -95.5zM584 219q0 100 69.5 171t170 71t171 -71t70.5 -171t-70.5 -169.5 t-171 -69.5t-170 69.5t-69.5 169.5zM696 219q0 -55 37 -94t90.5 -39t91 40t37.5 93q0 55 -37.5 95t-91 40t-90.5 -40t-37 -95zM920 1444l-811 -1444h141l811 1444h-141z" />
<glyph unicode="&#x26;" horiz-adv-x="1150" d="M963 199l147 -219h-156l-82 118q-139 -119 -319 -118q-205 0 -338 142t-133 351q0 135 65.5 244.5t178.5 169.5l-56 80q-45 66 -45 168q0 135 95.5 232t232.5 97t233.5 -97t96.5 -232q0 -137 -96.5 -231.5t-233.5 -94.5l324 -481q27 70 26 145v176h144v-174 q0 -153 -84 -276zM225 473q0 -141 96.5 -250.5t231.5 -109.5q145 0 244 94l-394 565q-80 -41 -129 -122t-49 -177zM553 942q84 0 135 53.5t51 139.5t-51 141t-135 55t-134 -55t-50 -141q0 -45 41 -113l57 -88q39 8 86 8z" />
<glyph unicode="'" horiz-adv-x="509" d="M403 1444l-149 -453h-127l149 453h127z" />
<glyph unicode="(" horiz-adv-x="819" d="M293 676q0 -264 128 -474t316 -290v-154q-264 92 -429 345t-165 572.5t165 572.5t429 345v-153q-188 -80 -316 -290t-128 -474z" />
<glyph unicode=")" horiz-adv-x="819" d="M526 676q0 264 -128 474t-316 290v153q264 -92 429 -345t165 -572.5t-165 -572.5t-429 -345v154q188 80 316 290t128 474z" />
<glyph unicode="*" horiz-adv-x="1130" d="M838 1356l82 -82l-236 -223l324 8v-115l-320 8l234 -221l-86 -86l-218 227l9 -313h-123l8 320l-219 -232l-82 82l235 223l-323 -8v115l317 -8l-231 221l86 86l217 -228l-8 314h123l-9 -322z" />
<glyph unicode="+" horiz-adv-x="993" d="M563 641h328v-125h-328v-373h-133v373h-328v125h328v373h133v-373z" />
<glyph unicode="," horiz-adv-x="395" d="M313 143l-149 -452h-144l150 452h143z" />
<glyph unicode="-" horiz-adv-x="655" d="M614 608v-143h-573v143h573z" />
<glyph unicode="." horiz-adv-x="364" d="M266 164v-164h-168v164h168z" />
<glyph unicode="/" horiz-adv-x="798" d="M737 1444l-491 -1444h-144l492 1444h143z" />
<glyph unicode="0" horiz-adv-x="1085" d="M236 721q0 -250 90 -429t217 -179t217 179t90 429t-90 430t-217 180t-217 -180t-90 -430zM82 720.5q0 317.5 136 530.5t324.5 213t325 -213t136.5 -530.5t-136.5 -529t-325 -211.5t-324.5 211.5t-136 529z" />
<glyph unicode="1" horiz-adv-x="796" d="M592 1444v-1444h-143v1178q-92 -133 -269 -134h-16v123h20q102 0 181 79t84 186v12h143z" />
<glyph unicode="2" horiz-adv-x="1052" d="M266 1026h-143v37q0 170 114.5 285.5t282.5 115.5q170 0 288 -116.5t118 -284.5q0 -127 -88 -240l-541 -680h629v-143h-803v143l608 783q43 55 43 141q0 109 -73.5 186.5t-180 77.5t-180.5 -77.5t-74 -186.5v-41z" />
<glyph unicode="3" horiz-adv-x="1058" d="M111 426h153q0 -129 73 -221t191.5 -92t191.5 92t73 221q0 115 -75 191.5t-190 76.5h-77v144h77q94 0 155.5 66.5t61.5 172.5q0 113 -56 183.5t-160.5 70.5t-161 -70.5t-56.5 -183.5h-151q0 164 104.5 275.5t264 111.5t264 -111.5t104.5 -275.5q0 -92 -46 -172t-122 -131 q102 -45 159.5 -138t57.5 -218q0 -186 -117.5 -312t-300 -126t-300 125.5t-117.5 312.5v8z" />
<glyph unicode="4" horiz-adv-x="1095" d="M758 356v-356h-144v356h-491v144l491 944h158l-502 -955h344v349l144 133v-482h215v-133h-215z" />
<glyph unicode="5" horiz-adv-x="1062" d="M530 803q-111 0 -182 -88h-162v729h652v-133h-508v-443q92 68 200 68q184 0 302 -133t118 -346t-116.5 -345t-303.5 -132q-182 0 -299.5 125.5t-117.5 312.5v8h153q0 -129 73 -221t191.5 -92t192.5 99t74 242.5t-74 246t-193 102.5z" />
<glyph unicode="6" horiz-adv-x="1083" d="M121 606q0 383 117.5 620.5t332.5 237.5q156 0 255.5 -96t134.5 -256h-144q-29 96 -92 157.5t-154 61.5q-127 0 -205.5 -157.5t-89.5 -395.5q96 158 275 158q182 0 301 -139.5t119 -342t-119 -338.5t-301 -136q-195 0 -312.5 168.5t-117.5 457.5zM276 475 q0 -143 78 -252.5t197 -109.5q121 0 193.5 100t72.5 242q0 145 -72.5 246.5t-193.5 101.5q-131 0 -203 -97.5t-72 -230.5z" />
<glyph unicode="7" horiz-adv-x="901" d="M283 0h-160l557 1311h-557v133h717v-144z" />
<glyph unicode="8" horiz-adv-x="999" d="M82 408q0 125 56.5 221t154.5 147q-74 51 -118 131t-44 170q0 164 104.5 275.5t264 111.5t264 -111.5t104.5 -275.5q0 -92 -45 -171t-118 -130q100 -51 156.5 -147.5t56.5 -220.5q0 -186 -118 -307t-300.5 -121t-300 121t-117.5 307zM236 416q0 -127 72.5 -215t191 -88 t191.5 88t73 215q0 117 -76 203t-188.5 86t-188 -86t-75.5 -203zM283 1077q0 -106 61.5 -172.5t155.5 -66.5t155.5 66.5t61.5 172.5q0 113 -56.5 183.5t-161 70.5t-160.5 -70.5t-56 -183.5z" />
<glyph unicode="9" horiz-adv-x="1083" d="M963 838q0 -383 -118 -620.5t-333 -237.5q-156 0 -255 96t-134 256h143q29 -96 92.5 -157.5t153.5 -61.5q127 0 205 156.5t88 396.5q-94 -158 -273 -158q-182 0 -300.5 139t-118.5 342t118.5 339t300.5 136q195 0 313 -168.5t118 -457.5zM807 969q0 143 -78 252.5 t-197 109.5q-121 0 -193.5 -100.5t-72.5 -241.5q0 -145 73 -246.5t193 -101.5q131 0 203 97.5t72 230.5z" />
<glyph unicode=":" horiz-adv-x="364" d="M266 307v-164h-168v164h168zM266 813v-164h-168v164h168z" />
<glyph unicode=";" horiz-adv-x="374" d="M295 813v-164h-168v164h168zM295 143l-150 -452h-143l150 452h143z" />
<glyph unicode="&#x3c;" horiz-adv-x="921" d="M819 1016l-614 -369l614 -371v-147l-737 444v148l737 442v-147z" />
<glyph unicode="=" horiz-adv-x="897" d="M102 485h693v-123h-693v123zM102 772h693v-123h-693v123z" />
<glyph unicode="&#x3e;" horiz-adv-x="921" d="M82 1016v147l737 -442v-148l-737 -444v147l614 371z" />
<glyph unicode="?" horiz-adv-x="1007" d="M571 430v-123h-147v123q0 127 88 240l201 256q41 51 41 141q0 109 -74 186.5t-180.5 77.5t-180 -77.5t-73.5 -186.5v-41h-144v37q0 170 115 285.5t283 115.5q170 0 287.5 -116.5t117.5 -284.5q0 -125 -90 -240l-201 -252q-43 -55 -43 -141zM578 160v-160h-160v160h160z " />
<glyph unicode="@" horiz-adv-x="1837" d="M878.5 195q-161.5 0 -264 131t-102.5 307t102.5 308t264.5 132q137 0 225 -119v99h133v-602q0 -72 40 -113t91 -41q209 0 209 350q0 293 -186.5 489.5t-472.5 196.5q-291 0 -482.5 -196.5t-191.5 -489.5t191.5 -488.5t482.5 -195.5q193 0 333 82l62 -108 q-182 -104 -395 -105q-338 0 -577 238.5t-239 576.5t239 577.5t577 239.5q336 0 566 -238.5t230 -578.5q0 -207 -91 -337t-255 -130q-86 0 -149.5 46t-92.5 120q-86 -151 -247.5 -151zM879 946q-102 0 -163 -92t-61 -221t60.5 -220t163 -91t164 91t61.5 220v12 q-4 125 -64.5 213t-160.5 88z" />
<glyph unicode="A" horiz-adv-x="1241" d="M209 0h-148l478 1444h163l478 -1444h-148l-166 510h-493zM621 1270l-203 -625h405z" />
<glyph unicode="B" horiz-adv-x="1099" d="M133 0v1444h463q154 0 263.5 -104.5t109.5 -258.5q0 -180 -148 -282q100 -55 158.5 -151.5t58.5 -215.5q0 -184 -129 -308t-313 -124h-463zM276 133h320q121 0 205 89t84 210t-84 207t-205 86h-320v-592zM276 860h320q92 0 155.5 64.5t63.5 157t-64.5 161t-154.5 68.5 h-320v-451z" />
<glyph unicode="C" horiz-adv-x="1249" d="M647 113q131 0 221 90t140 227h159q-61 -201 -194 -325.5t-326 -124.5q-176 0 -308 109.5t-194.5 275t-62.5 356t62.5 356.5t194.5 276.5t308 110.5q193 0 326 -125t194 -325h-159q-49 137 -139.5 227t-221.5 90t-228 -97t-140 -232.5t-43 -281t43 -280.5t140 -231 t228 -96z" />
<glyph unicode="D" horiz-adv-x="1230" d="M133 1444h465q170 0 299 -109.5t190.5 -271.5t61.5 -342q0 -178 -63.5 -341t-192.5 -271.5t-295 -108.5h-465v1444zM578 1311h-302v-1178h302q186 0 301.5 183.5t115.5 402.5q0 238 -108 415t-309 177z" />
<glyph unicode="E" horiz-adv-x="983" d="M707 788v-135h-431v-520h646v-133h-789v1444h789v-133h-646v-523h431z" />
<glyph unicode="F" horiz-adv-x="952" d="M276 0h-143v1444h778v-133h-635v-523h431v-135h-431v-653z" />
<glyph unicode="G" horiz-adv-x="1298" d="M647 639h559q-12 -170 -77.5 -316.5t-191.5 -244.5t-290 -98q-176 0 -308 109.5t-194.5 275t-62.5 356t62.5 356.5t194.5 276.5t308 110.5q193 0 326 -125t194 -325h-159q-49 137 -139.5 227t-221.5 90t-228 -97t-140 -232.5t-43 -281t43 -280.5t140 -231t228 -96 q145 0 247.5 111.5t143.5 281.5h-391v133z" />
<glyph unicode="H" horiz-adv-x="1167" d="M276 653v-653h-143v1444h143v-656h615v656h143v-1444h-143v653h-615z" />
<glyph unicode="I" horiz-adv-x="409" d="M276 1444v-1444h-143v1444h143z" />
<glyph unicode="J" horiz-adv-x="968" d="M723 1444h143v-1030q0 -188 -108.5 -311t-288.5 -123q-178 0 -287.5 129t-109.5 305v20h143v-20q0 -129 67.5 -215t186.5 -86t186.5 86t67.5 215v1030z" />
<glyph unicode="K" horiz-adv-x="989" d="M418 758l551 -758h-185l-460 641l-48 -59v-582h-143v1444h143v-651l529 651h164z" />
<glyph unicode="L" horiz-adv-x="972" d="M133 1444h143v-1311h635v-133h-778v1444z" />
<glyph unicode="M" horiz-adv-x="1413" d="M133 1444h215l359 -1190l358 1190h215v-1444h-139v1204l-373 -1204h-123l-373 1204v-1204h-139v1444z" />
<glyph unicode="N" horiz-adv-x="1187" d="M915 240v1204h140v-1444h-185l-598 1202v-1202h-139v1444h184z" />
<glyph unicode="O" horiz-adv-x="1290" d="M647 1331q-131 0 -228 -97t-140 -232.5t-43 -281t43 -280.5t140 -231t228 -96t227.5 96t138.5 231t42 280.5t-42 281t-138.5 232.5t-227.5 97zM647 -20q-176 0 -308 109.5t-194.5 275t-62.5 356t62.5 356.5t194.5 276.5t308 110.5t307 -110.5t192.5 -276.5t61.5 -356.5 t-61.5 -355t-192.5 -275t-307 -110.5z" />
<glyph unicode="P" horiz-adv-x="1089" d="M276 0h-143v1444h465q178 0 309 -109.5t131 -288t-131 -288t-309 -109.5h-322v-649zM276 782h322q125 0 206 72t81 192.5t-81 192.5t-206 72h-322v-529z" />
<glyph unicode="Q" horiz-adv-x="1290" d="M743 -10l148 -443h-148l-143 435q-162 14 -282.5 125.5t-178 272.5t-57.5 341q0 190 62.5 356t194.5 276.5t308 110.5t307 -110.5t192.5 -276.5t61.5 -356q0 -172 -51 -325.5t-159 -266t-255 -139.5zM647 1331q-131 0 -228 -97t-140 -232.5t-43 -281t43 -280.5t140 -231 t228 -96t227.5 96t138.5 231t42 280.5t-42 281t-138.5 232.5t-227.5 97z" />
<glyph unicode="R" horiz-adv-x="1130" d="M702 659l357 -659h-164l-350 649h-269v-649h-143v1444h465q178 0 309 -109.5t131 -287.5q0 -150 -96.5 -253.5t-239.5 -134.5zM276 782h322q125 0 206 72t81 192.5t-81 192.5t-206 72h-322v-529z" />
<glyph unicode="S" horiz-adv-x="1161" d="M987 1087h-153q0 106 -79 177t-190 71q-121 0 -194.5 -69.5t-73.5 -178.5q0 -51 20.5 -90t67.5 -69.5t87 -48t114 -43.5q23 -8 93.5 -33t93 -34t76.5 -33.5t74.5 -41t56.5 -48.5t48 -63.5t24.5 -75.5t12.5 -97q0 -205 -138.5 -317.5t-340.5 -112.5q-205 0 -344.5 112.5 t-139.5 317.5h154q0 -137 88 -219t241.5 -82t241.5 81.5t88 219.5q0 37 -10 67.5t-39.5 57t-48 42t-73 38t-73 29.5t-85.5 32q-215 78 -283 121q-156 100 -156 290q0 166 122 271.5t296 105.5t298 -106.5t124 -270.5z" />
<glyph unicode="T" horiz-adv-x="1064" d="M604 1311v-1311h-143v1311h-430v133h1003v-133h-430z" />
<glyph unicode="U" horiz-adv-x="1085" d="M993 1444v-1014q0 -197 -131 -323.5t-319.5 -126.5t-319.5 126.5t-131 323.5v1014h144v-1014q0 -131 89 -224t218 -93t218 93t89 224v1014h143z" />
<glyph unicode="V" horiz-adv-x="1241" d="M61 1444h148l412 -1270l411 1270h148l-478 -1444h-163z" />
<glyph unicode="W" horiz-adv-x="2019" d="M1354 0l-344 1194l-344 -1194h-164l-375 1444h147l318 -1239l346 1239h143l346 -1239l318 1239h147l-374 -1444h-164z" />
<glyph unicode="X" horiz-adv-x="1265" d="M1204 0h-168l-409 659l-398 -659h-168l482 797l-402 647h168l330 -533l317 533h168l-401 -668z" />
<glyph unicode="Y" horiz-adv-x="1097" d="M547 780l360 664h166l-450 -799v-645h-150v641l-453 803h166z" />
<glyph unicode="Z" horiz-adv-x="1122" d="M1040 0h-958v143l782 1168h-702v133h878v-144l-794 -1167h794v-133z" />
<glyph unicode="[" horiz-adv-x="573" d="M553 1444h-287v-1557h287v-133h-430v1823h430v-133z" />
<glyph unicode="\" horiz-adv-x="798" d="M553 0l-492 1444h144l491 -1444h-143z" />
<glyph unicode="]" horiz-adv-x="573" d="M307 1444h-287v133h431v-1823h-431v133h287v1557z" />
<glyph unicode="^" horiz-adv-x="1239" d="M260 276h-158l443 738h147l445 -738h-158l-361 596z" />
<glyph unicode="_" horiz-adv-x="1024" d="M1004 0v-143h-984v143h984z" />
<glyph unicode="`" horiz-adv-x="468" d="M236 991l-150 453h127l149 -453h-126z" />
<glyph unicode="a" horiz-adv-x="847" d="M420 858q139 0 223 -81t84 -218v-344q0 -41 33 -94t65 -88l33 -33h-164q-37 29 -55 61q-92 -82 -233 -81q-131 0 -227.5 71.5t-96.5 196.5t96 195.5t228 70.5q106 0 188 -49v63q0 211 -184 211q-70 0 -117 -42t-47 -103h-129q0 121 85 192.5t218 71.5zM215 248 q0 -76 53.5 -113t137.5 -37q131 0 188 66v166q-57 66 -188 65q-84 0 -137.5 -36.5t-53.5 -110.5z" />
<glyph unicode="b" horiz-adv-x="905" d="M461 -20q-147 0 -225 124v-104h-134v1444h134v-713q80 127 225 127q162 0 262 -131t100 -309t-100 -308t-262 -130zM461 731q-100 0 -160.5 -88t-64.5 -213v-24q4 -127 63 -213.5t161.5 -86.5t163 91.5t60.5 220.5t-60.5 221t-162.5 92z" />
<glyph unicode="c" d="M645 266h143q-37 -127 -127 -206.5t-215 -79.5q-162 0 -263 130t-101 308t101.5 309t262.5 131q125 0 214.5 -80t125.5 -205h-143q-59 158 -197 158q-102 0 -163.5 -92t-61.5 -221t61.5 -220.5t163.5 -91.5q70 0 122 43t77 117z" />
<glyph unicode="d" horiz-adv-x="925" d="M670 0v102q-82 -123 -226 -122q-162 0 -262 130t-100 308t100.5 309t261.5 131q141 0 226 -125v711h133v-1444h-133zM444.5 731q-102.5 0 -163 -92t-60.5 -221t60.5 -220.5t163 -91.5t164 91.5t61.5 220.5t-61.5 221t-164 92z" />
<glyph unicode="e" horiz-adv-x="890" d="M809 418v-19h-590q4 -125 65.5 -210t161.5 -85q70 0 128.5 45.5t87.5 116.5h139q-37 -125 -132.5 -205.5t-222.5 -80.5q-162 0 -263 130t-101 308t101.5 309t263 131t262 -131t100.5 -309zM446.5 733q-81.5 0 -139 -59.5t-78.5 -155.5h433q-20 94 -77 154.5t-138.5 60.5z " />
<glyph unicode="f" horiz-adv-x="645" d="M748 1155h-134v41q0 145 -122 145q-59 0 -91 -39.5t-32 -103.5v-360h184v-123h-184v-715h-133v715h-175v123h175v350q0 125 67.5 200.5t188.5 75.5q115 0 185.5 -70.5t70.5 -185.5v-53z" />
<glyph unicode="g" horiz-adv-x="839" d="M119 535q0 109 70.5 199.5t179.5 115.5l131 395h127l-131 -393q113 -25 184.5 -116t71.5 -201q0 -137 -90.5 -230.5t-227.5 -93.5q-115 0 -115 -84q0 -45 31 -71.5t84 -26.5q150 0 257.5 -92.5t107.5 -235.5t-107.5 -234.5t-257 -91.5t-256 91.5t-106.5 234.5 q0 186 176 281q-74 49 -74 135q0 94 84 145q-139 93 -139 273zM205 -299q0 -90 66.5 -143.5t162.5 -53.5t164 54.5t68 142.5q0 90 -69 147.5t-163 57.5t-161.5 -57.5t-67.5 -147.5zM434 739q-82 0 -134 -55t-52 -149.5t52 -149.5t134 -55q84 0 136.5 55t52.5 149.5 t-53.5 149.5t-135.5 55z" />
<glyph unicode="h" horiz-adv-x="839" d="M236 496v-496h-134v1444h134v-696q78 111 204 110q137 0 217 -80t80 -219v-559h-133v528q0 207 -174 207q-86 0 -139 -71.5t-55 -167.5z" />
<glyph unicode="i" horiz-adv-x="358" d="M246 838v-838h-133v838h133zM256 1241v-154h-154v154h154z" />
<glyph unicode="j" horiz-adv-x="358" d="M113 -358v1196h133v-1186q0 -125 -67.5 -201t-188.5 -76q-115 0 -185.5 71t-70.5 185v54h133v-41q0 -145 123 -146q59 0 91 40.5t32 103.5zM256 1241v-154h-154v154h154z" />
<glyph unicode="k" horiz-adv-x="802" d="M236 338v-338h-134v1444h134v-928l339 322h187l-428 -406l459 -432h-199z" />
<glyph unicode="l" horiz-adv-x="358" d="M246 1444v-1444h-133v1444h133z" />
<glyph unicode="m" horiz-adv-x="1361" d="M256 496v-496h-133v838h133v-90q78 111 205 110q188 0 264 -147q88 147 238 147q137 0 217 -80t80 -219v-559h-134v528q0 207 -174 207q-88 0 -141 -74.5t-53 -173.5v-487h-133v528q0 207 -174 207q-86 0 -139.5 -71.5t-55.5 -167.5z" />
<glyph unicode="n" d="M256 496v-496h-133v838h133v-90q78 111 205 110q137 0 217 -80t80 -219v-559h-133v528q0 207 -174 207q-86 0 -139.5 -71.5t-55.5 -167.5z" />
<glyph unicode="o" horiz-adv-x="890" d="M446.5 731q-102.5 0 -164 -92t-61.5 -221t61.5 -220.5t164 -91.5t163 91.5t60.5 220.5t-60.5 221t-163 92zM446.5 -20q-161.5 0 -263 130t-101.5 308t101.5 309t263 131t262 -131t100.5 -309t-100.5 -308t-262 -130z" />
<glyph unicode="p" horiz-adv-x="925" d="M481 -20q-147 0 -225 124v-708h-133v1442h133v-107q80 127 225 127q162 0 262.5 -131t100.5 -309t-100.5 -308t-262.5 -130zM481 731q-100 0 -160.5 -88t-64.5 -213v-24q4 -127 63.5 -213.5t162 -86.5t163 91.5t60.5 220.5t-61 221t-163 92z" />
<glyph unicode="q" horiz-adv-x="925" d="M444 -20q-162 0 -262 130t-100 308t100.5 309t261.5 131q141 0 226 -125v105h133v-1442h-133v706q-83 -122 -226 -122zM444.5 731q-102.5 0 -163 -92t-60.5 -221t60.5 -220.5t163 -91.5t164 91.5t61.5 220.5t-61.5 221t-164 92z" />
<glyph unicode="r" horiz-adv-x="696" d="M256 543v-543h-133v838h133v-76q61 96 174 96q100 0 162.5 -70.5t62.5 -185.5v-33h-133v21q0 70 -29.5 107.5t-82.5 37.5q-80 0 -116 -59t-38 -133z" />
<glyph unicode="s" horiz-adv-x="782" d="M397 -20q-133 0 -224 77.5t-91 202.5v6h133v-6q0 -74 54.5 -118t127.5 -44q184 0 185 140q0 45 -50.5 71.5t-122 44t-143 41t-122 77.5t-50.5 140q0 117 86 181.5t217 64.5q123 0 209 -73.5t94 -190.5h-135q-12 61 -54 103t-114 42q-78 0 -122 -32.5t-44 -94.5 q0 -45 50.5 -71.5t122 -44t143 -41t122 -77.5t50.5 -140q0 -123 -92.5 -190.5t-229.5 -67.5z" />
<glyph unicode="t" horiz-adv-x="757" d="M358 715v-445q0 -84 22.5 -126t80 -42t80 42t22.5 126h133v-32q0 -119 -61.5 -188.5t-174 -69.5t-174 69.5t-61.5 188.5v477h-164v123h164v399h133v-399h205v-123h-205z" />
<glyph unicode="u" d="M604 342v496h133v-838h-133v90q-78 -111 -205 -110q-137 0 -217 79.5t-80 219.5v559h134v-529q0 -207 174 -207q86 0 139 72t55 168z" />
<glyph unicode="v" horiz-adv-x="790" d="M41 838h145l209 -654l209 654h146l-287 -838h-135z" />
<glyph unicode="w" horiz-adv-x="1353" d="M891 0l-215 629l-213 -629h-135l-287 838h145l209 -656l213 656h137l213 -656l209 656h146l-287 -838h-135z" />
<glyph unicode="x" horiz-adv-x="833" d="M340 432l-283 406h154l205 -297l205 297h153l-282 -406l301 -432h-152l-225 322l-223 -322h-152z" />
<glyph unicode="y" horiz-adv-x="757" d="M195 -498q123 0 122 203v295l-309 838h150l225 -650l209 650h145l-286 -838v-326q0 -127 -69 -213t-187 -86q-121 0 -188.5 77t-67.5 202v31h133q0 -88 25.5 -135.5t97.5 -47.5z" />
<glyph unicode="z" horiz-adv-x="757" d="M717 0h-635v127l465 584h-445v127h615v-127l-475 -584h475v-127z" />
<glyph unicode="{" horiz-adv-x="847" d="M549 350v-217q0 -113 56.5 -183.5t160.5 -70.5v-133q-160 0 -264.5 111.5t-104.5 275.5v217q0 106 -61.5 173t-155.5 67h-78v143h78q94 0 155.5 66.5t61.5 173.5v217q0 164 104.5 275.5t264.5 111.5v-133q-104 0 -160.5 -70.5t-56.5 -183.5v-217q0 -96 -49 -179 t-131 -132q82 -51 131 -133.5t49 -178.5z" />
<glyph unicode="|" horiz-adv-x="389" d="M266 1464v-1607h-143v1607h143z" />
<glyph unicode="}" horiz-adv-x="847" d="M299 350q0 96 49 178t131 134q-82 49 -131 132t-49 179v217q0 113 -56.5 183.5t-160.5 70.5v133q160 0 264.5 -111.5t104.5 -275.5v-217q0 -106 61 -173t156 -67h77v-143h-77q-94 0 -155.5 -66.5t-61.5 -173.5v-217q0 -164 -104.5 -275.5t-264.5 -111.5v133 q104 0 160.5 70.5t56.5 183.5v217z" />
<glyph unicode="~" horiz-adv-x="1044" d="M696 518q57 0 98.5 43t41.5 103h125q0 -111 -78 -191t-187 -80q-74 0 -127 37t-95 74t-87 37q-57 0 -98 -43t-41 -103h-125q0 111 78 191t186 80q74 0 127 -37t95 -74t87 -37z" />
<glyph unicode="&#xa1;" horiz-adv-x="348" d="M266 532v-1136h-143v1136h143zM274 840v-160h-159v160h159z" />
<glyph unicode="&#xa2;" d="M645 266h143q-31 -109 -102.5 -184.5t-171.5 -93.5v-193h-135v193q-135 27 -216 149.5t-81 280.5q0 156 81 279.5t216 152.5v192h135v-192q98 -18 169 -94t103 -183h-143q-59 158 -197 158q-102 0 -163.5 -92t-61.5 -221t61.5 -220.5t163.5 -91.5q70 0 122 43t77 117z " />
<glyph unicode="&#xa3;" horiz-adv-x="1163" d="M938 0h-682v649h-154v144h154v237q0 188 108.5 311t288.5 123q178 0 288 -129t110 -305v-20h-144v20q0 129 -67.5 215t-186 86t-186.5 -86t-68 -215v-237h277v-144h-277v-516h539v-133z" />
<glyph unicode="&#xa5;" horiz-adv-x="1097" d="M623 362v-362h-150v362h-270v123h270v156l-4 8h-266v123h196l-379 672h166l361 -666l360 666h166l-379 -672h201v-123h-270l-2 -4v-160h272v-123h-272z" />
<glyph unicode="&#xa6;" horiz-adv-x="389" d="M123 649h143v-792h-143v792zM266 793h-143v671h143v-671z" />
<glyph unicode="&#xa7;" horiz-adv-x="1036" d="M934 2q0 -168 -118 -284.5t-288 -116.5q-168 0 -282.5 115.5t-114.5 285.5v37h143v-41q0 -109 74 -186.5t180.5 -77.5t180 78.5t73.5 189.5t-73.5 189.5t-180.5 78.5q-170 0 -287.5 117t-117.5 285q0 111 49 196q-49 86 -49 195q0 168 117.5 284.5t287.5 116.5 q168 0 283 -115.5t115 -285.5v-37h-144v41q0 109 -73.5 186.5t-180 77.5t-180.5 -78.5t-74 -189.5t74 -189.5t180 -78.5q170 0 288 -117t118 -285q0 -104 -49 -196q49 -93 49 -195zM274 672q0 -111 74 -190t180 -79q137 0 246 -81q8 45 8 71q0 111 -73.5 190t-180.5 79 q-141 0 -245 79q-9 -30 -9 -69z" />
<glyph unicode="&#xa8;" horiz-adv-x="651" d="M553 1262v-168h-168v168h168zM266 1262v-168h-168v168h168z" />
<glyph unicode="&#xa9;" horiz-adv-x="1837" d="M102 647q0 338 240 577.5t576 239.5q338 0 577.5 -239.5t239.5 -577.5q0 -336 -240 -575.5t-577 -239.5q-336 0 -576 239.5t-240 575.5zM244 647q0 -291 192.5 -487.5t481 -196.5t481 196.5t192.5 487.5t-192.5 488.5t-481 197.5t-481 -197.5t-192.5 -488.5zM1268 496 h-140q-25 -74 -79 -119t-123 -45q-104 0 -167 93t-63 222t63.5 223.5t166.5 94.5q68 0 121 -45.5t79 -116.5h140q-37 125 -126 204.5t-214 79.5q-162 0 -263.5 -131t-101.5 -309t101.5 -308t263.5 -130q125 0 215 80t127 207z" />
<glyph unicode="&#xaa;" horiz-adv-x="847" d="M444 586q-162 0 -262 130t-100 308t100.5 309t261.5 131q141 0 226 -125v105h133v-838h-133v103q-83 -123 -226 -123zM444.5 1337q-102.5 0 -163 -92t-60.5 -221t60.5 -220t163 -91t164 91t61.5 220t-61.5 221t-164 92z" />
<glyph unicode="&#xab;" horiz-adv-x="1024" d="M102 553v147l410 297v-147l-307 -223l307 -221v-148zM922 258l-410 295v147l410 297v-147l-308 -223l308 -221v-148z" />
<glyph unicode="&#xac;" horiz-adv-x="993" d="M102 516v125h789v-412h-143v287h-646z" />
<glyph unicode="&#xad;" horiz-adv-x="655" d="M614 608v-143h-573v143h573z" />
<glyph unicode="&#xae;" horiz-adv-x="1837" d="M917.5 -168q-346.5 0 -581 234.5t-234.5 580.5t234.5 581.5t581 235.5t581 -235.5t234.5 -581.5t-234.5 -580.5t-581 -234.5zM244 647q0 -293 192.5 -488.5t481.5 -195.5q291 0 482 195.5t191 488.5t-191.5 489.5t-482 196.5t-482 -196.5t-191.5 -489.5zM653 223h123v371 h131l211 -371h144l-218 377q94 18 159 85t65 157q0 109 -78 177t-201 68h-336v-864zM950 711h-174v260h174q178 0 178 -129q0 -131 -178 -131z" />
<glyph unicode="&#xaf;" horiz-adv-x="727" d="M102 1239h523v-125h-523v125z" />
<glyph unicode="&#xb0;" horiz-adv-x="686" d="M102 1222.5q0 100.5 70 171t170 70.5t171 -70.5t71 -171t-71 -170t-171 -69.5t-170 69.5t-70 170zM215 1222.5q0 -55.5 37 -94t90 -38.5t91 39.5t38 93.5q0 55 -38 95t-91 40t-90 -40t-37 -95.5z" />
<glyph unicode="&#xb1;" horiz-adv-x="993" d="M563 702h328v-124h-328v-373h-133v373h-328v124h328v373h133v-373zM102 125h789v-125h-789v125z" />
<glyph unicode="&#xb2;" horiz-adv-x="763" d="M688 1219q0 -139 -141 -258l-279 -232h432v-123h-618v123l377 320q59 51 75.5 85.5t16.5 84.5q0 61 -44 94t-122 33q-72 0 -114 -42t-54 -104h-135q8 117 94 190.5t209 73.5q131 0 217 -64t86 -181z" />
<glyph unicode="&#xb3;" horiz-adv-x="782" d="M719 844q0 -123 -92 -190.5t-230 -67.5q-133 0 -224 77.5t-91 202.5v6h133v-6q0 -74 54.5 -117.5t127.5 -43.5q184 0 185 139q0 55 -41 90t-115 35h-59v125h59q74 0 113 34.5t39 90.5q0 61 -44.5 94t-121.5 33q-72 0 -114 -42t-54 -104h-135q8 117 94 190.5t209 73.5 q129 0 216 -64.5t87 -180.5q0 -78 -38 -120t-108 -67q150 -51 150 -188z" />
<glyph unicode="&#xb4;" horiz-adv-x="468" d="M383 1444l-150 -453h-127l150 453h127z" />
<glyph unicode="&#xb6;" horiz-adv-x="1130" d="M676 649v-649h-135v649h-39q-178 0 -309.5 109.5t-131.5 288t131.5 288t309.5 109.5h608v-133h-147v-1311h-136v649h-151zM215 1046.5q0 -120.5 81 -192.5t206 -72h39v529h-39q-125 0 -206 -72t-81 -192.5zM676 1311v-529h151v529h-151z" />
<glyph unicode="&#xb7;" horiz-adv-x="364" d="M266 799v-164h-168v164h168z" />
<glyph unicode="&#xb8;" horiz-adv-x="460" d="M369 63l-150 -452h-127l150 452h127z" />
<glyph unicode="&#xb9;" horiz-adv-x="749" d="M565 1444v-838h-137v572q-94 -133 -268 -134h-17v123h21q102 0 181 79t83 186v12h137z" />
<glyph unicode="&#xba;" horiz-adv-x="890" d="M82 319v134h727v-134h-727zM446.5 1337q-102.5 0 -164 -92t-61.5 -221t61.5 -220t164 -91t163 91t60.5 220t-60.5 221t-163 92zM446.5 586q-161.5 0 -263 130t-101.5 308t101.5 309t263 131t262 -131t100.5 -309t-100.5 -308t-262 -130z" />
<glyph unicode="&#xbb;" horiz-adv-x="1024" d="M922 700v-147l-410 -295v148l307 221l-307 223v147zM512 700v-147l-410 -295v148l308 221l-308 223v147z" />
<glyph unicode="&#xbc;" horiz-adv-x="1679" d="M565 1444v-838h-137v572q-94 -133 -268 -134h-17v123h21q102 0 181 79t83 186v12h137zM1268 838h143v-539h174v-113h-174v-186h-123v186h-389v133zM1024 299h264v371zM389 0l811 1444h141l-811 -1444h-141z" />
<glyph unicode="&#xbd;" horiz-adv-x="1679" d="M1565 612q0 -139 -142 -258l-278 -231h432v-123h-619v123l377 319q59 51 75.5 86t16.5 84q0 61 -44 94t-121 33q-72 0 -114 -42t-54 -103h-136q8 117 94.5 190.5t209.5 73.5q129 0 216 -64.5t87 -181.5zM307 0l811 1444h142l-811 -1444h-142zM537 1444v-838h-138v572 q-94 -133 -268 -134h-16v123h20q102 0 181 79t83 186v12h138z" />
<glyph unicode="&#xbe;" horiz-adv-x="1679" d="M1292 838h144v-539h174v-113h-174v-186h-123v186h-389v133zM719 844q0 -123 -92 -190.5t-230 -67.5q-133 0 -224 77.5t-91 202.5v6h133v-6q0 -74 54.5 -117.5t127.5 -43.5q184 0 185 139q0 55 -41 90t-115 35h-59v125h59q74 0 113 34.5t39 90.5q0 61 -44.5 94t-121.5 33 q-72 0 -114 -42t-54 -104h-135q8 117 94 190.5t209 73.5q129 0 216 -64.5t87 -180.5q0 -78 -38 -120t-108 -67q150 -51 150 -188zM440 0l811 1444h142l-811 -1444h-142zM1049 299h264v371z" />
<glyph unicode="&#xbf;" horiz-adv-x="1007" d="M436 410v122h148v-122q0 -127 -88 -240l-201 -256q-41 -51 -41 -141q0 -109 73.5 -187t180 -78t180.5 78t74 187v41h143v-37q0 -170 -114.5 -286t-282.5 -116q-170 0 -288 117t-118 285q0 125 91 239l200 252q43 56 43 142zM430 680v160h160v-160h-160z" />
<glyph unicode="&#xc0;" horiz-adv-x="1241" d="M61 0h148l164 510h493l166 -510h148l-478 1444h-163zM418 645l203 625l202 -625h-405zM549 1516l-88 256h125l88 -256h-125z" />
<glyph unicode="&#xc1;" horiz-adv-x="1241" d="M209 0h-148l478 1444h163l478 -1444h-148l-166 510h-493zM621 1270l-203 -625h405zM770 1772l-88 -256h-125l88 256h125z" />
<glyph unicode="&#xc2;" horiz-adv-x="1241" d="M209 0h-148l478 1444h163l478 -1444h-148l-166 510h-493zM621 1270l-203 -625h405zM678 1772l178 -256h-137l-101 157l-98 -157h-135l178 256h115z" />
<glyph unicode="&#xc3;" horiz-adv-x="1241" d="M61 0h148l164 510h493l166 -510h148l-478 1444h-163zM418 645l203 625l202 -625h-405zM727 1649q57 0 94 53l80 -78q-80 -94 -174 -94q-49 0 -117.5 36t-97.5 36q-57 0 -94 -54l-80 78q78 94 172 94q47 0 116.5 -35.5t100.5 -35.5z" />
<glyph unicode="&#xc4;" horiz-adv-x="1241" d="M209 0h-148l478 1444h163l478 -1444h-148l-166 510h-493zM621 1270l-203 -625h405zM844 1716v-160h-160v160h160zM557 1716v-160h-160v160h160z" />
<glyph unicode="&#xc5;" horiz-adv-x="1241" d="M420 1536q0 84 58.5 142.5t142.5 58.5t142 -59.5t58 -141.5q0 -113 -94 -170l453 -1366h-148l-166 510h-493l-164 -510h-148l451 1366q-92 57 -92 170zM621 1270l-203 -625h405zM518 1536q0 -61 51 -92h101q53 33 53 92q0 41 -30.5 73.5t-71.5 32.5q-43 0 -73 -31.5 t-30 -74.5z" />
<glyph unicode="&#xc6;" horiz-adv-x="1708" d="M1411 788v-135h-430v-520h645v-133h-788v510h-383l-295 -510h-160l838 1444h788v-133h-645v-523h430zM535 645h303v522z" />
<glyph unicode="&#xc7;" horiz-adv-x="1249" d="M727 -14l-125 -377h-127l123 375q-162 14 -281.5 125.5t-177 271.5t-57.5 340q0 190 62.5 356t194.5 276.5t308 110.5q193 0 326 -125t194 -325h-159q-49 137 -139.5 227t-221.5 90t-228 -97t-140 -232.5t-43 -281t43 -280.5t140 -231t228 -96t221 90t140 227h159 q-53 -180 -165.5 -299.5t-274.5 -144.5z" />
<glyph unicode="&#xc8;" horiz-adv-x="983" d="M707 653v135h-431v523h646v133h-789v-1444h789v133h-646v520h431zM475 1516l-88 256h125l88 -256h-125z" />
<glyph unicode="&#xc9;" horiz-adv-x="983" d="M707 788v-135h-431v-520h646v-133h-789v1444h789v-133h-646v-523h431zM643 1772l-88 -256h-125l88 256h125z" />
<glyph unicode="&#xca;" horiz-adv-x="983" d="M707 788v-135h-431v-520h646v-133h-789v1444h789v-133h-646v-523h431zM563 1772l178 -256h-137l-100 157l-98 -157h-136l179 256h114z" />
<glyph unicode="&#xcb;" horiz-adv-x="983" d="M707 788v-135h-431v-520h646v-133h-789v1444h789v-133h-646v-523h431zM750 1716v-160h-160v160h160zM463 1716v-160h-160v160h160z" />
<glyph unicode="&#xcc;" horiz-adv-x="409" d="M276 0v1444h-143v-1444h143zM172 1516l-88 256h125l88 -256h-125z" />
<glyph unicode="&#xcd;" horiz-adv-x="409" d="M276 1444v-1444h-143v1444h143zM326 1772l-88 -256h-125l88 256h125z" />
<glyph unicode="&#xce;" horiz-adv-x="409" d="M276 1444v-1444h-143v1444h143zM262 1772l178 -256h-137l-100 157l-99 -157h-135l178 256h115z" />
<glyph unicode="&#xcf;" horiz-adv-x="409" d="M276 1444v-1444h-143v1444h143zM428 1716v-160h-160v160h160zM141 1716v-160h-159v160h159z" />
<glyph unicode="&#xd0;" horiz-adv-x="1302" d="M205 1444h465q170 0 299 -109.5t190.5 -271.5t61.5 -342q0 -178 -63.5 -341t-192.5 -271.5t-295 -108.5h-465v653h-164v135h164v656zM649 1311h-301v-523h225v-135h-225v-520h301q186 0 302 183.5t116 402.5q0 238 -108.5 415t-309.5 177z" />
<glyph unicode="&#xd1;" horiz-adv-x="1187" d="M915 1444v-1204l-598 1204h-184v-1444h139v1202l598 -1202h185v1444h-140zM700 1649q57 0 95 53l79 -78q-80 -94 -174 -94q-49 0 -117.5 36t-97.5 36q-57 0 -94 -54l-80 78q78 94 172 94q49 0 118.5 -35.5t98.5 -35.5z" />
<glyph unicode="&#xd2;" horiz-adv-x="1290" d="M647 1331q131 0 227.5 -97t138.5 -232.5t42 -281t-42 -280.5t-138.5 -231t-227.5 -96t-228 96t-140 231t-43 280.5t43 281t140 232.5t228 97zM647 -20q176 0 307 110.5t192.5 275t61.5 355t-61.5 356.5t-192.5 276.5t-307 110.5t-308 -110.5t-194.5 -276.5t-62.5 -356.5 t62.5 -356t194.5 -275t308 -109.5zM588 1516l-88 256h125l88 -256h-125z" />
<glyph unicode="&#xd3;" horiz-adv-x="1290" d="M647 1331q-131 0 -228 -97t-140 -232.5t-43 -281t43 -280.5t140 -231t228 -96t227.5 96t138.5 231t42 280.5t-42 281t-138.5 232.5t-227.5 97zM647 -20q-176 0 -308 109.5t-194.5 275t-62.5 356t62.5 356.5t194.5 276.5t308 110.5t307 -110.5t192.5 -276.5t61.5 -356.5 t-61.5 -355t-192.5 -275t-307 -110.5zM782 1772l-88 -256h-125l88 256h125z" />
<glyph unicode="&#xd4;" horiz-adv-x="1290" d="M647 1331q-131 0 -228 -97t-140 -232.5t-43 -281t43 -280.5t140 -231t228 -96t227.5 96t138.5 231t42 280.5t-42 281t-138.5 232.5t-227.5 97zM647 -20q-176 0 -308 109.5t-194.5 275t-62.5 356t62.5 356.5t194.5 276.5t308 110.5t307 -110.5t192.5 -276.5t61.5 -356.5 t-61.5 -355t-192.5 -275t-307 -110.5zM702 1772l179 -256h-138l-100 157l-98 -157h-135l178 256h114z" />
<glyph unicode="&#xd5;" horiz-adv-x="1290" d="M647 1331q131 0 227.5 -97t138.5 -232.5t42 -281t-42 -280.5t-138.5 -231t-227.5 -96t-228 96t-140 231t-43 280.5t43 281t140 232.5t228 97zM647 -20q176 0 307 110.5t192.5 275t61.5 355t-61.5 356.5t-192.5 276.5t-307 110.5t-308 -110.5t-194.5 -276.5t-62.5 -356.5 t62.5 -356t194.5 -275t308 -109.5zM752 1649q57 0 94 53l80 -78q-80 -94 -174 -94q-49 0 -118 36t-97 36q-57 0 -95 -54l-80 78q78 94 173 94q47 0 116.5 -35.5t100.5 -35.5z" />
<glyph unicode="&#xd6;" horiz-adv-x="1290" d="M647 1331q-131 0 -228 -97t-140 -232.5t-43 -281t43 -280.5t140 -231t228 -96t227.5 96t138.5 231t42 280.5t-42 281t-138.5 232.5t-227.5 97zM647 -20q-176 0 -308 109.5t-194.5 275t-62.5 356t62.5 356.5t194.5 276.5t308 110.5t307 -110.5t192.5 -276.5t61.5 -356.5 t-61.5 -355t-192.5 -275t-307 -110.5zM874 1716v-160h-159v160h159zM588 1716v-160h-160v160h160z" />
<glyph unicode="&#xd7;" horiz-adv-x="915" d="M457 672l262 262l94 -94l-262 -262l262 -261l-94 -94l-262 260l-260 -260l-95 94l260 261l-260 262l95 94z" />
<glyph unicode="&#xd8;" horiz-adv-x="1290" d="M647 -20q-188 0 -330 126l-71 -106h-164l141 213q-141 209 -141 508q0 190 62.5 356t194.5 276.5t308 110.5q184 0 326 -127l71 107h164l-143 -213q143 -215 143 -510q0 -190 -61.5 -355t-192.5 -275.5t-307 -110.5zM647 113q131 0 227.5 96t138.5 231t42 281 q0 207 -82 371l-576 -863q103 -116 250 -116zM647 1331q-131 0 -228 -97t-140 -232.5t-43 -280.5q0 -203 79 -369l578 865q-105 114 -246 114z" />
<glyph unicode="&#xd9;" horiz-adv-x="1085" d="M993 430v1014h-143v-1014q0 -131 -89 -224t-218 -93t-218 93t-89 224v1014h-144v-1014q0 -197 131 -323.5t319.5 -126.5t319.5 126.5t131 323.5zM453 1516l-88 256h124l89 -256h-125z" />
<glyph unicode="&#xda;" horiz-adv-x="1085" d="M993 1444v-1014q0 -197 -131 -323.5t-319.5 -126.5t-319.5 126.5t-131 323.5v1014h144v-1014q0 -131 89 -224t218 -93t218 93t89 224v1014h143zM680 1772l-88 -256h-125l88 256h125z" />
<glyph unicode="&#xdb;" horiz-adv-x="1085" d="M993 1444v-1014q0 -197 -131 -323.5t-319.5 -126.5t-319.5 126.5t-131 323.5v1014h144v-1014q0 -131 89 -224t218 -93t218 93t89 224v1014h143zM600 1772l178 -256h-137l-100 157l-99 -157h-135l178 256h115z" />
<glyph unicode="&#xdc;" horiz-adv-x="1085" d="M993 1444v-1014q0 -197 -131 -323.5t-319.5 -126.5t-319.5 126.5t-131 323.5v1014h144v-1014q0 -131 89 -224t218 -93t218 93t89 224v1014h143zM768 1716v-160h-160v160h160zM481 1716v-160h-159v160h159z" />
<glyph unicode="&#xdd;" horiz-adv-x="1097" d="M547 780l360 664h166l-450 -799v-645h-150v641l-453 803h166zM682 1772l-88 -256h-125l88 256h125z" />
<glyph unicode="&#xde;" horiz-adv-x="1120" d="M276 336v-336h-143v1444h143v-314h322q178 0 309 -109.5t131 -287.5t-131 -287.5t-309 -109.5h-322zM276 469h322q125 0 206 71.5t81 192.5t-81 192.5t-206 71.5h-322v-528z" />
<glyph unicode="&#xdf;" horiz-adv-x="870" d="M748 1118q0 -213 -173 -276q98 -53 155.5 -164t57.5 -240q0 -180 -101 -319t-263 -139v126q102 0 163.5 100.5t61.5 231.5q0 133 -64.5 233.5t-181.5 100.5h-34v127h41q82 0 141 60.5t59 158.5q0 102 -49 160.5t-147 58.5q-88 0 -133 -64.5t-45 -168.5v-1104h-134v1100 q0 150 83 257t229 107q152 0 243 -95t91 -251z" />
<glyph unicode="&#xe0;" horiz-adv-x="847" d="M420 858q-133 0 -218 -71.5t-85 -192.5h129q0 61 47 103t117 42q184 0 184 -211v-63q-82 49 -188 49q-131 0 -227.5 -70.5t-96.5 -195.5t96 -196.5t228 -71.5q141 0 233 81q18 -33 55 -61h164q-14 14 -35.5 37.5t-58.5 80t-37 97.5v344q0 137 -84 218t-223 81zM215 248 q0 74 53.5 110.5t137.5 36.5q131 0 188 -65v-166q-57 -66 -188 -66q-84 0 -137.5 37t-53.5 113zM389 991l-149 453h127l149 -453h-127z" />
<glyph unicode="&#xe1;" horiz-adv-x="847" d="M420 858q139 0 223 -81t84 -218v-344q0 -41 33 -94t65 -88l33 -33h-164q-37 29 -55 61q-92 -82 -233 -81q-131 0 -227.5 71.5t-96.5 196.5t96 195.5t228 70.5q106 0 188 -49v63q0 211 -184 211q-70 0 -117 -42t-47 -103h-129q0 121 85 192.5t218 71.5zM215 248 q0 -76 53.5 -113t137.5 -37q131 0 188 66v166q-57 66 -188 65q-84 0 -137.5 -36.5t-53.5 -110.5zM653 1444l-149 -453h-127l149 453h127z" />
<glyph unicode="&#xe2;" horiz-adv-x="847" d="M420 858q139 0 223 -81t84 -218v-344q0 -41 33 -94t65 -88l33 -33h-164q-37 29 -55 61q-92 -82 -233 -81q-131 0 -227.5 71.5t-96.5 196.5t96 195.5t228 70.5q106 0 188 -49v63q0 211 -184 211q-70 0 -117 -42t-47 -103h-129q0 121 85 192.5t218 71.5zM215 248 q0 -76 53.5 -113t137.5 -37q131 0 188 66v166q-57 66 -188 65q-84 0 -137.5 -36.5t-53.5 -110.5zM467 1444l158 -453h-119l-98 297l-97 -297h-116l157 453h115z" />
<glyph unicode="&#xe3;" horiz-adv-x="847" d="M420 858q-133 0 -218 -71.5t-85 -192.5h129q0 61 47 103t117 42q184 0 184 -211v-63q-82 49 -188 49q-131 0 -227.5 -70.5t-96.5 -195.5t96 -196.5t228 -71.5q141 0 233 81q18 -33 55 -61h164q-14 14 -35.5 37.5t-58.5 80t-37 97.5v344q0 137 -84 218t-223 81zM215 248 q0 74 53.5 110.5t137.5 36.5q131 0 188 -65v-166q-57 -66 -188 -66q-84 0 -137.5 37t-53.5 113zM535 1219q57 0 94 53l80 -98q-80 -94 -174 -95q-49 0 -118 36t-98 36q-57 0 -94 -53l-80 98q78 94 172 94q47 0 117 -35.5t101 -35.5z" />
<glyph unicode="&#xe4;" horiz-adv-x="847" d="M420 858q139 0 223 -81t84 -218v-344q0 -41 33 -94t65 -88l33 -33h-164q-37 29 -55 61q-92 -82 -233 -81q-131 0 -227.5 71.5t-96.5 196.5t96 195.5t228 70.5q106 0 188 -49v63q0 211 -184 211q-70 0 -117 -42t-47 -103h-129q0 121 85 192.5t218 71.5zM215 248 q0 -76 53.5 -113t137.5 -37q131 0 188 66v166q-57 66 -188 65q-84 0 -137.5 -36.5t-53.5 -110.5zM614 1262v-168h-168v168h168zM328 1262v-168h-168v168h168z" />
<glyph unicode="&#xe5;" horiz-adv-x="847" d="M420 858q-133 0 -218 -71.5t-85 -192.5h129q0 61 47 103t117 42q184 0 184 -211v-63q-82 49 -188 49q-131 0 -227.5 -70.5t-96.5 -195.5t96 -196.5t228 -71.5q141 0 233 81q18 -33 55 -61h164q-14 14 -35.5 37.5t-58.5 80t-37 97.5v344q0 137 -84 218t-223 81zM205 1223 q0 90 62.5 153.5t152.5 63.5t153.5 -63.5t63.5 -153.5t-63.5 -152.5t-153.5 -62.5t-152.5 62.5t-62.5 152.5zM215 248q0 74 53.5 110.5t137.5 36.5q131 0 188 -65v-166q-57 -66 -188 -66q-84 0 -137.5 37t-53.5 113zM311 1223q0 -47 32 -81t77 -34t77.5 34t32.5 81 t-32.5 81.5t-77.5 34.5t-77 -34.5t-32 -81.5z" />
<glyph unicode="&#xe6;" horiz-adv-x="1423" d="M1321 418v-19h-590q4 -125 65.5 -210t161.5 -85q70 0 128.5 45.5t87.5 116.5h139q-37 -125 -132.5 -205.5t-222.5 -80.5q-156 0 -256 120q-100 -121 -296 -120q-131 0 -227.5 71.5t-96.5 196.5t96 195.5t228 70.5q106 0 188 -49v63q0 211 -184 211q-70 0 -117 -42 t-47 -103h-129q0 121 85 192.5t218 71.5q188 0 268 -141q104 141 270 141q162 0 262.5 -131t100.5 -309zM215 248q0 -143 191 -144q207 0 206 144q0 147 -206 147q-84 0 -137.5 -36.5t-53.5 -110.5zM958.5 733q-81.5 0 -139 -59.5t-78.5 -155.5h433q-20 94 -77 154.5 t-138.5 60.5z" />
<glyph unicode="&#xe7;" d="M500 -14l-123 -377h-127l125 379q-133 29 -213 151.5t-80 278.5q0 178 101.5 309t262.5 131q125 0 214.5 -80t125.5 -205h-143q-59 158 -197 158q-102 0 -163.5 -92t-61.5 -221t61.5 -220.5t163.5 -91.5q70 0 122.5 43.5t76.5 116.5h143q-33 -113 -107.5 -188.5 t-180.5 -91.5z" />
<glyph unicode="&#xe8;" horiz-adv-x="890" d="M809 399v19q0 178 -100.5 309t-262 131t-263 -131t-101.5 -309t101.5 -308t262.5 -130q127 0 222.5 80.5t132.5 205.5h-139q-29 -72 -87.5 -117t-128.5 -45q-100 0 -161.5 85t-65.5 210h590zM446.5 733q81.5 0 138 -60.5t77.5 -154.5h-433q20 96 78 155.5t139.5 59.5z M379 991l-150 453h127l150 -453h-127z" />
<glyph unicode="&#xe9;" horiz-adv-x="890" d="M809 418v-19h-590q4 -125 65.5 -210t161.5 -85q70 0 128.5 45.5t87.5 116.5h139q-37 -125 -132.5 -205.5t-222.5 -80.5q-162 0 -263 130t-101 308t101.5 309t263 131t262 -131t100.5 -309zM446.5 733q-81.5 0 -139 -59.5t-78.5 -155.5h433q-20 94 -77 154.5t-138.5 60.5z M655 1444l-149 -453h-127l149 453h127z" />
<glyph unicode="&#xea;" horiz-adv-x="890" d="M809 418v-19h-590q4 -125 65.5 -210t161.5 -85q70 0 128.5 45.5t87.5 116.5h139q-37 -125 -132.5 -205.5t-222.5 -80.5q-162 0 -263 130t-101 308t101.5 309t263 131t262 -131t100.5 -309zM502 1444l157 -453h-118l-99 297l-96 -297h-117l158 453h115zM446.5 733 q-81.5 0 -139 -59.5t-78.5 -155.5h433q-20 94 -77 154.5t-138.5 60.5z" />
<glyph unicode="&#xeb;" horiz-adv-x="890" d="M809 418v-19h-590q4 -125 65.5 -210t161.5 -85q70 0 128.5 45.5t87.5 116.5h139q-37 -125 -132.5 -205.5t-222.5 -80.5q-162 0 -263 130t-101 308t101.5 309t263 131t262 -131t100.5 -309zM446.5 733q-81.5 0 -139 -59.5t-78.5 -155.5h433q-20 94 -77 154.5t-138.5 60.5z M676 1262v-168h-168v168h168zM389 1262v-168h-168v168h168z" />
<glyph unicode="&#xec;" horiz-adv-x="358" d="M246 0v838h-133v-838h133zM190 991l-149 453h127l149 -453h-127z" />
<glyph unicode="&#xed;" horiz-adv-x="358" d="M246 838v-838h-133v838h133zM317 1444l-149 -453h-127l149 453h127z" />
<glyph unicode="&#xee;" horiz-adv-x="358" d="M246 838v-838h-133v838h133zM233 1444l158 -453h-119l-98 297l-96 -297h-117l158 453h114z" />
<glyph unicode="&#xef;" horiz-adv-x="358" d="M246 838v-838h-133v838h133zM408 1262v-168h-168v168h168zM121 1262v-168h-168v168h168z" />
<glyph unicode="&#xf0;" horiz-adv-x="890" d="M287 1137l182 86q-113 109 -248 108v133q211 0 365 -186l223 106v-124l-156 -74q156 -256 156 -621v-131v-16q0 -178 -100.5 -308t-262 -130t-263 130t-101.5 308t101.5 309t262.5 131q123 0 218 -84q-18 205 -121 359l-256 -121v125zM446 731q-102 0 -163.5 -92 t-61.5 -221t61.5 -220.5t164 -91.5t161 87.5t62.5 216.5v20q-4 125 -64 213t-160 88z" />
<glyph unicode="&#xf1;" d="M256 0v487q0 98 53 173t142 75q174 0 174 -207v-528h133v559q0 139 -80 219t-217 80q-127 0 -205 -110v90h-133v-838h133zM537 1219q57 0 94 53l80 -98q-80 -94 -174 -95q-49 0 -118 36t-97 36q-57 0 -95 -53l-80 98q78 94 172 94q49 0 119 -35.5t99 -35.5z" />
<glyph unicode="&#xf2;" horiz-adv-x="890" d="M446.5 731q-102.5 0 -164 -92t-61.5 -221t61.5 -220.5t164 -91.5t163 91.5t60.5 220.5t-60.5 221t-163 92zM446.5 -20q-161.5 0 -263 130t-101.5 308t101.5 309t263 131t262 -131t100.5 -309t-100.5 -308t-262 -130zM395 991l-149 453h127l149 -453h-127z" />
<glyph unicode="&#xf3;" horiz-adv-x="890" d="M446.5 731q-102.5 0 -164 -92t-61.5 -221t61.5 -220.5t164 -91.5t163 91.5t60.5 220.5t-60.5 221t-163 92zM446.5 -20q-161.5 0 -263 130t-101.5 308t101.5 309t263 131t262 -131t100.5 -309t-100.5 -308t-262 -130zM645 1444l-149 -453h-127l149 453h127z" />
<glyph unicode="&#xf4;" horiz-adv-x="890" d="M446.5 -20q-161.5 0 -263 130t-101.5 308t101.5 309t263 131t262 -131t100.5 -309t-100.5 -308t-262 -130zM446.5 731q-102.5 0 -164 -92t-61.5 -221t61.5 -220.5t164 -91.5t163 91.5t60.5 220.5t-60.5 221t-163 92zM506 1444l158 -453h-119l-99 297l-96 -297h-117 l158 453h115z" />
<glyph unicode="&#xf5;" horiz-adv-x="890" d="M446.5 731q-102.5 0 -164 -92t-61.5 -221t61.5 -220.5t164 -91.5t163 91.5t60.5 220.5t-60.5 221t-163 92zM446.5 -20q-161.5 0 -263 130t-101.5 308t101.5 309t263 131t262 -131t100.5 -309t-100.5 -308t-262 -130zM553 1219q57 0 94 53l80 -98q-80 -94 -174 -95 q-49 0 -117.5 36t-97.5 36q-57 0 -94 -53l-80 98q78 94 172 94q49 0 118.5 -35.5t98.5 -35.5z" />
<glyph unicode="&#xf6;" horiz-adv-x="890" d="M446.5 731q-102.5 0 -164 -92t-61.5 -221t61.5 -220.5t164 -91.5t163 91.5t60.5 220.5t-60.5 221t-163 92zM446.5 -20q-161.5 0 -263 130t-101.5 308t101.5 309t263 131t262 -131t100.5 -309t-100.5 -308t-262 -130zM672 1262v-168h-168v168h168zM385 1262v-168h-168v168 h168z" />
<glyph unicode="&#xf7;" horiz-adv-x="993" d="M102 641h789v-125h-789v125zM580 307v-164h-168v164h168zM580 1018v-164h-168v164h168z" />
<glyph unicode="&#xf8;" horiz-adv-x="890" d="M446 -20q-86 0 -157 38l-84 -147h-133l125 223q-115 127 -115 324q0 178 101.5 309t262.5 131q86 0 156 -41l84 150h133l-125 -224q115 -131 115 -325q0 -178 -100.5 -308t-262.5 -130zM670 418q0 115 -47 198l-273 -485q43 -25 96 -25q102 0 163 91.5t61 220.5zM446 731 q-102 0 -163.5 -92t-61.5 -221q0 -113 45 -197l273 486q-46 24 -93 24z" />
<glyph unicode="&#xf9;" d="M604 838v-496q-2 -96 -55 -168t-139 -72q-174 0 -174 207v529h-134v-559q0 -139 80 -219t217 -80q127 0 205 110v-90h133v838h-133zM375 991l-150 453h127l150 -453h-127z" />
<glyph unicode="&#xfa;" d="M604 340v498h133v-838h-133v88q-76 -109 -205 -108q-137 0 -217 79.5t-80 219.5v559h134v-529q0 -207 174 -207q84 0 137 72t57 166zM608 1444l-149 -453h-127l149 453h127z" />
<glyph unicode="&#xfb;" d="M604 340v498h133v-838h-133v88q-76 -109 -205 -108q-137 0 -217 79.5t-80 219.5v559h134v-529q0 -207 174 -207q84 0 137 72t57 166zM477 1444l158 -453h-119l-98 297l-96 -297h-117l157 453h115z" />
<glyph unicode="&#xfc;" d="M604 340v498h133v-838h-133v88q-76 -109 -205 -108q-137 0 -217 79.5t-80 219.5v559h134v-529q0 -207 174 -207q84 0 137 72t57 166zM371 1262v-168h-168v168h168zM657 1262v-168h-168v168h168z" />
<glyph unicode="&#xfd;" horiz-adv-x="757" d="M195 -498q123 0 122 203v295l-309 838h150l225 -650l209 650h145l-286 -838v-326q0 -127 -69 -213t-187 -86q-121 0 -188.5 77t-67.5 202v31h133q0 -88 25.5 -135.5t97.5 -47.5zM590 1444l-150 -453h-127l150 453h127z" />
<glyph unicode="&#xfe;" horiz-adv-x="915" d="M471 -20q-147 0 -225 124v-708h-133v2048h133v-713q80 127 225 127q162 0 262.5 -131t100.5 -309t-100.5 -308t-262.5 -130zM471 731q-100 0 -160.5 -88t-64.5 -213v-24q4 -127 63.5 -213.5t161.5 -86.5t162.5 91.5t60.5 220.5t-60.5 221t-162.5 92z" />
<glyph unicode="&#xff;" horiz-adv-x="757" d="M195 -498q123 0 122 203v295l-309 838h150l225 -650l209 650h145l-286 -838v-326q0 -127 -69 -213t-187 -86q-121 0 -188.5 77t-67.5 202v31h133q0 -88 25.5 -135.5t97.5 -47.5zM319 1262v-168h-167v168h167zM606 1262v-168h-168v168h168z" />
<glyph unicode="&#x100;" horiz-adv-x="1241" d="M209 0h-148l478 1444h163l478 -1444h-148l-166 510h-493zM621 1270l-203 -625h405zM369 1669h501v-113h-501v113z" />
<glyph unicode="&#x101;" horiz-adv-x="847" d="M420 858q139 0 223 -81t84 -218v-344q0 -41 33 -94t65 -88l33 -33h-164q-37 29 -55 61q-92 -82 -233 -81q-131 0 -227.5 71.5t-96.5 196.5t96 195.5t228 70.5q106 0 188 -49v63q0 211 -184 211q-70 0 -117 -42t-47 -103h-129q0 121 85 192.5t218 71.5zM215 248 q0 -76 53.5 -113t137.5 -37q131 0 188 66v166q-57 66 -188 65q-84 0 -137.5 -36.5t-53.5 -110.5zM172 1239h522v-125h-522v125z" />
<glyph unicode="&#x102;" horiz-adv-x="1241" d="M209 0h-148l478 1444h163l478 -1444h-148l-166 510h-493zM621 1270l-203 -625h405zM745 1772h117q0 -106 -69.5 -173t-172 -67t-171 66.5t-68.5 173.5h117q0 -57 31.5 -97.5t91 -40.5t92 40.5t32.5 97.5z" />
<glyph unicode="&#x103;" horiz-adv-x="847" d="M420 858q139 0 223 -81t84 -218v-344q0 -41 33 -94t65 -88l33 -33h-164q-37 29 -55 61q-92 -82 -233 -81q-131 0 -227.5 71.5t-96.5 196.5t96 195.5t228 70.5q106 0 188 -49v63q0 211 -184 211q-70 0 -117 -42t-47 -103h-129q0 121 85 192.5t218 71.5zM215 248 q0 -76 53.5 -113t137.5 -37q131 0 188 66v166q-57 66 -188 65q-84 0 -137.5 -36.5t-53.5 -110.5zM553 1300h113q0 -102 -68 -170.5t-174.5 -68.5t-173 68.5t-66.5 170.5h113q0 -55 37 -94t90 -39t91 40t38 93z" />
<glyph unicode="&#x104;" horiz-adv-x="1241" d="M913 -313h-139q0 137 63.5 232t178.5 130l-150 461h-493l-164 -510h-148l478 1444h163l478 -1444h-52q-98 -4 -156.5 -95t-58.5 -218zM621 1270l-203 -625h405z" />
<glyph unicode="&#x105;" horiz-adv-x="847" d="M715 -313h-140q0 227 107 321q-29 25 -43 53q-92 -82 -233 -81q-131 0 -227.5 71.5t-96.5 196.5t96 195.5t228 70.5q106 0 188 -49v63q0 211 -184 211q-70 0 -117 -42t-47 -103h-129q0 121 85 192.5t218 71.5q139 0 223 -81t84 -218v-344q0 -41 33 -94t65 -88l33 -33 q-84 0 -113.5 -84t-29.5 -229zM215 248q0 -76 53.5 -113t137.5 -37q131 0 188 66v166q-57 66 -188 65q-84 0 -137.5 -36.5t-53.5 -110.5z" />
<glyph unicode="&#x106;" horiz-adv-x="1249" d="M647 113q131 0 221 90t140 227h159q-61 -201 -194 -325.5t-326 -124.5q-176 0 -308 109.5t-194.5 275t-62.5 356t62.5 356.5t194.5 276.5t308 110.5q193 0 326 -125t194 -325h-159q-49 137 -139.5 227t-221.5 90t-228 -97t-140 -232.5t-43 -281t43 -280.5t140 -231 t228 -96zM788 1772l-88 -256h-125l89 256h124z" />
<glyph unicode="&#x107;" d="M645 266h143q-37 -127 -127 -206.5t-215 -79.5q-162 0 -263 130t-101 308t101.5 309t262.5 131q125 0 214.5 -80t125.5 -205h-143q-59 158 -197 158q-102 0 -163.5 -92t-61.5 -221t61.5 -220.5t163.5 -91.5q70 0 122 43t77 117zM649 1444l-149 -453h-127l149 453h127z " />
<glyph unicode="&#x108;" horiz-adv-x="1249" d="M647 113q131 0 221 90t140 227h159q-61 -201 -194 -325.5t-326 -124.5q-176 0 -308 109.5t-194.5 275t-62.5 356t62.5 356.5t194.5 276.5t308 110.5q193 0 326 -125t194 -325h-159q-49 137 -139.5 227t-221.5 90t-228 -97t-140 -232.5t-43 -281t43 -280.5t140 -231 t228 -96zM713 1772l178 -256h-137l-101 157l-98 -157h-135l178 256h115z" />
<glyph unicode="&#x109;" d="M645 266h143q-37 -127 -127 -206.5t-215 -79.5q-162 0 -263 130t-101 308t101.5 309t262.5 131q125 0 214.5 -80t125.5 -205h-143q-59 158 -197 158q-102 0 -163.5 -92t-61.5 -221t61.5 -220.5t163.5 -91.5q70 0 122 43t77 117zM508 1444l158 -453h-119l-98 297l-97 -297 h-116l157 453h115z" />
<glyph unicode="&#x10a;" horiz-adv-x="1249" d="M647 113q131 0 221 90t140 227h159q-61 -201 -194 -325.5t-326 -124.5q-176 0 -308 109.5t-194.5 275t-62.5 356t62.5 356.5t194.5 276.5t308 110.5q193 0 326 -125t194 -325h-159q-49 137 -139.5 227t-221.5 90t-228 -97t-140 -232.5t-43 -281t43 -280.5t140 -231 t228 -96zM725 1720v-159h-160v159h160z" />
<glyph unicode="&#x10b;" d="M645 266h143q-37 -127 -127 -206.5t-215 -79.5q-162 0 -263 130t-101 308t101.5 309t262.5 131q125 0 214.5 -80t125.5 -205h-143q-59 158 -197 158q-102 0 -163.5 -92t-61.5 -221t61.5 -220.5t163.5 -91.5q70 0 122 43t77 117zM535 1300v-163h-168v163h168z" />
<glyph unicode="&#x10c;" horiz-adv-x="1249" d="M647 113q-131 0 -228 96t-140 231t-43 280.5t43 281t140 232.5t228 97t221 -90t140 -227h159q-61 201 -194 325.5t-326 124.5q-176 0 -308 -110.5t-194.5 -276.5t-62.5 -356.5t62.5 -356t194.5 -275t308 -109.5q193 0 326 124.5t194 325.5h-159q-49 -137 -139.5 -227 t-221.5 -90zM877 1772l-179 -256h-114l-178 256h135l98 -158l100 158h138z" />
<glyph unicode="&#x10d;" d="M788 266h-143q-25 -74 -77 -117t-122 -43q-102 0 -163.5 91.5t-61.5 220.5t61.5 221t163.5 92q137 0 197 -158h143q-37 125 -126 205t-214 80q-162 0 -263 -131t-101 -309t101.5 -308t262.5 -130q125 0 215 79.5t127 206.5zM686 1444l-199 -453h-114l-199 453h125 l129 -295l131 295h127z" />
<glyph unicode="&#x10e;" horiz-adv-x="1230" d="M133 1444h465q170 0 299 -109.5t190.5 -271.5t61.5 -342q0 -178 -63.5 -341t-192.5 -271.5t-295 -108.5h-465v1444zM578 1311h-302v-1178h302q186 0 301.5 183.5t115.5 402.5q0 238 -108 415t-309 177zM721 1772l-178 -256h-115l-178 256h135l98 -158l101 158h137z" />
<glyph unicode="&#x10f;" horiz-adv-x="1128" d="M670 0v102q-82 -123 -226 -122q-162 0 -262 130t-100 308t100.5 309t261.5 131q141 0 226 -125v711h133v-1444h-133zM444.5 731q-102.5 0 -163 -92t-60.5 -221t60.5 -220.5t163 -91.5t164 91.5t61.5 220.5t-61.5 221t-164 92zM852 969l94 196v135h135v-135l-94 -196h-135 z" />
<glyph unicode="&#x110;" horiz-adv-x="1343" d="M246 1444h465q170 0 299 -109.5t190.5 -271.5t61.5 -342q0 -178 -63.5 -341t-192.5 -271.5t-295 -108.5h-465v653h-205v135h205v656zM690 1311h-301v-523h225v-135h-225v-520h301q186 0 302 183.5t116 402.5q0 238 -108.5 415t-309.5 177z" />
<glyph unicode="&#x111;" horiz-adv-x="925" d="M444 -20q-162 0 -262 130t-100 308t100.5 309t261.5 131q141 0 226 -125v381h-287v125h287v205h133v-205h102v-125h-102v-1114h-133v102q-83 -122 -226 -122zM444 731q-102 0 -162.5 -92t-60.5 -221t60.5 -220.5t163 -91.5t164 91.5t61.5 220.5v12q-4 125 -65 213 t-161 88z" />
<glyph unicode="&#x112;" horiz-adv-x="983" d="M707 788v-135h-431v-520h646v-133h-789v1444h789v-133h-646v-523h431zM287 1669h501v-113h-501v113z" />
<glyph unicode="&#x113;" horiz-adv-x="890" d="M809 418v-19h-590q4 -125 65.5 -210t161.5 -85q70 0 128.5 45.5t87.5 116.5h139q-37 -125 -132.5 -205.5t-222.5 -80.5q-162 0 -263 130t-101 308t101.5 309t263 131t262 -131t100.5 -309zM446.5 733q-81.5 0 -139 -59.5t-78.5 -155.5h433q-20 94 -77 154.5t-138.5 60.5z M195 1239h522v-125h-522v125z" />
<glyph unicode="&#x114;" horiz-adv-x="983" d="M707 788v-135h-431v-520h646v-133h-789v1444h789v-133h-646v-523h431zM655 1772h117q0 -106 -69.5 -173t-172 -67t-171 66.5t-68.5 173.5h117q0 -57 31.5 -97.5t91 -40.5t92 40.5t32.5 97.5z" />
<glyph unicode="&#x115;" horiz-adv-x="890" d="M809 418v-19h-590q4 -125 65.5 -210t161.5 -85q70 0 128.5 45.5t87.5 116.5h139q-37 -125 -132.5 -205.5t-222.5 -80.5q-162 0 -263 130t-101 308t101.5 309t263 131t262 -131t100.5 -309zM446.5 733q-81.5 0 -139 -59.5t-78.5 -155.5h433q-20 94 -77 154.5t-138.5 60.5z M573 1300h113q0 -102 -67.5 -170.5t-174 -68.5t-173 68.5t-66.5 170.5h112q0 -55 37 -94t90.5 -39t91 40t37.5 93z" />
<glyph unicode="&#x116;" horiz-adv-x="983" d="M707 788v-135h-431v-520h646v-133h-789v1444h789v-133h-646v-523h431zM606 1720v-159h-160v159h160z" />
<glyph unicode="&#x117;" horiz-adv-x="890" d="M809 418v-19h-590q4 -125 65.5 -210t161.5 -85q70 0 128.5 45.5t87.5 116.5h139q-37 -125 -132.5 -205.5t-222.5 -80.5q-162 0 -263 130t-101 308t101.5 309t263 131t262 -131t100.5 -309zM446.5 733q-81.5 0 -139 -59.5t-78.5 -155.5h433q-20 94 -77 154.5t-138.5 60.5z M530 1300v-163h-168v163h168z" />
<glyph unicode="&#x118;" horiz-adv-x="983" d="M469 -313h-139q0 215 98 313h-295v1444h789v-133h-646v-523h431v-135h-431v-520h646v-133h-320q-78 -4 -105.5 -87t-27.5 -226z" />
<glyph unicode="&#x119;" horiz-adv-x="890" d="M420 -313h-139q0 199 88 303q-131 31 -209 152.5t-78 275.5q0 178 101.5 309t263 131t262 -131t100.5 -309v-19h-590q4 -125 65.5 -210t161.5 -85q70 0 128.5 45.5t87.5 116.5h139q-33 -111 -113 -187.5t-186 -92.5q-82 -51 -82 -299zM446.5 733q-81.5 0 -139 -59.5 t-78.5 -155.5h433q-20 94 -77 154.5t-138.5 60.5z" />
<glyph unicode="&#x11a;" horiz-adv-x="983" d="M707 653v135h-431v523h646v133h-789v-1444h789v133h-646v520h431zM760 1772l-178 -256h-115l-178 256h135l98 -158l101 158h137z" />
<glyph unicode="&#x11b;" horiz-adv-x="890" d="M809 399v19q0 178 -100.5 309t-262 131t-263 -131t-101.5 -309t101.5 -308t262.5 -130q127 0 222.5 80.5t132.5 205.5h-139q-29 -72 -87.5 -117t-128.5 -45q-100 0 -161.5 85t-65.5 210h590zM700 1444l-198 -453h-115l-199 453h125l129 -295l131 295h127zM446.5 733 q81.5 0 138 -60.5t77.5 -154.5h-433q20 96 78 155.5t139.5 59.5z" />
<glyph unicode="&#x11c;" horiz-adv-x="1298" d="M647 639h559q-12 -170 -77.5 -316.5t-191.5 -244.5t-290 -98q-176 0 -308 109.5t-194.5 275t-62.5 356t62.5 356.5t194.5 276.5t308 110.5q193 0 326 -125t194 -325h-159q-49 137 -139.5 227t-221.5 90t-228 -97t-140 -232.5t-43 -281t43 -280.5t140 -231t228 -96 q145 0 247.5 111.5t143.5 281.5h-391v133zM707 1772l178 -256h-137l-101 157l-98 -157h-135l178 256h115z" />
<glyph unicode="&#x11d;" horiz-adv-x="839" d="M119 535q0 125 92 224t223 99q133 0 225.5 -99.5t92.5 -223.5q0 -137 -90.5 -230.5t-227.5 -93.5q-115 0 -115 -84q0 -45 31 -71.5t84 -26.5q150 0 257.5 -92.5t107.5 -235.5t-107.5 -234.5t-257 -91.5t-256 91.5t-106.5 234.5q0 186 176 281q-74 49 -74 135q0 94 84 145 q-139 93 -139 273zM205 -299q0 -90 66.5 -143.5t162.5 -53.5t164 54.5t68 142.5q0 90 -69 147.5t-163 57.5t-161.5 -57.5t-67.5 -147.5zM434 739q-82 0 -134 -55t-52 -149.5t52 -149.5t134 -55q84 0 136.5 55t52.5 149.5t-53.5 149.5t-135.5 55zM492 1444l157 -453h-119 l-98 297l-96 -297h-117l158 453h115z" />
<glyph unicode="&#x11e;" horiz-adv-x="1298" d="M647 639h559q-12 -170 -77.5 -316.5t-191.5 -244.5t-290 -98q-176 0 -308 109.5t-194.5 275t-62.5 356t62.5 356.5t194.5 276.5t308 110.5q193 0 326 -125t194 -325h-159q-49 137 -139.5 227t-221.5 90t-228 -97t-140 -232.5t-43 -281t43 -280.5t140 -231t228 -96 q145 0 247.5 111.5t143.5 281.5h-391v133zM772 1772h117q0 -106 -69.5 -173t-172 -67t-171 66.5t-68.5 173.5h116q0 -57 32 -97.5t91.5 -40.5t92 40.5t32.5 97.5z" />
<glyph unicode="&#x11f;" horiz-adv-x="839" d="M119 535q0 125 92 224t223 99q133 0 225.5 -99.5t92.5 -223.5q0 -137 -90.5 -230.5t-227.5 -93.5q-115 0 -115 -84q0 -45 31 -71.5t84 -26.5q150 0 257.5 -92.5t107.5 -235.5t-107.5 -234.5t-257 -91.5t-256 91.5t-106.5 234.5q0 186 176 281q-74 49 -74 135q0 94 84 145 q-139 93 -139 273zM205 -299q0 -90 66.5 -143.5t162.5 -53.5t164 54.5t68 142.5q0 90 -69 147.5t-163 57.5t-161.5 -57.5t-67.5 -147.5zM434 739q-82 0 -134 -55t-52 -149.5t52 -149.5t134 -55q84 0 136.5 55t52.5 149.5t-53.5 149.5t-135.5 55zM563 1300h113 q0 -102 -67.5 -170.5t-174 -68.5t-173 68.5t-66.5 170.5h112q0 -55 37 -94t90 -39t91 40t38 93z" />
<glyph unicode="&#x120;" horiz-adv-x="1298" d="M647 639h559q-12 -170 -77.5 -316.5t-191.5 -244.5t-290 -98q-176 0 -308 109.5t-194.5 275t-62.5 356t62.5 356.5t194.5 276.5t308 110.5q193 0 326 -125t194 -325h-159q-49 137 -139.5 227t-221.5 90t-228 -97t-140 -232.5t-43 -281t43 -280.5t140 -231t228 -96 q145 0 247.5 111.5t143.5 281.5h-391v133zM727 1720v-159h-160v159h160z" />
<glyph unicode="&#x121;" horiz-adv-x="839" d="M119 535q0 125 92 224t223 99q133 0 225.5 -99.5t92.5 -223.5q0 -137 -90.5 -230.5t-227.5 -93.5q-115 0 -115 -84q0 -45 31 -71.5t84 -26.5q150 0 257.5 -92.5t107.5 -235.5t-107.5 -234.5t-257 -91.5t-256 91.5t-106.5 234.5q0 186 176 281q-74 49 -74 135q0 94 84 145 q-139 93 -139 273zM205 -299q0 -90 66.5 -143.5t162.5 -53.5t164 54.5t68 142.5q0 90 -69 147.5t-163 57.5t-161.5 -57.5t-67.5 -147.5zM434 739q-82 0 -134 -55t-52 -149.5t52 -149.5t134 -55q84 0 136.5 55t52.5 149.5t-53.5 149.5t-135.5 55zM518 1300v-163h-168v163h168 z" />
<glyph unicode="&#x122;" horiz-adv-x="1298" d="M647 639h559q-12 -170 -77.5 -316.5t-191.5 -244.5t-290 -98q-176 0 -308 109.5t-194.5 275t-62.5 356t62.5 356.5t194.5 276.5t308 110.5q193 0 326 -125t194 -325h-159q-49 137 -139.5 227t-221.5 90t-228 -97t-140 -232.5t-43 -281t43 -280.5t140 -231t228 -96 q145 0 247.5 111.5t143.5 281.5h-391v133zM489 -475l107 227v135h135v-135l-106 -227h-136z" />
<glyph unicode="&#x123;" horiz-adv-x="839" d="M119 535q0 -180 139 -273q-84 -51 -84 -145q0 -86 74 -135q-176 -94 -176 -281q0 -143 106.5 -234.5t256 -91.5t257 91.5t107.5 234.5t-107.5 235.5t-257.5 92.5q-53 0 -84 26.5t-31 71.5q0 84 115 84q137 0 227.5 93t90.5 231q0 125 -92.5 224t-225.5 99 q-131 0 -223 -99t-92 -224zM205 -299q0 90 67.5 147.5t161.5 57.5t163 -57.5t69 -147.5q0 -88 -68 -142.5t-164 -54.5t-162.5 53.5t-66.5 143.5zM434 739q82 0 135.5 -55t53.5 -149.5t-52.5 -149.5t-136.5 -55q-82 0 -134 55t-52 149.5t52 149.5t134 55zM649 1444l-149 -318 v-135h-135v135l149 318h135z" />
<glyph unicode="&#x124;" horiz-adv-x="1167" d="M276 653v-653h-143v1444h143v-656h615v656h143v-1444h-143v653h-615zM641 1772l178 -256h-137l-100 157l-99 -157h-135l178 256h115z" />
<glyph unicode="&#x125;" horiz-adv-x="839" d="M236 496v-496h-134v1444h134v-696q78 111 204 110q137 0 217 -80t80 -219v-559h-133v528q0 207 -174 207q-86 0 -139 -71.5t-55 -167.5zM580 1444l157 -453h-119l-98 297l-96 -297h-117l158 453h115z" />
<glyph unicode="&#x126;" horiz-adv-x="1167" d="M276 653v-653h-143v1178h-143v122h143v144h143v-144h615v144h143v-144h144v-122h-144v-1178h-143v653h-615zM276 788h615v390h-615v-390z" />
<glyph unicode="&#x127;" horiz-adv-x="839" d="M236 1239h286v-125h-286v-366q78 111 204 110q137 0 217 -80t80 -219v-559h-133v528q0 207 -174 207q-86 0 -139 -71.5t-55 -167.5v-496h-134v1114h-102v125h102v205h134v-205z" />
<glyph unicode="&#x128;" horiz-adv-x="409" d="M276 0v1444h-143v-1444h143zM313 1649q57 0 95 53l79 -78q-80 -94 -174 -94q-49 0 -117.5 36t-97.5 36q-57 0 -94 -54l-80 78q78 94 172 94q47 0 116.5 -35.5t100.5 -35.5z" />
<glyph unicode="&#x129;" horiz-adv-x="358" d="M246 0v838h-133v-838h133zM287 1219q57 0 94 53l80 -98q-80 -94 -174 -95q-49 0 -118 36t-97 36q-57 0 -95 -53l-79 98q78 94 172 94q49 0 118.5 -35.5t98.5 -35.5z" />
<glyph unicode="&#x12a;" horiz-adv-x="409" d="M276 1444v-1444h-143v1444h143zM-45 1669h502v-113h-502v113z" />
<glyph unicode="&#x12b;" horiz-adv-x="358" d="M246 838v-838h-133v838h133zM-82 1239h522v-125h-522v125z" />
<glyph unicode="&#x12c;" horiz-adv-x="409" d="M276 1444v-1444h-143v1444h143zM330 1772h116q0 -106 -69.5 -173t-172 -67t-171 66.5t-68.5 173.5h117q0 -57 31.5 -97.5t91 -40.5t92.5 40.5t33 97.5z" />
<glyph unicode="&#x12d;" horiz-adv-x="358" d="M246 838v-838h-133v838h133zM307 1300h113q0 -102 -67.5 -170.5t-174 -68.5t-173 68.5t-66.5 170.5h112q0 -55 37 -94t90 -39t91 40t38 93z" />
<glyph unicode="&#x12e;" horiz-adv-x="409" d="M49 -313h-139q0 131 59.5 224t163.5 130v1403h143v-1444h-2q-102 0 -163.5 -92t-61.5 -221z" />
<glyph unicode="&#x12f;" horiz-adv-x="358" d="M102 -313h-139q0 127 41 224t109 124v803h133v-838q-84 0 -114 -84t-30 -229zM256 1241v-154h-154v154h154z" />
<glyph unicode="&#x130;" horiz-adv-x="409" d="M276 1444v-1444h-143v1444h143zM285 1720v-159h-160v159h160z" />
<glyph unicode="&#x131;" horiz-adv-x="358" d="M246 838v-838h-133v838h133z" />
<glyph unicode="&#x132;" horiz-adv-x="1030" d="M276 1444v-795h-143v795h143zM784 1444h144v-1030q0 -188 -108.5 -311t-289.5 -123q-178 0 -287.5 129t-109.5 305v20h143v-20q0 -129 68 -215t186.5 -86t186 86t67.5 215v1030z" />
<glyph unicode="&#x133;" horiz-adv-x="716" d="M246 838v-838h-133v838h133zM256 1241v-154h-154v154h154zM471 -358v1196h133v-1186q0 -125 -67.5 -201t-188.5 -76q-115 0 -185.5 71t-70.5 185v54h133v-41q0 -145 123 -146q59 0 91 40.5t32 103.5zM614 1241v-154h-153v154h153z" />
<glyph unicode="&#x134;" horiz-adv-x="968" d="M723 1444h143v-1030q0 -188 -108.5 -311t-288.5 -123q-178 0 -287.5 129t-109.5 305v20h143v-20q0 -129 67.5 -215t186.5 -86t186.5 86t67.5 215v1030zM844 1772l178 -256h-137l-101 157l-98 -157h-135l178 256h115z" />
<glyph unicode="&#x135;" horiz-adv-x="358" d="M113 -358v1196h133v-1186q0 -125 -67.5 -201t-188.5 -76q-115 0 -185.5 71t-70.5 185v54h133v-41q0 -145 123 -146q59 0 91 40.5t32 103.5zM231 1444l158 -453h-119l-98 297l-96 -297h-117l158 453h114z" />
<glyph unicode="&#x136;" horiz-adv-x="989" d="M418 758l551 -758h-185l-460 641l-48 -59v-582h-143v1444h143v-651l529 651h164zM317 -475l107 227v135h135v-135l-106 -227h-136z" />
<glyph unicode="&#x137;" horiz-adv-x="802" d="M236 338v-338h-134v1444h134v-928l339 322h187l-428 -406l459 -432h-199zM246 -475l106 227v135h135v-135l-106 -227h-135z" />
<glyph unicode="&#x139;" horiz-adv-x="972" d="M133 1444h143v-1311h635v-133h-778v1444zM354 1772l-88 -256h-125l88 256h125z" />
<glyph unicode="&#x13a;" horiz-adv-x="358" d="M246 1444v-1444h-133v1444h133zM330 1772l-88 -256h-125l88 256h125z" />
<glyph unicode="&#x13b;" horiz-adv-x="972" d="M133 1444h143v-1311h635v-133h-778v1444zM297 -475l106 227v135h136v-135l-107 -227h-135z" />
<glyph unicode="&#x13c;" horiz-adv-x="358" d="M246 1444v-1444h-133v1444h133zM8 -475l107 227v135h135v-135l-107 -227h-135z" />
<glyph unicode="&#x13d;" horiz-adv-x="972" d="M133 1444h143v-1311h635v-133h-778v1444zM707 1772l-179 -256h-114l-178 256h135l98 -158l100 158h138z" />
<glyph unicode="&#x13e;" horiz-adv-x="358" d="M295 969l94 196v135h135v-135l-94 -196h-135zM246 1444v-1444h-133v1444h133z" />
<glyph unicode="&#x13f;" horiz-adv-x="972" d="M133 1444h143v-1311h635v-133h-778v1444zM811 1137v163h-168v-163h168z" />
<glyph unicode="&#x140;" horiz-adv-x="358" d="M246 1444v-1444h-133v1444h133zM516 1300v-163h-168v163h168z" />
<glyph unicode="&#x141;" horiz-adv-x="972" d="M297 1444h143v-631l226 123v-143l-226 -123v-537h635v-133h-778v594l-164 -88v143l164 88v707z" />
<glyph unicode="&#x142;" horiz-adv-x="501" d="M389 688v-688h-133v590l-143 -125v164l143 125v690h133v-592l143 135v-164z" />
<glyph unicode="&#x143;" horiz-adv-x="1187" d="M915 240v1204h140v-1444h-185l-598 1202v-1202h-139v1444h184zM748 1772l-89 -256h-124l88 256h125z" />
<glyph unicode="&#x144;" d="M256 496v-496h-133v838h133v-90q78 111 205 110q137 0 217 -80t80 -219v-559h-133v528q0 207 -174 207q-86 0 -139.5 -71.5t-55.5 -167.5zM649 1444l-149 -453h-127l149 453h127z" />
<glyph unicode="&#x145;" horiz-adv-x="1187" d="M915 240v1204h140v-1444h-185l-598 1202v-1202h-139v1444h184zM399 -475l107 227v135h135v-135l-106 -227h-136z" />
<glyph unicode="&#x146;" d="M256 496v-496h-133v838h133v-90q78 111 205 110q137 0 217 -80t80 -219v-559h-133v528q0 207 -174 207q-86 0 -139.5 -71.5t-55.5 -167.5zM256 -475l106 227v135h136v-135l-107 -227h-135z" />
<glyph unicode="&#x147;" horiz-adv-x="1187" d="M915 1444v-1204l-598 1204h-184v-1444h139v1202l598 -1202h185v1444h-140zM842 1772l-178 -256h-115l-178 256h135l98 -158l101 158h137z" />
<glyph unicode="&#x148;" d="M256 0v496q2 96 55.5 167.5t139.5 71.5q174 0 174 -207v-528h133v559q0 139 -80 219t-217 80q-127 0 -205 -110v90h-133v-838h133zM686 1444l-199 -453h-114l-199 453h125l129 -295l131 295h127z" />
<glyph unicode="&#x14a;" horiz-adv-x="1187" d="M915 240v1204h140v-1464q0 -188 -108.5 -311.5t-289.5 -123.5v133q119 0 186.5 86t67.5 216v20h-41l-598 1202v-1202h-139v1444h184z" />
<glyph unicode="&#x14b;" d="M758 559v-711q0 -125 -67.5 -200.5t-188.5 -75.5v123q59 0 91 40t32 103v690q0 207 -174 207q-88 0 -141.5 -74.5t-53.5 -173.5v-487h-133v838h133v-90q78 111 205 110q137 0 217 -80t80 -219z" />
<glyph unicode="&#x14c;" horiz-adv-x="1290" d="M647 1331q-131 0 -228 -97t-140 -232.5t-43 -281t43 -280.5t140 -231t228 -96t227.5 96t138.5 231t42 280.5t-42 281t-138.5 232.5t-227.5 97zM647 -20q-176 0 -308 109.5t-194.5 275t-62.5 356t62.5 356.5t194.5 276.5t308 110.5t307 -110.5t192.5 -276.5t61.5 -356.5 t-61.5 -355t-192.5 -275t-307 -110.5zM403 1669h502v-113h-502v113z" />
<glyph unicode="&#x14d;" horiz-adv-x="890" d="M446.5 731q-102.5 0 -164 -92t-61.5 -221t61.5 -220.5t164 -91.5t163 91.5t60.5 220.5t-60.5 221t-163 92zM446.5 -20q-161.5 0 -263 130t-101.5 308t101.5 309t263 131t262 -131t100.5 -309t-100.5 -308t-262 -130zM184 1239h523v-125h-523v125z" />
<glyph unicode="&#x14e;" horiz-adv-x="1290" d="M647 1331q-131 0 -228 -97t-140 -232.5t-43 -281t43 -280.5t140 -231t228 -96t227.5 96t138.5 231t42 280.5t-42 281t-138.5 232.5t-227.5 97zM647 -20q-176 0 -308 109.5t-194.5 275t-62.5 356t62.5 356.5t194.5 276.5t308 110.5t307 -110.5t192.5 -276.5t61.5 -356.5 t-61.5 -355t-192.5 -275t-307 -110.5zM772 1772h117q0 -106 -69.5 -173t-172 -67t-171 66.5t-68.5 173.5h116q0 -57 32 -97.5t91.5 -40.5t92 40.5t32.5 97.5z" />
<glyph unicode="&#x14f;" horiz-adv-x="890" d="M446.5 731q-102.5 0 -164 -92t-61.5 -221t61.5 -220.5t164 -91.5t163 91.5t60.5 220.5t-60.5 221t-163 92zM446.5 -20q-161.5 0 -263 130t-101.5 308t101.5 309t263 131t262 -131t100.5 -309t-100.5 -308t-262 -130zM575 1300h113q0 -102 -67.5 -170.5t-174 -68.5 t-173 68.5t-66.5 170.5h112q0 -55 37 -94t90.5 -39t91 40t37.5 93z" />
<glyph unicode="&#x150;" horiz-adv-x="1290" d="M647 1331q-131 0 -228 -97t-140 -232.5t-43 -281t43 -280.5t140 -231t228 -96t227.5 96t138.5 231t42 280.5t-42 281t-138.5 232.5t-227.5 97zM647 -20q-176 0 -308 109.5t-194.5 275t-62.5 356t62.5 356.5t194.5 276.5t308 110.5t307 -110.5t192.5 -276.5t61.5 -356.5 t-61.5 -355t-192.5 -275t-307 -110.5zM903 1772l-88 -256h-125l88 256h125zM655 1772l-88 -256h-125l88 256h125z" />
<glyph unicode="&#x151;" horiz-adv-x="890" d="M446.5 731q-102.5 0 -164 -92t-61.5 -221t61.5 -220.5t164 -91.5t163 91.5t60.5 220.5t-60.5 221t-163 92zM446.5 -20q-161.5 0 -263 130t-101.5 308t101.5 309t263 131t262 -131t100.5 -309t-100.5 -308t-262 -130zM506 1444l-150 -453h-127l150 453h127zM784 1444 l-149 -453h-127l149 453h127z" />
<glyph unicode="&#x152;" horiz-adv-x="1638" d="M1577 133v-133h-786q-76 -20 -144 -20q-176 0 -308 109.5t-194.5 275t-62.5 356t62.5 356.5t194.5 276.5t308 110.5q68 0 144 -20h786v-133h-645v-523h430v-135h-430v-520h645zM647 113q92 0 141 24v1168q-55 27 -141 26q-131 0 -228 -97t-140 -232.5t-43 -281t43 -280.5 t140 -231t228 -96z" />
<glyph unicode="&#x153;" horiz-adv-x="1478" d="M1397 418v-19h-590q4 -125 65.5 -210t161.5 -85q70 0 128.5 45.5t86.5 116.5h140q-37 -125 -132.5 -205.5t-222.5 -80.5q-195 0 -295 190q-96 -190 -293 -190q-162 0 -263 130t-101 308t101.5 309t262.5 131q195 0 293 -196q102 197 295 196q162 0 262.5 -131t100.5 -309 zM446.5 731q-102.5 0 -164 -92t-61.5 -221t61.5 -220.5t164 -91.5t163 91.5t60.5 220.5t-60.5 221t-163 92zM1034 733q-82 0 -139 -59.5t-78 -155.5h432q-20 94 -76.5 154.5t-138.5 60.5z" />
<glyph unicode="&#x154;" horiz-adv-x="1130" d="M276 0h-143v1444h465q178 0 309 -109.5t131 -287.5q0 -150 -96 -253.5t-240 -134.5l357 -659h-164l-350 649h-269v-649zM276 782h322q125 0 206 72t81 192.5t-81 192.5t-206 72h-322v-529zM670 1772l-88 -256h-125l88 256h125z" />
<glyph unicode="&#x155;" horiz-adv-x="696" d="M256 543v-543h-133v838h133v-76q61 96 174 96q100 0 162.5 -70.5t62.5 -185.5v-33h-133v21q0 70 -29.5 107.5t-82.5 37.5q-80 0 -116 -59t-38 -133zM547 1444l-150 -453h-127l150 453h127z" />
<glyph unicode="&#x156;" horiz-adv-x="1130" d="M702 659l357 -659h-164l-350 649h-269v-649h-143v1444h465q178 0 309 -109.5t131 -287.5q0 -150 -96.5 -253.5t-239.5 -134.5zM276 782h322q125 0 206 72t81 192.5t-81 192.5t-206 72h-322v-529zM379 -475l106 227v135h136v-135l-107 -227h-135z" />
<glyph unicode="&#x157;" horiz-adv-x="696" d="M256 543v-543h-133v838h133v-76q61 96 174 96q100 0 162.5 -70.5t62.5 -185.5v-33h-133v21q0 70 -29.5 107.5t-82.5 37.5q-80 0 -116 -59t-38 -133zM215 -475l107 227v135h135v-135l-107 -227h-135z" />
<glyph unicode="&#x158;" horiz-adv-x="1130" d="M133 0h143v649h269l350 -649h164l-357 659q143 31 239.5 134.5t96.5 253.5q0 178 -131 287.5t-309 109.5h-465v-1444zM598 782h-322v529h322q125 0 206 -72t81 -192.5t-81 -192.5t-206 -72zM754 1772l-179 -256h-114l-178 256h135l98 -158l100 158h138z" />
<glyph unicode="&#x159;" horiz-adv-x="696" d="M256 0v543q2 74 38 133t116 59q53 0 82.5 -38t29.5 -107v-21h133v33q0 115 -62.5 185.5t-162.5 70.5q-113 0 -174 -96v76h-133v-838h133zM645 1444l-199 -453h-114l-199 453h125l129 -295l131 295h127z" />
<glyph unicode="&#x15a;" horiz-adv-x="1161" d="M987 1087h-153q0 106 -79 177t-190 71q-121 0 -194.5 -69.5t-73.5 -178.5q0 -51 20.5 -90t67.5 -69.5t87 -48t114 -43.5q23 -8 93.5 -33t93 -34t76.5 -33.5t74.5 -41t56.5 -48.5t48 -63.5t24.5 -75.5t12.5 -97q0 -205 -138.5 -317.5t-340.5 -112.5q-205 0 -344.5 112.5 t-139.5 317.5h154q0 -137 88 -219t241.5 -82t241.5 81.5t88 219.5q0 37 -10 67.5t-39.5 57t-48 42t-73 38t-73 29.5t-85.5 32q-215 78 -283 121q-156 100 -156 290q0 166 122 271.5t296 105.5t298 -106.5t124 -270.5zM713 1772l-88 -256h-125l88 256h125z" />
<glyph unicode="&#x15b;" horiz-adv-x="782" d="M397 -20q-133 0 -224 77.5t-91 202.5v6h133v-6q0 -74 54.5 -118t127.5 -44q184 0 185 140q0 45 -50.5 71.5t-122 44t-143 41t-122 77.5t-50.5 140q0 117 86 181.5t217 64.5q123 0 209 -73.5t94 -190.5h-135q-12 61 -54 103t-114 42q-78 0 -122 -32.5t-44 -94.5 q0 -45 50.5 -71.5t122 -44t143 -41t122 -77.5t50.5 -140q0 -123 -92.5 -190.5t-229.5 -67.5zM610 1444l-149 -453h-127l149 453h127z" />
<glyph unicode="&#x15c;" horiz-adv-x="1161" d="M987 1087h-153q0 106 -79 177t-190 71q-121 0 -194.5 -69.5t-73.5 -178.5q0 -51 20.5 -90t67.5 -69.5t87 -48t114 -43.5q23 -8 93.5 -33t93 -34t76.5 -33.5t74.5 -41t56.5 -48.5t48 -63.5t24.5 -75.5t12.5 -97q0 -205 -138.5 -317.5t-340.5 -112.5q-205 0 -344.5 112.5 t-139.5 317.5h154q0 -137 88 -219t241.5 -82t241.5 81.5t88 219.5q0 37 -10 67.5t-39.5 57t-48 42t-73 38t-73 29.5t-85.5 32q-215 78 -283 121q-156 100 -156 290q0 166 122 271.5t296 105.5t298 -106.5t124 -270.5zM627 1772l178 -256h-137l-101 157l-98 -157h-135 l178 256h115z" />
<glyph unicode="&#x15d;" horiz-adv-x="782" d="M397 -20q-133 0 -224 77.5t-91 202.5v6h133v-6q0 -74 54.5 -118t127.5 -44q184 0 185 140q0 45 -50.5 71.5t-122 44t-143 41t-122 77.5t-50.5 140q0 117 86 181.5t217 64.5q123 0 209 -73.5t94 -190.5h-135q-12 61 -54 103t-114 42q-78 0 -122 -32.5t-44 -94.5 q0 -45 50.5 -71.5t122 -44t143 -41t122 -77.5t50.5 -140q0 -123 -92.5 -190.5t-229.5 -67.5zM449 1444l157 -453h-119l-98 297l-96 -297h-117l158 453h115z" />
<glyph unicode="&#x15e;" horiz-adv-x="1161" d="M649 -16l-123 -375h-127l123 375q-182 16 -301 126.5t-119 299.5h154q0 -137 88 -219t241.5 -82t241.5 81.5t88 219.5q0 37 -10 67.5t-39.5 57t-48 42t-73 38t-73 29.5t-85.5 32q-215 78 -283 121q-156 100 -156 290q0 166 122 271.5t296 105.5t298 -106.5t124 -270.5 h-153q0 106 -79 177t-190 71q-121 0 -194.5 -69.5t-73.5 -178.5q0 -51 20.5 -90t67.5 -69.5t87 -48t114 -43.5q23 -8 93.5 -33t93 -34t76.5 -33.5t74.5 -41t56.5 -48.5t48 -63.5t24.5 -75.5t12.5 -97q0 -188 -118 -299t-298 -127z" />
<glyph unicode="&#x15f;" horiz-adv-x="782" d="M451 -16l-123 -375h-127l125 379q-109 18 -176.5 91t-67.5 181v6h133v-6q0 -74 54.5 -118t127.5 -44q184 0 185 140q0 45 -50.5 71.5t-122 44t-143 41t-122 77.5t-50.5 140q0 117 86 181.5t217 64.5q123 0 209 -73.5t94 -190.5h-135q-12 61 -54 103t-114 42 q-78 0 -122 -32.5t-44 -94.5q0 -45 50.5 -71.5t122 -44t143 -41t122 -77.5t50.5 -140q0 -111 -74.5 -176.5t-193.5 -77.5z" />
<glyph unicode="&#x160;" horiz-adv-x="1161" d="M834 1087h153q0 164 -124 270.5t-298 106.5t-296 -105.5t-122 -271.5q0 -90 30 -155.5t95.5 -110.5t121 -70.5t157.5 -62.5q23 -8 35 -12q68 -25 86 -32t72.5 -29.5t73 -38t48 -42t39.5 -57.5t10 -67q0 -137 -88 -219t-241.5 -82t-241.5 81.5t-88 219.5h-154 q0 -205 139.5 -317.5t344.5 -112.5q203 0 341 112.5t138 317.5q0 53 -12.5 97t-24.5 75.5t-48 63.5t-56.5 48.5t-74.5 41t-76.5 33.5t-93.5 33.5t-93 33.5q-74 27 -114 44t-87 47.5t-67.5 69.5t-20.5 90q0 109 73.5 178.5t194.5 69.5q111 0 190 -71t79 -177zM805 1772 l-178 -256h-115l-178 256h135l98 -158l101 158h137z" />
<glyph unicode="&#x161;" horiz-adv-x="782" d="M397 -20q137 0 229.5 67.5t92.5 190.5q0 86 -50.5 140t-122 77.5t-143 41t-122 44t-50.5 71.5q0 61 44 94t122 33q72 0 114 -42t54 -103h135q-8 117 -94 190.5t-209 73.5q-131 0 -217 -64.5t-86 -181.5q0 -86 50.5 -140t122 -77.5t143 -41t122 -44t50.5 -71.5 q0 -139 -185 -140q-74 0 -128 44t-54 118v6h-133v-6q0 -125 91 -202.5t224 -77.5zM657 1444l-198 -453h-115l-199 453h125l129 -295l131 295h127z" />
<glyph unicode="&#x162;" horiz-adv-x="1064" d="M604 1311v-1311h-143v1311h-430v133h1003v-133h-430zM358 -475l107 227v135h135v-135l-106 -227h-136z" />
<glyph unicode="&#x163;" horiz-adv-x="757" d="M358 715v-445q0 -84 22.5 -126t80 -42t80 42t22.5 126h133v-32q0 -119 -61.5 -188.5t-174 -69.5t-174 69.5t-61.5 188.5v477h-164v123h164v399h133v-399h205v-123h-205zM281 -475l106 227v135h135v-135l-106 -227h-135z" />
<glyph unicode="&#x164;" horiz-adv-x="1064" d="M604 0v1311h430v133h-1003v-133h430v-1311h143zM768 1772l-178 -256h-115l-178 256h135l98 -158l101 158h137z" />
<glyph unicode="&#x165;" horiz-adv-x="757" d="M358 270v445h205v123h-205v399h-133v-399h-164v-123h164v-477q0 -119 61.5 -188.5t174 -69.5t174 69.5t61.5 188.5v32h-133q0 -84 -22.5 -126t-80 -42t-80 42t-22.5 126zM467 969l94 196v135h135v-135l-94 -196h-135z" />
<glyph unicode="&#x166;" horiz-adv-x="1064" d="M604 838v-838h-143v838h-225v125h225v348h-430v133h1003v-133h-430v-348h225v-125h-225z" />
<glyph unicode="&#x167;" horiz-adv-x="788" d="M522 469v-199q0 -84 22.5 -126t80 -42t80 42t22.5 126h133v-32q0 -119 -61.5 -188.5t-174 -69.5t-174 69.5t-61.5 188.5v231h-164v123h164v123h-164v123h164v399h133v-399h205v-123h-205v-123h205v-123h-205z" />
<glyph unicode="&#x168;" horiz-adv-x="1085" d="M993 430v1014h-143v-1014q0 -131 -89 -224t-218 -93t-218 93t-89 224v1014h-144v-1014q0 -197 131 -323.5t319.5 -126.5t319.5 126.5t131 323.5zM649 1649q57 0 94 53l80 -78q-80 -94 -174 -94q-49 0 -117.5 36t-97.5 36q-57 0 -94 -54l-80 78q78 94 172 94 q47 0 116.5 -35.5t100.5 -35.5z" />
<glyph unicode="&#x169;" d="M604 838v-496q-2 -96 -55 -168t-139 -72q-174 0 -174 207v529h-134v-559q0 -139 80 -219t217 -80q127 0 205 110v-90h133v838h-133zM537 1219q57 0 94 53l80 -98q-80 -94 -174 -95q-49 0 -118 36t-97 36q-57 0 -95 -53l-80 98q78 94 172 94q49 0 119 -35.5t99 -35.5z" />
<glyph unicode="&#x16a;" horiz-adv-x="1085" d="M993 1444v-1014q0 -197 -131 -323.5t-319.5 -126.5t-319.5 126.5t-131 323.5v1014h144v-1014q0 -131 89 -224t218 -93t218 93t89 224v1014h143zM291 1669h502v-113h-502v113z" />
<glyph unicode="&#x16b;" d="M604 350v488h133v-838h-133v88q-76 -109 -205 -108q-137 0 -217 79.5t-80 219.5v559h134v-529q0 -207 174 -207q88 0 141 75t53 173zM168 1239h522v-125h-522v125z" />
<glyph unicode="&#x16c;" horiz-adv-x="1085" d="M993 1444v-1014q0 -197 -131 -323.5t-319.5 -126.5t-319.5 126.5t-131 323.5v1014h144v-1014q0 -131 89 -224t218 -93t218 93t89 224v1014h143zM666 1772h116q0 -106 -69.5 -173t-172 -67t-171 66.5t-68.5 173.5h117q0 -57 31.5 -97.5t91 -40.5t92.5 40.5t33 97.5z" />
<glyph unicode="&#x16d;" d="M604 342v496h133v-838h-133v90q-78 -111 -205 -110q-137 0 -217 79.5t-80 219.5v559h134v-529q0 -207 174 -207q86 0 139 72t55 168zM557 1300h113q0 -102 -67.5 -170.5t-174 -68.5t-173.5 68.5t-67 170.5h113q0 -55 37 -94t90 -39t91 40t38 93z" />
<glyph unicode="&#x16e;" horiz-adv-x="1085" d="M993 1444v-1014q0 -197 -131 -323.5t-319.5 -126.5t-319.5 126.5t-131 323.5v1014h144v-1014q0 -131 89 -224t218 -93t218 93t89 224v1014h143zM352 1536q0 84 58.5 142.5t142.5 58.5q82 0 141.5 -59.5t59.5 -141.5q0 -84 -58.5 -142.5t-142.5 -58.5t-142.5 58.5 t-58.5 142.5zM451 1536q0 -43 29.5 -74.5t72.5 -31.5q41 0 71.5 31.5t30.5 74.5q0 41 -30.5 73.5t-71.5 32.5q-43 0 -72.5 -31.5t-29.5 -74.5z" />
<glyph unicode="&#x16f;" d="M604 838v-488q0 -98 -53 -173t-141 -75q-174 0 -174 207v529h-134v-559q0 -139 80 -219t217 -80q129 0 205 108v-88h133v838h-133zM213 1223q0 90 62.5 153.5t152.5 63.5t153.5 -63.5t63.5 -153.5t-63.5 -152.5t-153.5 -62.5t-152.5 62.5t-62.5 152.5zM319 1223 q0 -47 32 -81t77 -34t78 34t33 81t-33 81.5t-78 34.5t-77 -34.5t-32 -81.5z" />
<glyph unicode="&#x170;" horiz-adv-x="1085" d="M993 1444v-1014q0 -197 -131 -323.5t-319.5 -126.5t-319.5 126.5t-131 323.5v1014h144v-1014q0 -131 89 -224t218 -93t218 93t89 224v1014h143zM809 1772l-88 -256h-125l88 256h125zM561 1772l-88 -256h-125l88 256h125z" />
<glyph unicode="&#x171;" d="M604 340v498h133v-838h-133v88q-76 -109 -205 -108q-137 0 -217 79.5t-80 219.5v559h134v-529q0 -207 174 -207q84 0 137 72t57 166zM737 1444l-149 -453h-127l149 453h127zM459 1444l-150 -453h-127l150 453h127z" />
<glyph unicode="&#x172;" horiz-adv-x="1085" d="M334 -334h-139q0 250 188 340q-131 47 -211 160t-80 264v1014h144v-1014q0 -131 89 -224t218 -93t218 93t89 224v1014h143v-1014q0 -195 -129 -320.5t-315 -129.5q-98 -4 -156.5 -95.5t-58.5 -218.5z" />
<glyph unicode="&#x173;" d="M594 -313h-139q0 127 41 224t108 124v55q-78 -111 -205 -110q-137 0 -217 79.5t-80 219.5v559h134v-529q0 -207 174 -207q86 0 139 72t55 168v496h133v-838h-10q-78 -4 -105.5 -87t-27.5 -226z" />
<glyph unicode="&#x174;" horiz-adv-x="2019" d="M1354 0l-344 1194l-344 -1194h-164l-375 1444h147l318 -1239l346 1239h143l346 -1239l318 1239h147l-374 -1444h-164zM1067 1772l178 -256h-137l-100 157l-99 -157h-135l178 256h115z" />
<glyph unicode="&#x175;" horiz-adv-x="1353" d="M891 0l-215 629l-213 -629h-135l-287 838h145l209 -656l213 656h137l213 -656l209 656h146l-287 -838h-135zM733 1444l158 -453h-119l-98 297l-96 -297h-117l157 453h115z" />
<glyph unicode="&#x176;" horiz-adv-x="1097" d="M547 780l360 664h166l-450 -799v-645h-150v641l-453 803h166zM606 1772l178 -256h-137l-100 157l-98 -157h-136l179 256h114z" />
<glyph unicode="&#x177;" horiz-adv-x="757" d="M195 -498q123 0 122 203v295l-309 838h150l225 -650l209 650h145l-286 -838v-326q0 -127 -69 -213t-187 -86q-121 0 -188.5 77t-67.5 202v31h133q0 -88 25.5 -135.5t97.5 -47.5zM436 1444l158 -453h-119l-98 297l-96 -297h-117l158 453h114z" />
<glyph unicode="&#x178;" horiz-adv-x="1097" d="M547 780l360 664h166l-450 -799v-645h-150v641l-453 803h166zM485 1716v-160h-159v160h159zM772 1716v-160h-160v160h160z" />
<glyph unicode="&#x179;" horiz-adv-x="1122" d="M1040 0h-958v143l782 1168h-702v133h878v-144l-794 -1167h794v-133zM715 1772l-88 -256h-125l88 256h125z" />
<glyph unicode="&#x17a;" horiz-adv-x="757" d="M717 0h-635v127l465 584h-445v127h615v-127l-475 -584h475v-127zM598 1444l-149 -453h-127l149 453h127z" />
<glyph unicode="&#x17b;" horiz-adv-x="1122" d="M1040 0h-958v143l782 1168h-702v133h878v-144l-794 -1167h794v-133zM662 1720v-159h-160v159h160z" />
<glyph unicode="&#x17c;" horiz-adv-x="757" d="M717 0h-635v127l465 584h-445v127h615v-127l-475 -584h475v-127zM492 1300v-163h-168v163h168z" />
<glyph unicode="&#x17d;" horiz-adv-x="1122" d="M82 0h958v133h-794l794 1167v144h-878v-133h702l-782 -1168v-143zM844 1772l-178 -256h-115l-178 256h135l98 -158l101 158h137z" />
<glyph unicode="&#x17e;" horiz-adv-x="757" d="M82 0h635v127h-475l475 584v127h-615v-127h445l-465 -584v-127zM676 1444l-199 -453h-115l-198 453h125l129 -295l131 295h127z" />
<glyph unicode="&#x192;" horiz-adv-x="733" d="M676 793v-144h-238v-563q0 -188 -108.5 -311t-288.5 -123v133q119 0 186.5 86t67.5 215v563h-193v144h193v237q0 188 108.5 311t288.5 123v-133q-119 0 -186.5 -86t-67.5 -215v-237h238z" />
<glyph unicode="&#x218;" horiz-adv-x="1161" d="M987 1087h-153q0 106 -79 177t-190 71q-121 0 -194.5 -69.5t-73.5 -178.5q0 -51 20.5 -90t67.5 -69.5t87 -48t114 -43.5q23 -8 93.5 -33t93 -34t76.5 -33.5t74.5 -41t56.5 -48.5t48 -63.5t24.5 -75.5t12.5 -97q0 -205 -138.5 -317.5t-340.5 -112.5q-205 0 -344.5 112.5 t-139.5 317.5h154q0 -137 88 -219t241.5 -82t241.5 81.5t88 219.5q0 37 -10 67.5t-39.5 57t-48 42t-73 38t-73 29.5t-85.5 32q-215 78 -283 121q-156 100 -156 290q0 166 122 271.5t296 105.5t298 -106.5t124 -270.5zM406 -475l106 227v135h135v-135l-106 -227h-135z" />
<glyph unicode="&#x219;" horiz-adv-x="782" d="M397 -20q-133 0 -224 77.5t-91 202.5v6h133v-6q0 -74 54.5 -118t127.5 -44q184 0 185 140q0 45 -50.5 71.5t-122 44t-143 41t-122 77.5t-50.5 140q0 117 86 181.5t217 64.5q123 0 209 -73.5t94 -190.5h-135q-12 61 -54 103t-114 42q-78 0 -122 -32.5t-44 -94.5 q0 -45 50.5 -71.5t122 -44t143 -41t122 -77.5t50.5 -140q0 -123 -92.5 -190.5t-229.5 -67.5zM233 -475l107 227v135h135v-135l-106 -227h-136z" />
<glyph unicode="&#x2bc;" horiz-adv-x="509" d="M403 1444l-149 -453h-127l149 453h127z" />
<glyph unicode="&#x2c6;" horiz-adv-x="716" d="M416 1444l157 -453h-118l-99 297l-96 -297h-117l158 453h115z" />
<glyph unicode="&#x2c7;" horiz-adv-x="716" d="M614 1444l-198 -453h-115l-199 453h125l129 -295l131 295h127z" />
<glyph unicode="&#x2d8;" horiz-adv-x="686" d="M471 1300h113q0 -102 -67.5 -170.5t-174 -68.5t-173.5 68.5t-67 170.5h113q0 -55 37 -94t90 -39t91 40t38 93z" />
<glyph unicode="&#x2d9;" horiz-adv-x="364" d="M266 1300v-163h-168v163h168z" />
<glyph unicode="&#x2da;" horiz-adv-x="686" d="M127 1223q0 90 62.5 153.5t152.5 63.5t153.5 -63.5t63.5 -153.5t-63.5 -152.5t-153.5 -62.5t-152.5 62.5t-62.5 152.5zM233 1223q0 -47 32 -81t77 -34t78 34t33 81t-33 81.5t-78 34.5t-77 -34.5t-32 -81.5z" />
<glyph unicode="&#x2db;" horiz-adv-x="561" d="M336 -313h-139q0 147 55 252.5t139 105.5h31l57 -45q-84 0 -113.5 -84t-29.5 -229z" />
<glyph unicode="&#x2dc;" horiz-adv-x="768" d="M492 1219q57 0 94 53l80 -98q-80 -94 -174 -95q-49 0 -118 36t-98 36q-57 0 -94 -53l-80 98q78 94 172 94q49 0 119 -35.5t99 -35.5z" />
<glyph unicode="&#x2dd;" horiz-adv-x="677" d="M358 1444l-149 -453h-127l149 453h127zM637 1444l-150 -453h-127l150 453h127z" />
<glyph unicode="&#x394;" horiz-adv-x="1241" d="M1135 135v-135h-1029v135l433 1309h163zM621 1270l-369 -1135h735z" />
<glyph unicode="&#x3a9;" horiz-adv-x="1290" d="M975 133h233v-133h-448v133q139 53 217 224t78 364q0 145 -42 280.5t-138.5 232.5t-227.5 97t-228 -97t-140 -232.5t-43 -280.5q0 -193 78.5 -364t220.5 -224v-133h-453v133h237q-115 98 -176 253t-61 335q0 190 62.5 356t194.5 276.5t308 110.5t307 -110.5t192.5 -276.5 t61.5 -356q0 -180 -60 -335t-173 -253z" />
<glyph unicode="&#x3bc;" d="M102 838h134v-529q0 -207 174 -207q88 0 141 75t53 173v488h133v-838h-133v88q-76 -109 -205 -108q-109 0 -163 55v-639h-134v1442z" />
<glyph unicode="&#x3c0;" d="M840 838v-127h-82v-711h-133v711h-369v-711h-133v711h-82v127h799z" />
<glyph unicode="&#x1e80;" horiz-adv-x="2019" d="M1354 0l-344 1194l-344 -1194h-164l-375 1444h147l318 -1239l346 1239h143l346 -1239l318 1239h147l-374 -1444h-164zM940 1516l-88 256h125l88 -256h-125z" />
<glyph unicode="&#x1e81;" horiz-adv-x="1353" d="M891 0l-215 629l-213 -629h-135l-287 838h145l209 -656l213 656h137l213 -656l209 656h146l-287 -838h-135zM580 991l-150 453h127l150 -453h-127z" />
<glyph unicode="&#x1e82;" horiz-adv-x="2019" d="M1354 0l-344 1194l-344 -1194h-164l-375 1444h147l318 -1239l346 1239h143l346 -1239l318 1239h147l-374 -1444h-164zM1161 1772l-88 -256h-125l88 256h125z" />
<glyph unicode="&#x1e83;" horiz-adv-x="1353" d="M891 0l-215 629l-213 -629h-135l-287 838h145l209 -656l213 656h137l213 -656l209 656h146l-287 -838h-135zM909 1444l-149 -453h-127l149 453h127z" />
<glyph unicode="&#x1e84;" horiz-adv-x="2019" d="M1354 0l-344 1194l-344 -1194h-164l-375 1444h147l318 -1239l346 1239h143l346 -1239l318 1239h147l-374 -1444h-164zM1233 1716v-160h-160v160h160zM946 1716v-160h-160v160h160z" />
<glyph unicode="&#x1e85;" horiz-adv-x="1353" d="M891 0l-215 629l-213 -629h-135l-287 838h145l209 -656l213 656h137l213 -656l209 656h146l-287 -838h-135zM903 1262v-168h-168v168h168zM616 1262v-168h-167v168h167z" />
<glyph unicode="&#x1ef2;" horiz-adv-x="1097" d="M907 1444l-360 -664l-361 664h-166l453 -803v-641h150v645l450 799h-166zM489 1516l-88 256h125l88 -256h-125z" />
<glyph unicode="&#x1ef3;" horiz-adv-x="757" d="M195 -498q123 0 122 203v295l-309 838h150l225 -650l209 650h145l-286 -838v-326q0 -127 -69 -213t-187 -86q-121 0 -188.5 77t-67.5 202v31h133q0 -88 25.5 -135.5t97.5 -47.5zM330 991l-150 453h127l150 -453h-127z" />
<glyph unicode="&#x2000;" horiz-adv-x="886" />
<glyph unicode="&#x2001;" horiz-adv-x="1772" />
<glyph unicode="&#x2002;" horiz-adv-x="1024" />
<glyph unicode="&#x2003;" horiz-adv-x="2048" />
<glyph unicode="&#x2004;" horiz-adv-x="681" />
<glyph unicode="&#x2005;" horiz-adv-x="512" />
<glyph unicode="&#x2006;" horiz-adv-x="339" />
<glyph unicode="&#x2007;" horiz-adv-x="295" />
<glyph unicode="&#x2008;" horiz-adv-x="221" />
<glyph unicode="&#x2009;" horiz-adv-x="204" />
<glyph unicode="&#x200a;" horiz-adv-x="51" />
<glyph unicode="&#x2010;" horiz-adv-x="655" d="M614 608v-143h-573v143h573z" />
<glyph unicode="&#x2011;" horiz-adv-x="655" d="M614 608v-143h-573v143h573z" />
<glyph unicode="&#x2012;" horiz-adv-x="2048" d="M2028 649v-143h-2008v143h2008z" />
<glyph unicode="&#x2013;" horiz-adv-x="1024" d="M1004 649v-143h-984v143h984z" />
<glyph unicode="&#x2014;" horiz-adv-x="2048" d="M2028 649v-143h-2008v143h2008z" />
<glyph unicode="&#x2018;" horiz-adv-x="460" d="M379 1444l-150 -453h-127l150 453h127z" />
<glyph unicode="&#x2019;" horiz-adv-x="460" d="M102 991l150 453h127l-150 -453h-127z" />
<glyph unicode="&#x201a;" horiz-adv-x="468" d="M94 -309l150 452h127l-150 -452h-127z" />
<glyph unicode="&#x201c;" horiz-adv-x="718" d="M387 1444l-149 -318v-135h-136v135l150 318h135zM657 1444l-149 -318v-135h-135v135l149 318h135z" />
<glyph unicode="&#x201d;" horiz-adv-x="718" d="M373 991l149 318v135h135v-135l-149 -318h-135zM102 991l150 318v135h135v-135l-149 -318h-136z" />
<glyph unicode="&#x201e;" horiz-adv-x="739" d="M350 -309l150 317v135h135v-135l-150 -317h-135zM80 -309l149 317v135h136v-135l-150 -317h-135z" />
<glyph unicode="&#x2020;" horiz-adv-x="856" d="M500 889v-1032h-144v1032h-274v123h274v452h144v-452h274v-123h-274z" />
<glyph unicode="&#x2021;" horiz-adv-x="897" d="M520 434h275v-123h-275v-454h-143v454h-275v123h275v455h-275v123h275v452h143v-452h275v-123h-275v-455z" />
<glyph unicode="&#x2022;" horiz-adv-x="1206" d="M207 684q0 164 115.5 280.5t279.5 116.5t280.5 -116.5t116.5 -280.5t-116.5 -279.5t-280.5 -115.5t-279.5 115.5t-115.5 279.5z" />
<glyph unicode="&#x2026;" horiz-adv-x="985" d="M930 164v-164h-168v164h168zM578 164v-164h-168v164h168zM225 164v-164h-168v164h168z" />
<glyph unicode="&#x202f;" horiz-adv-x="354" />
<glyph unicode="&#x2039;" horiz-adv-x="614" d="M102 553v147l410 297v-147l-307 -223l307 -221v-148z" />
<glyph unicode="&#x203a;" horiz-adv-x="614" d="M512 553l-410 -295v148l308 221l-308 223v147l410 -297v-147z" />
<glyph unicode="&#x2044;" horiz-adv-x="1177" d="M123 0l811 1444h141l-811 -1444h-141z" />
<glyph unicode="&#x205f;" horiz-adv-x="443" />
<glyph unicode="&#x2074;" horiz-adv-x="931" d="M492 1444h143v-539h174v-112h-174v-187h-123v187h-389v133zM248 905h264v371z" />
<glyph unicode="&#x207f;" d="M256 1102v-496h-133v838h133v-90q78 111 205 110q137 0 217 -79.5t80 -219.5v-559h-133v529q0 207 -174 206q-86 0 -139.5 -71.5t-55.5 -167.5z" />
<glyph unicode="&#x20ac;" horiz-adv-x="1169" d="M940 430h147q-51 -205 -162.5 -327.5t-252.5 -122.5q-156 0 -274.5 147t-159.5 387h-197v133h182q-2 25 -2 74v70h-180v133h195q41 242 160.5 391t275.5 149q139 0 251.5 -122.5t163.5 -327.5h-147q-41 139 -112.5 223t-155.5 84q-98 0 -178 -110.5t-113 -286.5h336v-133 h-350q-2 -23 -2 -70q0 -51 2 -74h350v-133h-334q33 -174 111.5 -282.5t177.5 -108.5q86 0 156.5 83t111.5 224z" />
<glyph unicode="&#x2116;" horiz-adv-x="2009" d="M915 1444v-1204l-598 1204h-184v-1444h139v1202l598 -1202h185v1444h-140zM1564.5 586q-161.5 0 -263 130t-101.5 308t101.5 309t263 131t262 -131t100.5 -309t-100.5 -308t-262 -130zM1564.5 1337q-102.5 0 -164 -92t-61.5 -221t61.5 -220t164 -91t163 91t60.5 220 t-60.5 221t-163 92zM1200 319v134h727v-134h-727z" />
<glyph unicode="&#x2122;" horiz-adv-x="1710" d="M768 1444h174l236 -653l235 653h174v-838h-125v600l-223 -600h-123l-223 600v-600h-125v838zM430 606v715h215v123h-563v-123h215v-715h133z" />
<glyph unicode="&#x2190;" horiz-adv-x="1269" d="M406 784v-145h761v-123h-761v-145l-345 207z" />
<glyph unicode="&#x2191;" horiz-adv-x="659" d="M391 184h-123v762h-145l207 344l207 -344h-146v-762z" />
<glyph unicode="&#x2192;" horiz-adv-x="1269" d="M102 516v123h762v145l344 -206l-344 -207v145h-762z" />
<glyph unicode="&#x2193;" horiz-adv-x="659" d="M123 487h145v762h123v-762h146l-207 -344z" />
<glyph unicode="&#x2194;" horiz-adv-x="1495" d="M406 784v-145h684v145l344 -206l-344 -207v145h-684v-145l-345 207z" />
<glyph unicode="&#x2195;" horiz-adv-x="659" d="M268 946h-145l207 344l207 -344h-146v-602h146l-207 -344l-207 344h145v602z" />
<glyph unicode="&#x2196;" horiz-adv-x="1071" d="M322 725l-103 -102l-96 389l389 -97l-102 -102l538 -541l-86 -86z" />
<glyph unicode="&#x2197;" horiz-adv-x="1071" d="M209 186l-86 86l539 541l-103 102l389 97l-96 -389l-102 102z" />
<glyph unicode="&#x2198;" horiz-adv-x="1071" d="M123 926l86 86l541 -539l102 102l96 -389l-389 97l103 102z" />
<glyph unicode="&#x2199;" horiz-adv-x="1071" d="M219 575l103 -102l540 539l86 -86l-538 -541l102 -102l-389 -97z" />
<glyph unicode="&#x2202;" horiz-adv-x="1083" d="M971 606q0 -289 -118 -457.5t-312 -168.5q-182 0 -301 136t-119 338.5t118.5 342t301.5 139.5q176 0 272 -158q-10 238 -88 395.5t-205 157.5v133q215 0 333 -237.5t118 -620.5zM815 475q0 133 -71.5 230.5t-202.5 97.5q-121 0 -194 -101.5t-73 -246.5q0 -141 73 -241.5 t194 -100.5q119 0 196.5 109.5t77.5 252.5z" />
<glyph unicode="&#x220f;" horiz-adv-x="1167" d="M1034 1444v-1444h-143v1309h-615v-1309h-143v1444h901z" />
<glyph unicode="&#x2211;" horiz-adv-x="1122" d="M82 1300v144h958v-144h-776l342 -507v-144l-342 -506h776v-143h-958v143l393 578z" />
<glyph unicode="&#x2212;" horiz-adv-x="1024" d="M1004 649v-143h-984v143h984z" />
<glyph unicode="&#x221a;" horiz-adv-x="1204" d="M0 133h219l176 -512l623 1823h145l-700 -2048h-135l-209 604h-119v133z" />
<glyph unicode="&#x221e;" horiz-adv-x="1759" d="M1315 858q162 0 262 -131t100 -309t-100 -308t-262 -130q-90 0 -159 23.5t-121 71.5t-82.5 92t-71.5 116q-33 -57 -67 -102.5t-86 -95.5t-125 -77.5t-157 -27.5q-162 0 -263 130t-101 308t101.5 309t262.5 131q264 0 435 -305q41 72 71.5 116t82.5 93t121 72.5t159 23.5z M1315 731q-59 0 -107.5 -17.5t-80 -39t-64.5 -65.5t-49.5 -74.5t-44.5 -88.5q-10 -18 -15 -28q82 -160 123 -209q90 -102 238 -103q102 0 162.5 91.5t60.5 220.5t-60.5 221t-162.5 92zM446 106q72 0 130.5 27t98.5 74t68.5 93t55.5 99q2 6 4 10.5t4 8.5q-33 63 -44 85.5 t-49 78t-69 80t-84 47t-115 22.5q-102 0 -163.5 -92t-61.5 -221t61.5 -220.5t163.5 -91.5z" />
<glyph unicode="&#x222b;" horiz-adv-x="733" d="M692 1464v-133q-119 0 -186.5 -86t-67.5 -215v-944q0 -188 -108.5 -311t-288.5 -123v133q119 0 186.5 86t67.5 215v944q0 188 108.5 311t288.5 123z" />
<glyph unicode="&#x2248;" horiz-adv-x="978" d="M633 342q-94 0 -167 33t-122 33q-106 0 -242 -60v127q137 57 242 57q94 0 167 -32.5t122 -32.5q109 0 244 59v-127q-138 -57 -244 -57zM346 795q94 0 167 -33t122 -33q106 0 242 59v-126q-137 -57 -242 -58q-94 0 -167 33t-122 33q-109 0 -244 -60v127q138 58 244 58z " />
<glyph unicode="&#x2260;" horiz-adv-x="897" d="M102 772h412l148 225h133l-148 -225h148v-123h-228l-106 -164h334v-123h-414l-145 -225h-134l146 225h-146v123h226l106 164h-332v123z" />
<glyph unicode="&#x2264;" horiz-adv-x="993" d="M860 1180l-614 -369l614 -371v-147l-737 444v148l737 442v-147zM123 594l737 -444v-148l-737 444v148z" />
<glyph unicode="&#x2265;" horiz-adv-x="993" d="M127 1159v148l737 -443v-147l-737 -445v148l614 371zM123 150l737 444v-148l-737 -444v148z" />
<glyph unicode="&#x25a0;" horiz-adv-x="1566" d="M1423 1444v-1444h-1280v1444h1280z" />
<glyph unicode="&#x25ca;" horiz-adv-x="966" d="M403 0l-321 721l321 723h160l322 -723l-322 -721h-160zM231 721l252 -584l252 584l-252 586z" />
<glyph unicode="&#x25e6;" horiz-adv-x="1206" d="M207 684q0 164 115.5 280.5t279.5 116.5t280.5 -116.5t116.5 -280.5t-116.5 -279.5t-280.5 -115.5t-279.5 115.5t-115.5 279.5z" />
<glyph unicode="&#x25fc;" horiz-adv-x="839" d="M0 840h840v-840h-840v840z" />
<glyph unicode="&#xe83c;" horiz-adv-x="1417" d="M946 756l289 71l-70 -288l-75 75l-216 -213h52v-401h-688v401h507l279 279z" />
<glyph unicode="&#xe83d;" horiz-adv-x="477" d="M381 152q0 -41 -20.5 -77t-55.5 -55.5t-76 -19.5q-63 0 -107 44t-44 107.5t44 107.5t107 44q31 0 59.5 -12t49 -32.5t32 -48t11.5 -58.5z" />
<glyph unicode="&#xe83e;" horiz-adv-x="1097" d="M219 1300l678 97v-1297l-678 -96v1296zM340 143l434 62v432l-209 -31l-16 121l225 33v497l-434 -61v-1053z" />
<glyph unicode="&#xe83f;" horiz-adv-x="1327" d="M1157 709l-850 -306v-403h-129v1061zM307 541l471 168l-471 170v-338z" />
<glyph unicode="&#xe840;" horiz-adv-x="1402" d="M209 1034h1032v-1034h-1032v1034zM330 123h790v334h-262v121h262v335h-790v-335h262v-121h-262v-334z" />
<glyph unicode="&#xe841;" horiz-adv-x="1474" d="M242 1034h1034v-1034h-1034v1034zM1153 578v335h-334v-335h334zM698 913h-336v-335h336v335zM362 457v-334h336v334h-336zM819 123h334v334h-334v-334z" />
<glyph unicode="&#xe842;" horiz-adv-x="1212" d="M205 -2v332h315v-332h-315zM205 479v332h315v-332h-315zM711 -2v332h313v-332h-313zM711 479v332h313v-332h-313z" />
<glyph unicode="&#xe843;" horiz-adv-x="1523" d="M776 1135q233 0 400 -167t167 -401.5t-166.5 -400.5t-401 -166t-400.5 166t-166 401q0 154 75.5 285t206.5 207t285 76zM776.5 121q184.5 0 314.5 131t130 315.5t-130 314.5t-315 130q-121 0 -224 -59.5t-162.5 -162t-59.5 -223.5q0 -184 131 -315t315.5 -131zM775.5 719 q62.5 0 107.5 -44t45 -108q0 -41 -20.5 -76.5t-55.5 -55t-76 -19.5q-63 0 -107 44t-44 107.5t44 107.5t106.5 44z" />
<glyph unicode="&#xe844;" horiz-adv-x="1767" d="M1044 328h-792q-20 0 -36.5 13t-22.5 34q-12 45 30 67l465 258q12 8 29 9h792q20 0 37 -13.5t21 -31.5q12 -47 -29 -70l-465 -258q-15 -8 -29 -8zM487 451h541l246 137h-541zM1044 2h-792q-25 0 -43.5 17.5t-18.5 43t18.5 43t43.5 17.5h776l451 250q23 12 47 6 t35.5 -28.5t5.5 -47t-29 -37.5l-465 -258q-15 -6 -29 -6z" />
<glyph unicode="&#xe845;" horiz-adv-x="1736" d="M1212 807v-121h-364v-364h-121v364h-365v121h365v364h121v-364h364zM1090 2h-863q-25 0 -42 17.5t-17 43.5q0 16 8 29.5t21.5 22t29.5 8.5h844l381 250q20 12 45 7t39 -26q8 -14 9 -30.5t-6 -30.5t-21 -23l-396 -258q-16 -10 -32 -10z" />
<glyph unicode="&#xe846;" horiz-adv-x="905" d="M733 78q8 -23 -1 -46.5t-32 -33.5q-12 -4 -24 -4q-41 0 -55 37l-232 555q-2 2 -2 5v3q-23 -4 -33 -4q-96 0 -164.5 68.5t-68.5 166t68.5 165t165 67.5t165 -67.5t68.5 -166.5q0 -113 -92 -184q2 0 3 -3t3 -3z" />
<glyph unicode="&#xe847;" horiz-adv-x="1503" d="M313 680h-120v334h333v-123h-213v-211zM1321 680h-121v211h-213v123h334v-334zM526 0h-333v334h120v-213h213v-121zM1321 0h-334v121h213v213h121v-334z" />
<glyph unicode="&#xe848;" horiz-adv-x="1437" d="M500 356v121h162v-121h-162zM500 0v123h162v-123h-162zM211 356v121h162v-121h-162zM211 0v123h162v-123h-162zM1100 356v121h162v-121h-162zM1100 0v123h162v-123h-162zM811 356v121h160v-121h-160zM811 0v123h160v-123h-160z" />
<glyph unicode="&#xe849;" horiz-adv-x="2048" d="M1640 590q121 0 207 -87t86 -209t-86 -208t-207 -86q-106 0 -187 66.5t-101 166.5h-660q-20 -100 -101 -166.5t-185 -66.5q-123 0 -209 86t-86 208t86 209t209 87q104 0 185 -66.5t101 -167.5h660q20 100 101 167t187 67zM405.5 123q71.5 0 122 50t50.5 122t-50.5 122 t-122 50t-122 -50t-50.5 -122t50.5 -122t122 -50zM1639.5 123q70.5 0 121.5 50t51 122q0 47 -23.5 87t-63 62.5t-86 22.5t-86.5 -22.5t-63.5 -62.5t-23.5 -87q0 -72 51.5 -122t122 -50z" />
<glyph unicode="&#xe84a;" horiz-adv-x="2277" d="M860 641q37 14 80 29q-41 -15 -80 -29zM743 592q41 18 70 31q-27 -11 -70 -31zM981 682q68 20 125 33q-57 -13 -125 -33zM1018 567l-33 -10q29 8 33 10zM909 530q-29 -10 -37 -14q4 2 37 14zM795 483q-2 -2 -7.5 -4t-9.5 -4l-8 -4l8 4t9.5 4t7.5 4zM684 424 q-8 -4 -37 -23q25 17 37 23zM608 520q45 27 90 51q-43 -22 -90 -51zM872 516q-37 -14 -77 -33q40 19 77 33zM1130 596q-49 -10 -112 -29q61 19 112 29zM985 557q-41 -14 -76 -27q35 13 76 27zM770 471q-41 -20 -86 -47q45 27 86 47zM813 623q16 6 47 18q-29 -10 -47 -18z M940 670q33 10 41 12q-8 -2 -41 -12zM698 571q8 4 25.5 12.5t19.5 8.5q-4 -2 -13 -6t-17.5 -8.5t-14.5 -6.5zM1907 600q16 -12 28 -20q-12 16 -28 20zM1890 725q72 0 124 -51t52 -125t-52 -126t-124.5 -52t-125 52t-52.5 126l2 18q-248 98 -584 29q-51 -10 -112 -29l-33 -10 q-41 -14 -76 -27q-29 -10 -37 -14q-37 -14 -77 -33q-4 -2 -12.5 -6t-12.5 -6q-41 -20 -86 -47q-8 -4 -37 -23q-29 -18 -45 -30q-23 -16 -37 -27q-14 -12 -35 -31q-29 -25 -32 -26q18 -23 26 -49l1 -2l1 -3q10 -29 11 -55q0 -74 -52.5 -126t-126 -52t-126 52t-52.5 126 t52.5 126t125.5 52q18 0 37 -4q18 18 49 47q20 18 23 19q25 23 53 43q6 4 31 22q39 25 57 37q47 29 90 51q8 4 25.5 12.5t19.5 8.5q43 20 70 31q16 6 47 18q39 14 80 29q33 10 41 12q68 20 125 33q383 80 663 -37q51 47 121 47zM303 178.5q0 -22.5 16.5 -39t39 -16.5 t39 16.5t16.5 39t-16.5 38.5t-39 16t-39 -16t-16.5 -38.5zM1889.5 492q23.5 0 40 16t16.5 41q0 14 -11.5 30.5t-27.5 20.5q-12 4 -17 4q-25 0 -41 -16.5t-16 -40t16.5 -39.5t40 -16z" />
<glyph unicode="&#xe84b;" horiz-adv-x="2277" d="M2109 584q0 -72 -53 -123q4 -43 -6 -84q-23 -100 -120 -165t-244.5 -80t-395.5 -1q-2 0 -39 2q-20 -45 -62 -72.5t-91 -27.5q-47 0 -87 24.5t-61 63.5q-90 -16 -162 -60q-109 -61 -231 -61q-102 0 -185 42t-128 114q-53 14 -86 58t-33 101q0 63 42 110.5t103 55.5 q125 180 421 306t601 126q313 0 533 -139q8 -4 49 -37q33 14 68 15q70 0 118.5 -49t48.5 -119zM291.5 262q21.5 0 37 15.5t15.5 37t-15.5 38t-35.5 16.5q-14 0 -26.5 -7.5t-19.5 -19.5t-7 -27q0 -23 15 -38t36.5 -15zM1993 584q0 10 -4 20t-11.5 17.5t-16.5 11.5t-19 4 q-23 0 -38.5 -15.5t-15.5 -38t15.5 -38t37 -15.5t37 15.5t15.5 38.5zM1096.5 147q21.5 0 38 15.5t16.5 38.5q0 14 -7 25.5t-19.5 18.5t-27 7t-26.5 -7t-19.5 -18.5t-7.5 -25.5q0 -23 15.5 -38.5t37 -15.5zM1673 246q111 12 180.5 53t83.5 104q2 2 2 9v4q-70 0 -117.5 49 t-47.5 119q0 37 16 73q-2 2 -11.5 9.5t-15.5 11.5q-190 119 -471 119q-274 0 -527 -103.5t-372 -244.5q66 -51 66 -134q0 -92 -78 -141q63 -51 162.5 -55t187.5 43q92 53 203 74q12 57 58 95t106 38q55 0 99 -34t60 -87q29 -2 39 -2q238 -14 377 0z" />
<glyph unicode="&#xe84c;" horiz-adv-x="1372" d="M1204 0h-1014v358h121v-237h770v237h123v-358z" />
<glyph unicode="&#xe84d;" horiz-adv-x="1064" d="M186 0v403h691v-403h-691z" />
<glyph unicode="&#xe84e;" horiz-adv-x="1716" d="M494.5 608q-121.5 0 -207.5 87t-86 208t86 208t207.5 87t207.5 -87t86 -208t-86 -208t-207.5 -87zM495.5 1075q-71.5 0 -121.5 -50t-50 -122t50 -122t121.5 -50t122 50t50.5 122t-50.5 122t-122 50zM1226 608q-122 0 -209 87t-87 208t87 208t208 87q80 0 147.5 -40 t107.5 -107.5t40 -147.5q0 -121 -86 -208t-208 -87zM1225 1075q-72 0 -122 -50t-50 -122t50 -122t122 -50q47 0 87 22.5t62.5 62.5t22.5 87t-22.5 87t-62.5 62.5t-87 22.5zM860 2q-121 0 -208 86t-87 208t87 208t208 86t208 -86t87 -208t-87 -208t-208 -86zM860 469 q-47 0 -87 -23.5t-62.5 -63.5t-22.5 -85q0 -72 50 -123t122 -51t122 51t50 122t-50 122t-122 51z" />
<glyph unicode="&#xe84f;" horiz-adv-x="1404" d="M936 817l289 72l-72 -289l-76 76l-153 -152h51v-524h-811v524h631l217 217zM854 123v278h-51h-129h-387v-278h567z" />
<glyph unicode="&#xe850;" horiz-adv-x="1331" d="M1188 131l-129 -129l-324 322q-90 -55 -192 -56q-158 0 -268.5 112t-110.5 268.5t110 266.5q106 106 267 106.5t268 -106.5q94 -92 108.5 -223t-53.5 -239zM360 467q72 -74 181.5 -74t181.5 74q76 74 76 180.5t-75 182t-181.5 75.5t-182 -75.5t-76 -182t75.5 -180.5z" />
<glyph unicode="&#xe851;" horiz-adv-x="886" d="M537 350v-49h-97v-98h-49v98h-96v49h96v96h49v-96h97zM391 2q-125 8 -212 101.5t-87 222.5q0 66 25.5 126t68.5 103t103.5 68.5t126.5 25.5q135 0 229 -95t94 -228q0 -129 -87 -222.5t-212 -101.5v-51h-49v51zM415.5 600q-114.5 0 -195.5 -81t-81 -194.5t81 -194.5 t195.5 -81t195.5 81t81 194.5t-81 194.5t-195.5 81z" />
<glyph unicode="&#xe852;" horiz-adv-x="921" d="M453 647q127 -10 214 -103t87 -220q0 -133 -95.5 -228.5t-229.5 -95.5t-229.5 95t-95.5 229q0 84 40 156.5t109 116.5t153 50v49h47v-49zM430 47q113 0 194 81t81 196q0 76 -37 139t-100.5 100t-138.5 37t-138.5 -37t-100 -100.5t-36.5 -138t36.5 -138t100 -101.5 t139.5 -38zM307 299v49h244v-49h-244z" />
<glyph unicode="&#xe853;" horiz-adv-x="270" d="M113 264v160h49v-160h-49zM113 2v158h49v-158h-49z" />
<glyph unicode="&#xe854;" horiz-adv-x="559" d="M295 453q86 -10 144.5 -75t58.5 -151q0 -94 -66.5 -160.5t-161 -66.5t-161 66.5t-66.5 160.5q0 86 58.5 150.5t144.5 75.5v24h49v-24zM270 49q74 0 126.5 52.5t52.5 125.5q0 35 -13.5 68t-36 56.5t-54.5 37.5t-66 17h-17q-70 -4 -120 -55.5t-50 -123.5q0 -49 23.5 -90 t65.5 -64.5t89 -23.5zM176 201v49h189v-49h-189z" />
<glyph unicode="&#xe855;" horiz-adv-x="823" d="M729 279l-6 -74l-23 2q-35 -92 -116.5 -149.5t-184 -57.5t-184.5 57.5t-117 149.5l-22 -2l-6 74h8q-2 25 -2 45q0 135 94 230t229.5 95t229.5 -95t94 -230q0 -18 -2 -45h8zM399.5 49q114.5 0 195.5 81t81 194.5t-81 194.5t-195.5 81t-195.5 -81t-81 -194.5t81 -194.5 t195.5 -81zM520 346v-49h-96v-96h-49v96h-96v49h96v96h49v-96h96z" />
<glyph unicode="&#xe856;" horiz-adv-x="581" d="M506 297l-6 -72q0 -61 -31 -113.5t-83 -82t-114 -29.5q-92 0 -158.5 65.5t-66.5 159.5l-6 72l18 2q23 68 81.5 111t132 43t132 -43t82.5 -111zM272 47q49 0 90 24.5t65 65.5t24 88q0 74 -52.5 126t-126 52t-126 -52t-52.5 -125.5t52 -126t126 -52.5zM180 199v49h189v-49 h-189z" />
<glyph unicode="&#xe857;" horiz-adv-x="954" d="M727 0l-49 4l12 150l49 -4zM748 248l-50 4l13 149l49 -4zM768 498l-49 2l12 149l49 -4zM788 745l-49 5l13 147l49 -4zM246 0l-13 150l48 4l12 -150zM225 248l-12 149l47 4l12 -149zM205 498l-12 147l47 4l12 -149zM184 745l-12 148l47 4l12 -147z" />
<glyph unicode="&#xe858;" horiz-adv-x="950" d="M502 514v-49h-99v-98h-47v98h-98v49h98v96h47v-96h99zM844 145q23 -23 22.5 -55.5t-22.5 -56.5l-13 -13q-23 -23 -55.5 -22.5t-56.5 22.5l-187 187q-72 -39 -153 -39q-100 0 -182 57.5t-119 149.5l-21 -2l-6 71l8 2q-4 25 -4 46q0 135 95.5 230t229.5 95t229.5 -95 t95.5 -230q0 -20 -5 -46l9 -2l-7 -71l-20 2q-8 -23 -23 -45zM498 244q23 10 43 24q33 23 57 56q16 20 27 41q31 61 30 127q0 115 -80.5 195.5t-195.5 80.5q-74 0 -137.5 -37t-100.5 -100.5t-37 -138.5q0 -115 81 -196t194 -81q62 0 119 29zM809 68q23 23 0 43l-176 178 q-25 -29 -58 -56l179 -178q8 -8 21 -8t22 8z" />
<glyph unicode="&#xe859;" horiz-adv-x="974" d="M307 403v50h189v-50h-189zM805 152q23 -23 22.5 -56t-22.5 -55l-12 -12q-25 -25 -58 -25t-55 25l-195 192q-41 -16 -84 -16q-94 0 -160.5 65.5t-66.5 159.5l-6 72l18 2q23 68 82.5 110.5t132.5 42.5q47 0 91.5 -19.5t76 -54t45.5 -79.5l19 -2l-6 -72q0 -43 -17 -84z M446 260q27 8 50 21q35 23 55 57q14 20 20 47q8 25 9 47q0 74 -52.5 126t-126 52t-126 -52t-52.5 -126t52.5 -126t125.5 -52q20 0 45 6zM770 76q23 20 0 43l-184 182q-23 -31 -56 -55l185 -185q8 -8 21.5 -8t21.5 8z" />
<glyph unicode="&#xe85a;" horiz-adv-x="901" d="M764 647l-12 -147l-50 2l13 149zM723 152l-12 -150l-49 4l12 150zM682 254l12 149l49 -4l-12 -149zM168 748l-12 147l47 4l12 -147zM244 403l12 -149l-47 -4l-12 149zM188 500l-12 147l47 4l13 -149zM264 156l12 -150l-47 -4l-12 150z" />
<glyph unicode="&#xe85b;" horiz-adv-x="458" d="M238 -514l110 160l-82 -11l10 259h-79l10 -259l-82 9l113 -158v0z" />
<glyph horiz-adv-x="851" d="M428 -20q-80 0 -141.5 38.5t-95 104t-50 139.5t-16.5 156q0 111 27.5 206t98.5 164.5t177 69.5q162 0 262.5 -131t100.5 -309t-100.5 -308t-262.5 -130zM428 731q-102 0 -163.5 -92t-61.5 -221t61.5 -220.5t163.5 -91.5t162.5 91.5t60.5 220.5t-60.5 221t-162.5 92z" />
<glyph horiz-adv-x="905" d="M444 -20q-162 0 -262 130t-100 308t100.5 309t261.5 131q141 0 226 -125v105h133v-838h-133v102q-83 -122 -226 -122zM444.5 731q-102.5 0 -163 -92t-60.5 -221t60.5 -220.5t163 -91.5t164 91.5t61.5 220.5t-61.5 221t-164 92z" />
<glyph horiz-adv-x="890" d="M809 1024v-18h-590q4 -125 65.5 -210t161.5 -85q70 0 128.5 45t87.5 116h139q-37 -125 -132.5 -205.5t-222.5 -80.5q-162 0 -263 130t-101 308t101.5 309t263 131t262 -131t100.5 -309zM446.5 1339q-81.5 0 -139 -59t-78.5 -156h433q-20 94 -77 154.5t-138.5 60.5z" />
<glyph horiz-adv-x="913" d="M446 586q-162 0 -262 130t-100 308t100.5 309t261.5 131q147 0 232 -135v115h133v-856q0 -135 -97.5 -217t-240.5 -82t-240.5 82t-97.5 217h133q0 -166 205 -166q92 0 148.5 52t56.5 144v101q-82 -133 -232 -133zM446.5 1337q-102.5 0 -163 -92t-60.5 -221t60.5 -220 t163 -91t164 91t61.5 220t-61.5 221t-164 92z" />
<glyph horiz-adv-x="337" d="M236 1444v-838h-134v838h134zM246 1741v-154h-154v154h154z" />
<glyph horiz-adv-x="931" d="M461 586q-147 0 -225 125v-381h-134v1114h134v-107q80 127 225 127q162 0 262 -131t100 -309t-100 -308t-262 -130zM461 1337q-100 0 -160.5 -88t-64.5 -213v-24q4 -127 63 -213t161.5 -86t163 91t60.5 220t-60.5 221t-162.5 92z" />
<glyph horiz-adv-x="716" d="M256 1149v-543h-133v838h133v-76q61 96 174 96q100 0 162.5 -70.5t62.5 -185.5v-32h-133v20q0 70 -29.5 107.5t-82.5 37.5q-80 0 -116 -59t-38 -133z" />
<glyph horiz-adv-x="757" d="M563 895h133v-31q0 -113 -65.5 -195.5t-169.5 -82.5q-111 0 -173.5 78.5t-62.5 199.5v447h-164v133h164v287h133v-287h205v-133h-205v-416q0 -176 102.5 -176t102.5 176z" />
<glyph d="M625 946v498h133v-838h-133v88q-76 -109 -205 -108q-137 0 -217 79.5t-80 219.5v559h133v-529q0 -207 174 -206q84 0 137.5 71.5t57.5 165.5z" />
<glyph horiz-adv-x="364" d="M266 770v-164h-168v164h168z" />
<glyph horiz-adv-x="337" d="M236 1772v-1166h-134v1166h134z" />
<glyph horiz-adv-x="925" d="M444 -20q-162 0 -262 130t-100 308t100.5 309t261.5 131q141 0 226 -125v105h133v-1123q0 -139 -94.5 -239.5t-231.5 -100.5q-141 0 -229 81t-88 218v45h133v-14q0 -94 47 -150.5t137 -56.5q88 0 140.5 65.5t52.5 162.5v376q-83 -122 -226 -122zM444.5 731 q-102.5 0 -163 -92t-60.5 -221t60.5 -220.5t163 -91.5t164 91.5t61.5 220.5t-61.5 221t-164 92z" />
<glyph horiz-adv-x="905" d="M444 586q-162 0 -262 130t-100 308t100.5 309t261.5 131q141 0 226 -125v105h133v-838h-133v103q-83 -123 -226 -123zM444.5 1337q-102.5 0 -163 -92t-60.5 -221t60.5 -220t163 -91t164 91t61.5 220t-61.5 221t-164 92z" />
<glyph horiz-adv-x="833" d="M340 1038l-283 406h154l205 -297l205 297h153l-282 -406l301 -432h-152l-225 322l-223 -322h-152z" />
<glyph horiz-adv-x="593" d="M481 1743v-127q-115 0 -123 -172h154v-123h-154v-715h-133v715h-143v123h143q0 127 68.5 213t187.5 86z" />
<glyph horiz-adv-x="759" d="M383 180l211 658h145l-493 -1442h-135l204 606l-305 836h146z" />
<glyph horiz-adv-x="425" d="M184 1516l-88 256h125l88 -256h-125z" />
<glyph horiz-adv-x="425" d="M330 1772l-88 -256h-125l88 256h125z" />
<glyph horiz-adv-x="614" d="M365 1772l178 -256h-137l-101 157l-98 -157h-135l178 256h115z" />
<glyph horiz-adv-x="614" d="M530 1716v-160h-159v160h159zM244 1716v-160h-160v160h160z" />
<glyph horiz-adv-x="614" d="M416 1649q57 0 94 53l80 -78q-80 -94 -174 -94q-49 0 -118 36t-97 36q-57 0 -95 -54l-79 78q78 94 172 94q47 0 116.5 -35.5t100.5 -35.5z" />
<glyph horiz-adv-x="614" d="M57 1669h502v-113h-502v113z" />
<glyph horiz-adv-x="614" d="M432 1772h117q0 -106 -69.5 -173t-172 -67t-171 66.5t-68.5 173.5h116q0 -57 32 -97.5t91.5 -40.5t92 40.5t32.5 97.5z" />
<glyph horiz-adv-x="614" d="M113 1536q0 84 58 142.5t142 58.5t142.5 -59.5t58.5 -141.5q0 -84 -58.5 -142.5t-142.5 -58.5t-142 58.5t-58 142.5zM211 1536q0 -43 29.5 -74.5t72.5 -31.5q41 0 72 31.5t31 74.5q0 41 -31 73.5t-72 32.5q-43 0 -72.5 -31.5t-29.5 -74.5z" />
<glyph horiz-adv-x="614" d="M543 1772l-178 -256h-115l-178 256h135l98 -158l101 158h137z" />
<glyph horiz-adv-x="905" d="M461 586q-147 0 -225 125v-105h-134v1166h134v-435q80 127 225 127q162 0 262 -131t100 -309t-100 -308t-262 -130zM461 1337q-100 0 -160.5 -88t-64.5 -213v-24q4 -127 63 -213t161.5 -86t163 91t60.5 220t-60.5 221t-162.5 92z" />
<glyph d="M645 872h143q-37 -127 -127 -206.5t-215 -79.5q-162 0 -263 130t-101 308t101.5 309t262.5 131q125 0 214.5 -79.5t125.5 -204.5h-143q-59 158 -197 157q-102 0 -163.5 -92t-61.5 -221t61.5 -220t163.5 -91q70 0 122 42.5t77 116.5z" />
<glyph horiz-adv-x="905" d="M670 606v103q-82 -123 -226 -123q-162 0 -262 130t-100 308t100.5 309t261.5 131q141 0 226 -125v433h133v-1166h-133zM444.5 1337q-102.5 0 -163 -92t-60.5 -221t60.5 -220t163 -91t164 91t61.5 220t-61.5 221t-164 92z" />
<glyph horiz-adv-x="839" d="M236 1102v-496h-134v1166h134v-418q78 111 204 110q137 0 217 -79.5t80 -219.5v-559h-133v529q0 207 -174 206q-86 0 -139 -71.5t-55 -167.5z" />
<glyph horiz-adv-x="368" d="M123 575v869h133v-858q0 -125 -67.5 -201t-188.5 -76v123q59 0 91 40t32 103zM266 1741v-154h-153v154h153z" />
<glyph horiz-adv-x="813" d="M236 944v-338h-134v1166h134v-650l339 322h187l-428 -406l459 -432h-199z" />
<glyph horiz-adv-x="1361" d="M256 1102v-496h-133v838h133v-90q78 111 205 110q190 0 262 -145q88 145 240 145q137 0 217 -79.5t80 -219.5v-559h-134v529q0 207 -174 206q-86 0 -139 -71.5t-55 -167.5v-496h-133v529q0 207 -174 206q-86 0 -139.5 -71.5t-55.5 -167.5z" />
<glyph horiz-adv-x="890" d="M446.5 1337q-102.5 0 -164 -92t-61.5 -221t61.5 -220t164 -91t163 91t60.5 220t-60.5 221t-163 92zM446.5 586q-161.5 0 -263 130t-101.5 308t101.5 309t263 131t262 -131t100.5 -309t-100.5 -308t-262 -130z" />
<glyph horiz-adv-x="931" d="M465 586q-162 0 -262.5 130t-100.5 308t100.5 309t262.5 131q141 0 225 -125v105h133v-1114h-133v379q-82 -123 -225 -123zM464.5 1337q-102.5 0 -162.5 -92t-60 -221t60 -220t162.5 -91t164 91t61.5 220t-61.5 221t-164 92z" />
<glyph horiz-adv-x="782" d="M397 586q-133 0 -224 77.5t-91 202.5v6h133v-6q0 -74 54.5 -117.5t127.5 -43.5q184 0 185 139q0 45 -50.5 71.5t-122 44t-143 41t-122 78t-50.5 140.5q0 117 86 181t217 64q123 0 209 -73.5t94 -190.5h-135q-12 61 -54 103.5t-114 42.5q-78 0 -122 -33t-44 -94 q0 -45 50.5 -72t122 -44.5t143 -41t122 -77.5t50.5 -140q0 -123 -92.5 -190.5t-229.5 -67.5z" />
<glyph horiz-adv-x="790" d="M41 1444h145l209 -653l209 653h146l-287 -838h-135z" />
<glyph horiz-adv-x="757" d="M737 1444l-274 -801q-20 -94 -85 -152.5t-161 -58.5v127q66 0 96 57l-305 828h150l221 -633h10l203 633h145z" />
<glyph horiz-adv-x="757" d="M717 606h-635v127l465 584h-445v127h615v-127l-475 -584h475v-127z" />
<glyph horiz-adv-x="1353" d="M891 606l-215 629l-213 -629h-135l-287 838h145l209 -656l213 656h137l213 -656l209 656h146l-287 -838h-135z" />
<glyph horiz-adv-x="890" d="M809 1024v-18h-590q4 -125 65.5 -210t161.5 -85q70 0 128.5 45t87.5 116h139q-37 -125 -132.5 -205.5t-222.5 -80.5q-162 0 -263 130t-101 308t101.5 309t263 131t262 -131t100.5 -309zM446.5 1339q-81.5 0 -139 -59t-78.5 -156h433q-20 94 -77 154.5t-138.5 60.5z M596 1772l-88 -256h-125l88 256h125z" />
<glyph horiz-adv-x="446" d="M303 1720v-159h-160v159h160z" />
<glyph horiz-adv-x="561" d="M254 -313h-139q0 170 98 274.5t266 104.5v-66q-102 0 -163.5 -92t-61.5 -221z" />
<glyph horiz-adv-x="624" d="M543 1772l-88 -256h-125l88 256h125zM295 1772l-88 -256h-125l88 256h125z" />
<glyph horiz-adv-x="512" d="M395 1444l-149 -318v-135h-135v135l149 318h135z" />
<glyph horiz-adv-x="512" d="M154 -475l106 227v135h135v-135l-106 -227h-135z" />
<glyph horiz-adv-x="0" />
<glyph horiz-adv-x="905" d="M444 586q-162 0 -262 130t-100 308t100.5 309t261.5 131q141 0 226 -125v105h133v-838h-133v103q-83 -123 -226 -123zM444.5 1337q-102.5 0 -163 -92t-60.5 -221t60.5 -220t163 -91t164 91t61.5 220t-61.5 221t-164 92zM596 1772l-88 -256h-125l88 256h125z" />
<glyph horiz-adv-x="905" d="M444 586q-162 0 -262 130t-100 308t100.5 309t261.5 131q141 0 226 -125v105h133v-838h-133v103q-83 -123 -226 -123zM444.5 1337q-102.5 0 -163 -92t-60.5 -221t60.5 -220t163 -91t164 91t61.5 220t-61.5 221t-164 92zM389 1516l-88 256h125l88 -256h-125z" />
<glyph horiz-adv-x="905" d="M444 586q-162 0 -262 130t-100 308t100.5 309t261.5 131q141 0 226 -125v105h133v-838h-133v103q-83 -123 -226 -123zM444.5 1337q-102.5 0 -163 -92t-60.5 -221t60.5 -220t163 -91t164 91t61.5 220t-61.5 221t-164 92zM508 1772l178 -256h-137l-100 157l-99 -157h-135 l178 256h115z" />
<glyph horiz-adv-x="905" d="M444 586q-162 0 -262 130t-100 308t100.5 309t261.5 131q141 0 226 -125v105h133v-838h-133v103q-83 -123 -226 -123zM444.5 1337q-102.5 0 -163 -92t-60.5 -221t60.5 -220t163 -91t164 91t61.5 220t-61.5 221t-164 92zM674 1716v-160h-160v160h160zM387 1716v-160h-160 v160h160z" />
<glyph horiz-adv-x="905" d="M444 586q-162 0 -262 130t-100 308t100.5 309t261.5 131q141 0 226 -125v105h133v-838h-133v103q-83 -123 -226 -123zM444.5 1337q-102.5 0 -163 -92t-60.5 -221t60.5 -220t163 -91t164 91t61.5 220t-61.5 221t-164 92zM539 1649q57 0 94 53l80 -78q-80 -94 -174 -94 q-49 0 -118 36t-97 36q-57 0 -95 -54l-79 78q78 94 172 94q47 0 116.5 -35.5t100.5 -35.5z" />
<glyph d="M524 594l-131 -397h-127l129 391q-141 20 -227 147t-86 289q0 178 101.5 309t262.5 131q125 0 214.5 -79.5t125.5 -204.5h-143q-59 158 -197 157q-102 0 -163.5 -92t-61.5 -221t61.5 -220t163.5 -91q70 0 122.5 43t76.5 116h143q-33 -106 -100.5 -180.5t-163.5 -97.5z " />
<glyph horiz-adv-x="890" d="M809 1006v18q0 178 -100.5 309t-262 131t-263 -131t-101.5 -309t101.5 -308t262.5 -130q127 0 222.5 81t132.5 205h-139q-29 -72 -87.5 -116.5t-128.5 -44.5q-100 0 -161.5 85t-65.5 210h590zM446.5 1339q81.5 0 138 -60t77.5 -155h-433q20 96 78 155.5t139.5 59.5z M389 1516l-88 256h125l88 -256h-125z" />
<glyph horiz-adv-x="890" d="M809 1024v-18h-590q4 -125 65.5 -210t161.5 -85q70 0 128.5 45t87.5 116h139q-37 -125 -132.5 -205.5t-222.5 -80.5q-162 0 -263 130t-101 308t101.5 309t263 131t262 -131t100.5 -309zM446.5 1339q-81.5 0 -139 -59t-78.5 -156h433q-20 94 -77 154.5t-138.5 60.5z M508 1772l178 -256h-137l-100 157l-99 -157h-135l178 256h115z" />
<glyph horiz-adv-x="890" d="M809 1024v-18h-590q4 -125 65.5 -210t161.5 -85q70 0 128.5 45t87.5 116h139q-37 -125 -132.5 -205.5t-222.5 -80.5q-162 0 -263 130t-101 308t101.5 309t263 131t262 -131t100.5 -309zM446.5 1339q-81.5 0 -139 -59t-78.5 -156h433q-20 94 -77 154.5t-138.5 60.5z M670 1716v-160h-160v160h160zM383 1716v-160h-160v160h160z" />
<glyph horiz-adv-x="358" d="M246 1444v-838h-133v838h133zM309 1772l-88 -256h-125l88 256h125z" />
<glyph horiz-adv-x="358" d="M246 606v838h-133v-838h133zM143 1516l-88 256h125l88 -256h-125z" />
<glyph horiz-adv-x="358" d="M246 1444v-838h-133v838h133zM240 1772l178 -256h-137l-101 157l-98 -157h-135l178 256h115z" />
<glyph horiz-adv-x="358" d="M246 1444v-838h-133v838h133zM401 1716v-160h-159v160h159zM115 1716v-160h-160v160h160z" />
<glyph d="M256 606v496q2 96 55.5 167.5t139.5 71.5q174 0 174 -206v-529h133v559q0 139 -80 219t-217 80q-127 0 -205 -110v90h-133v-838h133zM559 1649q57 0 94 53l80 -78q-80 -94 -174 -94q-49 0 -117.5 36t-97.5 36q-57 0 -94 -54l-80 78q78 94 172 94q47 0 116.5 -35.5 t100.5 -35.5z" />
<glyph horiz-adv-x="890" d="M446.5 1337q-102.5 0 -164 -92t-61.5 -221t61.5 -220t164 -91t163 91t60.5 220t-60.5 221t-163 92zM446.5 586q-161.5 0 -263 130t-101.5 308t101.5 309t263 131t262 -131t100.5 -309t-100.5 -308t-262 -130zM596 1772l-88 -256h-125l88 256h125z" />
<glyph horiz-adv-x="890" d="M446.5 1337q-102.5 0 -164 -92t-61.5 -221t61.5 -220t164 -91t163 91t60.5 220t-60.5 221t-163 92zM446.5 586q-161.5 0 -263 130t-101.5 308t101.5 309t263 131t262 -131t100.5 -309t-100.5 -308t-262 -130zM389 1516l-88 256h125l88 -256h-125z" />
<glyph horiz-adv-x="890" d="M446.5 1337q-102.5 0 -164 -92t-61.5 -221t61.5 -220t164 -91t163 91t60.5 220t-60.5 221t-163 92zM446.5 586q-161.5 0 -263 130t-101.5 308t101.5 309t263 131t262 -131t100.5 -309t-100.5 -308t-262 -130zM506 1772l178 -256h-137l-101 157l-98 -157h-135l178 256h115 z" />
<glyph horiz-adv-x="890" d="M446.5 1337q-102.5 0 -164 -92t-61.5 -221t61.5 -220t164 -91t163 91t60.5 220t-60.5 221t-163 92zM446.5 586q-161.5 0 -263 130t-101.5 308t101.5 309t263 131t262 -131t100.5 -309t-100.5 -308t-262 -130zM670 1716v-160h-160v160h160zM383 1716v-160h-160v160h160z " />
<glyph horiz-adv-x="890" d="M446.5 1337q-102.5 0 -164 -92t-61.5 -221t61.5 -220t164 -91t163 91t60.5 220t-60.5 221t-163 92zM446.5 586q-161.5 0 -263 130t-101.5 308t101.5 309t263 131t262 -131t100.5 -309t-100.5 -308t-262 -130zM555 1649q57 0 94 53l80 -78q-80 -94 -174 -94 q-49 0 -117.5 36t-97.5 36q-57 0 -94 -54l-80 78q78 94 172 94q47 0 116.5 -35.5t100.5 -35.5z" />
<glyph d="M625 956v488h133v-838h-133v88q-76 -109 -205 -108q-137 0 -217 79.5t-80 219.5v559h133v-529q0 -207 174 -206q88 0 141.5 74.5t53.5 172.5zM575 1772l-88 -256h-125l89 256h124z" />
<glyph d="M625 1444v-496q-2 -96 -55.5 -167.5t-139.5 -71.5q-174 0 -174 206v529h-133v-559q0 -139 80 -219t217 -80q127 0 205 110v-90h133v838h-133zM389 1516l-88 256h125l88 -256h-125z" />
<glyph d="M625 946v498h133v-838h-133v88q-76 -109 -205 -108q-137 0 -217 79.5t-80 219.5v559h133v-529q0 -207 174 -206q84 0 137.5 71.5t57.5 165.5zM487 1772l179 -256h-138l-100 157l-98 -157h-135l178 256h114z" />
<glyph d="M625 948v496h133v-838h-133v90q-78 -111 -205 -110q-137 0 -217 79.5t-80 219.5v559h133v-529q0 -207 174 -206q86 0 139.5 71.5t55.5 167.5zM674 1716v-160h-160v160h160zM387 1716v-160h-160v160h160z" />
</font>
</defs>
</svg>
